<svg width="123" height="120" viewBox="0 0 123 120" fill="none" xmlns="http://www.w3.org/2000/svg">
<g clip-path="url(#clip0_1_21)">
<path fill-rule="evenodd" clip-rule="evenodd" d="M91.89 57.78C98.0212 57.78 104.015 59.5981 109.113 63.0044C114.211 66.4108 118.184 71.2523 120.53 76.9168C122.877 82.5813 123.49 88.8144 122.294 94.8278C121.098 100.841 118.146 106.365 113.81 110.7C109.475 115.036 103.951 117.988 97.9378 119.184C91.9244 120.38 85.6913 119.767 80.0268 117.42C74.3623 115.074 69.5208 111.101 66.1144 106.003C62.7081 100.905 60.89 94.9112 60.89 88.78C60.89 80.5583 64.1561 72.6733 69.9697 66.8597C75.7833 61.0461 83.6683 57.78 91.89 57.78ZM69.89 4.06C69.89 1.83 72.09 0 74.89 0C77.69 0 79.89 1.82 79.89 4.06V21.83C79.89 24.06 77.69 25.89 74.89 25.89C72.09 25.89 69.89 24.07 69.89 21.83V4.06ZM13.49 57.51C13.2 57.51 12.95 56.28 12.95 54.76C12.95 53.24 13.17 52.03 13.49 52.03H27C27.28 52.03 27.53 53.26 27.53 54.76C27.53 56.26 27.31 57.51 27 57.51H13.49ZM35.03 57.51C34.75 57.51 34.5 56.28 34.5 54.76C34.5 53.24 34.72 52 35 52H48.55C48.83 52 49.08 53.23 49.08 54.73C49.08 56.23 48.86 57.48 48.55 57.48L35.03 57.51ZM56.58 57.51C56.3 57.51 56.05 56.28 56.05 54.76C56.05 53.24 56.27 52.03 56.58 52.03H70.1C70.38 52.03 70.63 53.25 70.63 54.75C69.278 55.5943 67.9759 56.5158 66.73 57.51H56.58ZM13.52 73.23C13.24 73.23 12.98 72 12.98 70.48C12.98 68.96 13.2 67.74 13.52 67.74H27C27.28 67.74 27.53 68.97 27.53 70.48C27.53 71.99 27.31 73.23 27 73.23H13.52ZM35.06 73.23C34.78 73.23 34.53 72 34.53 70.48C34.53 68.96 34.75 67.74 35.06 67.74H48.58C48.86 67.74 49.11 68.97 49.11 70.48C49.11 71.99 48.89 73.23 48.58 73.23H35.06ZM13.55 89C13.27 89 13.01 87.77 13.01 86.26C13.01 84.75 13.24 83.51 13.55 83.51H27.06C27.34 83.51 27.59 84.74 27.59 86.26C27.59 87.78 27.37 89 27.06 89H13.55ZM35.09 89C34.81 89 34.56 87.77 34.56 86.26C34.56 84.75 34.78 83.51 35.09 83.51H48.61C48.89 83.51 49.14 84.74 49.14 86.26C49.14 87.78 48.92 89 48.61 89H35.09ZM25.36 4.06C25.36 1.83 27.56 0 30.31 0C33.06 0 35.26 1.82 35.26 4.06V21.83C35.26 24.06 33.05 25.89 30.31 25.89C27.57 25.89 25.36 24.07 25.36 21.83V4.06ZM5.45 38.84H99.79V18.39C99.7874 17.7278 99.5231 17.0934 99.0549 16.6251C98.5866 16.1569 97.9522 15.8926 97.29 15.89H88.29C87.9156 15.9126 87.5405 15.8584 87.1878 15.7307C86.8351 15.6029 86.5123 15.4044 86.2392 15.1473C85.9661 14.8902 85.7485 14.5799 85.5997 14.2356C85.451 13.8912 85.3742 13.5201 85.3742 13.145C85.3742 12.7699 85.451 12.3988 85.5997 12.0544C85.7485 11.7101 85.9661 11.3998 86.2392 11.1427C86.5123 10.8856 86.8351 10.6871 87.1878 10.5593C87.5405 10.4316 87.9156 10.3774 88.29 10.4H97.29C99.4117 10.4 101.447 11.2429 102.947 12.7431C104.447 14.2434 105.29 16.2783 105.29 18.4V50.87C103.471 50.2435 101.609 49.7457 99.72 49.38V44.31H5.45V97.31C5.46913 97.9478 5.73431 98.5534 6.19 99C6.42431 99.2436 6.70541 99.4374 7.01643 99.5697C7.32746 99.702 7.662 99.7701 8 99.77H52.78C53.2834 101.666 53.9285 103.521 54.71 105.32H8C5.88396 105.324 3.85239 104.49 2.35 103C1.5977 102.259 1.00201 101.374 0.598317 100.399C0.19462 99.4228 -0.00884742 98.3759 2.09193e-06 97.32V18.41C2.09193e-06 16.2883 0.842857 14.2534 2.34315 12.7531C3.84344 11.2529 5.87827 10.41 8 10.41H17.66C18.3594 10.4522 19.0163 10.7598 19.4965 11.27C19.9768 11.7801 20.2442 12.4543 20.2442 13.155C20.2442 13.8557 19.9768 14.5299 19.4965 15.04C19.0163 15.5502 18.3594 15.8578 17.66 15.9H8C7.67283 15.8985 7.34866 15.9623 7.04645 16.0877C6.74425 16.213 6.47008 16.3974 6.24 16.63C5.7751 17.1022 5.51314 17.7374 5.51 18.4V38.85H5.45V38.84ZM43.19 15.84C42.8156 15.8626 42.4405 15.8084 42.0878 15.6807C41.7351 15.5529 41.4123 15.3544 41.1392 15.0973C40.8661 14.8402 40.6485 14.5299 40.4997 14.1856C40.351 13.8412 40.2742 13.4701 40.2742 13.095C40.2742 12.7199 40.351 12.3488 40.4997 12.0044C40.6485 11.6601 40.8661 11.3498 41.1392 11.0927C41.4123 10.8356 41.7351 10.6371 42.0878 10.5093C42.4405 10.3816 42.8156 10.3274 43.19 10.35H61.59C61.9644 10.3274 62.3395 10.3816 62.6922 10.5093C63.0449 10.6371 63.3677 10.8356 63.6408 11.0927C63.9139 11.3498 64.1315 11.6601 64.2803 12.0044C64.429 12.3488 64.5058 12.7199 64.5058 13.095C64.5058 13.4701 64.429 13.8412 64.2803 14.1856C64.1315 14.5299 63.9139 14.8402 63.6408 15.0973C63.3677 15.3544 63.0449 15.5529 62.6922 15.6807C62.3395 15.8084 61.9644 15.8626 61.59 15.84H43.19ZM82.58 83.5L88.41 89.05L100.5 76.8C101.5 75.8 102.12 74.98 103.35 76.24L107.35 80.32C108.65 81.61 108.58 82.32 107.35 83.57L90.68 100C88.09 102.54 88.54 102.7 85.9 100.09L75.9 90.09C75.7702 89.974 75.6681 89.8302 75.6014 89.6694C75.5346 89.5086 75.505 89.3348 75.5146 89.1609C75.5242 88.9871 75.5728 88.8176 75.6569 88.6651C75.7409 88.5126 75.8582 88.381 76 88.28L80.62 83.5C81.31 82.77 81.87 82.81 82.62 83.5H82.58Z" fill="white"/>
</g>
<defs>
<clipPath id="clip0_1_21">
<rect width="122.88" height="119.75" fill="white"/>
</clipPath>
</defs>
</svg>
