<svg width="123" height="100" viewBox="0 0 123 100" fill="none" xmlns="http://www.w3.org/2000/svg">
<g clip-path="url(#clip0_1_11)">
<path fill-rule="evenodd" clip-rule="evenodd" d="M11.9116 33.8803H111.819V36.2578H11.9116V33.8803ZM89.5974 68.7233V94.1817H82.4805V90.247H40.5195V94.1817H33.4026V68.7233H30.9502V64.8054H36.936L40.2693 56.1239C41.2502 53.5705 42.8918 51.2432 46.105 51.2432H78.1162C81.3293 51.2432 83.1812 53.5203 83.9519 56.1239L86.5344 64.8054H92.0398V68.7233H89.5974ZM50.8396 82.3943H71.8601V86.5383H50.8396V82.3943ZM35.7849 72.7417C41.1401 72.8841 44.4133 74.7593 45.2541 78.6689H35.7849V72.7417ZM86.5444 72.7417C81.1892 72.8841 77.916 74.7593 77.0752 78.6689H86.5444V72.7417ZM39.4985 64.8137H83.5115L81.6296 57.5303C81.1091 55.5295 79.6277 53.8133 77.1853 53.8133H46.7356C44.2932 53.8133 43.032 55.5881 42.2913 57.5303L39.4985 64.8137ZM111.819 40.3098V95.9481H11.9116V40.3098H111.819ZM7.06689 35.8225H2.42236H0V33.7966V23.8091V22.5031L1.44141 21.9674L59.1777 0.368355L60.1587 0L61.1296 0.359983L121.549 22.771L123 23.3068V24.6212V33.7882V35.8141H120.578H116.664V97.9657V99.9916H114.241H9.48926H7.06689V97.9657V35.8225Z" fill="white"/>
</g>
<defs>
<clipPath id="clip0_1_11">
<rect width="123" height="100" fill="white"/>
</clipPath>
</defs>
</svg>
