<svg width="123" height="100" viewBox="0 0 123 100" fill="none" xmlns="http://www.w3.org/2000/svg">
<g clip-path="url(#clip0_1_2)">
<path fill-rule="evenodd" clip-rule="evenodd" d="M34.0532 69.7176C39.8689 82.5865 57.5061 83.0325 63.0715 69.7919C61.5601 68.1567 60.429 66.4048 59.3079 64.674C59.1277 64.398 58.9375 64.1007 58.7473 63.8246C56.0547 66.0862 52.8015 67.5303 48.5474 67.5196C43.9629 67.509 40.5095 65.6403 37.6768 62.9008C37.5066 62.7416 37.3364 62.5717 37.1763 62.4018C36.7759 63.6016 36.2554 65.0244 35.7048 66.3623C35.1643 67.6258 34.5938 68.8469 34.0532 69.7176ZM104.982 60.4056V83.2448L96.374 77.8934L87.7056 83.7014V60.4056H75.4636C74.3025 60.4056 73.3416 61.4143 73.3416 62.6566V93.8097C73.3416 95.0414 74.3025 96.0501 75.4636 96.0501H117.234C118.396 96.0501 119.346 95.0308 119.346 93.8097V62.646C119.346 61.4143 118.396 60.395 117.234 60.395H104.982V60.4056ZM91.3591 60.4056V76.6936L96.304 73.3808L101.339 76.5131V60.4056H91.3591ZM75.4636 56.53H87.7156H104.992H117.244C118.826 56.53 120.257 57.2202 121.308 58.3245L121.318 58.3351C122.359 59.4394 123.01 60.9684 123.01 62.646V93.7991C123.01 95.4661 122.359 96.9951 121.318 98.0994L121.308 98.11C120.257 99.2143 118.816 99.9044 117.254 99.9044H93.8816C93.8215 99.9363 93.7515 99.9681 93.6914 99.9894H2.51245C-1.03101 99.2461 -2.88281 86.0055 11.4211 77.543C17.1968 74.124 26.0654 72.9985 32.3015 68.3797C32.762 67.6471 33.2524 66.5853 33.7329 65.4385C34.4436 63.6972 35.1042 61.8072 35.5247 60.5224C33.773 58.3457 32.2915 55.8824 30.8501 53.4508L26.1155 46.9314C24.3838 44.192 23.4929 41.6861 23.4329 39.6475C23.4028 38.6812 23.563 37.8 23.8933 37.0355C24.2537 36.2285 24.7842 35.5596 25.5249 35.0287C25.8652 34.7845 26.2456 34.5827 26.676 34.4128C26.3657 30.0913 26.2556 26.099 26.4458 21.5226C26.5459 20.4396 26.7461 19.3565 27.0264 18.2735C32.752 -3.34466 62.6912 -5.81865 66.9053 11.0852C69.5278 14.1007 71.1794 18.093 71.5398 23.3808L71.2395 34.9331C72.5508 35.3578 73.3916 36.2391 73.7319 37.6725C74.1123 39.2546 73.7019 41.4844 72.4307 44.5317C72.4106 44.5848 72.3806 44.6379 72.3506 44.691L66.9553 52.6439C64.9834 56.1053 62.9614 59.5774 60.3389 62.3062C60.5691 62.6672 60.8093 63.0389 61.0496 63.3893C62.1206 65.0457 63.1917 66.7127 64.583 68.1992C64.6331 68.2417 64.6631 68.2841 64.6931 68.3372C66.2646 69.5158 67.9463 70.4608 69.688 71.2784V62.646C69.688 60.9577 70.3386 59.4288 71.3796 58.3245C72.4307 57.2202 73.8721 56.53 75.4636 56.53ZM29.4087 36.7382C28.3677 36.7806 27.5669 37.0036 27.0264 37.3965C26.7161 37.6195 26.4858 37.8955 26.3357 38.2353C26.1755 38.6069 26.0955 39.0635 26.1055 39.5838C26.1455 41.1128 26.9062 43.1089 28.3577 45.4024L28.3777 45.4343L33.1123 51.9537C35.0042 55.1603 36.9961 58.4094 39.4685 60.8091C41.8508 63.1132 44.7336 64.674 48.5374 64.6846C52.6714 64.6953 55.6943 63.0813 58.1367 60.6392C60.6892 58.1015 62.7012 54.6401 64.6831 51.1786L70.0083 43.3319C71.0093 40.9216 71.3596 39.3183 71.1394 38.3839C71.0093 37.8212 70.4287 37.5451 69.4277 37.492C69.2175 37.4814 68.9973 37.4814 68.7771 37.4814C68.5369 37.492 68.2866 37.5027 68.0364 37.5345C67.8962 37.5451 67.7561 37.5345 67.626 37.5027C67.1555 37.5345 66.665 37.492 66.1646 37.4177L67.9863 30.3143C54.4431 32.5759 44.3132 21.9049 29.9993 28.1801L31.0303 36.8125C30.4497 36.8337 29.9192 36.8125 29.4087 36.7382Z" fill="white"/>
</g>
<defs>
<clipPath id="clip0_1_2">
<rect width="123" height="100" fill="white"/>
</clipPath>
</defs>
</svg>
