<svg width="123" height="100" viewBox="0 0 123 100" fill="none" xmlns="http://www.w3.org/2000/svg">
<path fill-rule="evenodd" clip-rule="evenodd" d="M75.9456 32.8383L78.9181 35.0881H78.9412C80.1994 36.056 80.2788 37.6678 78.9181 38.5986L77.1731 39.945C77.191 39.9899 77.232 40.0347 77.2499 40.0796C77.5703 40.5909 77.8496 41.1821 78.0648 41.7226L78.1033 41.8261H80.2455C82.0367 41.8261 83.5306 42.9617 83.5306 44.3276V47.5512C83.5306 48.9718 82.0777 50.0489 80.2455 50.0489H77.7599C77.5318 50.6148 77.0347 51.329 76.6759 51.8715L78.1904 53.0091L78.2493 53.054C79.5049 54.0101 79.4127 55.5946 78.2493 56.5625L78.2083 56.5937L75.2333 58.8436C73.9879 59.8582 71.8175 59.8465 70.567 58.8436L68.8398 57.5108C68.6553 57.6084 66.5233 58.2113 66.3491 58.2113V59.827C66.3491 61.1929 64.8577 62.3286 63.0614 62.3286H58.8307C56.9652 62.3286 55.5481 61.2203 55.5481 59.827V57.9342C54.7409 57.7098 53.9286 57.3957 53.1573 57.1049L51.6659 58.2562L51.607 58.3011C50.3411 59.2553 48.2732 59.1928 46.9945 58.3011L46.9561 58.2718L43.9836 55.9771C42.6536 54.9663 42.6998 53.4598 44.0041 52.453L45.7491 51.1358C45.7107 51.0909 45.6902 51.0461 45.6697 50.9875C45.3878 50.4646 45.0573 49.9065 44.8702 49.3601L44.8318 49.2391H42.7356C40.9265 49.2391 39.4556 48.1035 39.4556 46.7278V43.5042C39.4556 42.0973 40.8983 41.0026 42.7459 41.0026H45.2264C45.5262 40.3411 45.9208 39.7986 46.3103 39.1781L44.8189 38.0288C43.5095 37.0316 43.5249 35.4745 44.8189 34.4715L47.7709 32.208V32.1943C49.0266 31.2304 51.1688 31.1796 52.3809 32.208L54.1464 33.5407C54.2079 33.5251 54.2643 33.4939 54.3028 33.4802C54.9998 33.2324 55.7121 33.0353 56.445 32.8578C56.5039 32.8441 56.5424 32.8285 56.5988 32.8285V31.2147C56.5988 29.8488 58.0901 28.7132 59.8864 28.7132H64.1171C65.9724 28.7132 67.4048 29.802 67.4048 31.2147V33.1075C67.4638 33.1212 67.5406 33.1524 67.6021 33.1661C68.2786 33.369 69.0448 33.6266 69.6803 33.892L69.7982 33.9368L71.3101 32.7992C72.7297 31.7182 74.6721 31.8841 75.9456 32.8383ZM4.33912 50.2811C3.186 50.2928 2.12256 49.9572 1.341 49.3972C-0.370752 48.1698 -0.460439 46.1034 1.15137 44.7979C1.89962 44.193 2.95281 43.8047 4.129 43.7735L13.2925 43.5335C14.4712 43.5022 15.5552 43.8418 16.3521 44.4096C18.0639 45.6428 18.1612 47.7034 16.5443 49.0147C15.767 49.6419 14.696 50.0101 13.5641 50.0392C10.5301 50.0392 7.3885 50.2363 4.33912 50.2811ZM48.1681 83.3327C46.9689 83.3561 45.9157 82.6829 45.7466 81.7619C45.5698 80.7998 46.4205 79.91 47.6608 79.7266C46.2949 73.8219 42.5588 70.5691 38.6126 67.1328C35.5427 64.4556 32.3524 61.6749 29.8386 57.581C27.3683 53.5516 26.0102 49.3855 26.0512 45.0594C26.105 40.7333 27.5451 36.2784 30.6816 31.6714C30.7021 31.6382 30.7226 31.6148 30.7431 31.5835C34.8585 26.2798 40.6139 22.7382 47.0201 20.7517C52.3963 19.0775 58.2362 18.5077 63.9583 18.9077C69.6624 19.3097 75.2486 20.6717 80.1302 22.867C86.3391 25.6613 91.4411 29.8137 94.2496 35.053C95.7666 37.8883 96.7967 41.0533 96.9248 44.5228C97.0504 47.9747 96.2714 51.7017 94.1778 55.6434C91.3796 60.9217 87.6742 64.1999 84.2148 67.2674C81.0271 70.0968 78.0571 72.7233 76.4069 76.7548C77.3422 76.9226 78.0802 77.506 78.2263 78.2768C78.4056 79.27 77.4908 80.191 76.1865 80.3276L75.3768 80.4154C75.2281 81.2896 75.1333 82.2263 75.0898 83.2273L75.3537 83.1961C76.6606 83.0595 77.8675 83.7561 78.0469 84.7493C78.2263 85.7426 77.3114 86.6655 76.0071 86.8002L75.1871 86.8899C75.2563 87.6958 75.3153 88.4686 75.2486 89.2842L75.3844 89.2686C76.7016 89.1476 77.8906 89.8618 78.0571 90.855C78.216 91.8561 77.2807 92.7615 75.9738 92.8903L74.2083 93.0581C70.1723 101.021 56.1785 102.772 50.4821 94.9645C50.1324 94.8293 49.8316 94.6309 49.606 94.3867C49.3804 94.1424 49.2369 93.8598 49.188 93.5635C49.149 93.324 49.1743 93.0811 49.2623 92.8493C48.8523 91.9204 48.5448 90.9038 48.3475 89.7818L48.2732 89.7896C46.9689 89.9262 45.7568 89.2276 45.58 88.2344C45.4006 87.2412 46.3154 86.3201 47.6198 86.1836L48.1886 86.1211C48.2296 85.1435 48.2194 84.2127 48.1681 83.3327ZM52.1118 79.2368L71.5663 77.1314C73.2396 71.7633 76.8784 68.5338 80.8246 65.0488C84.0662 62.1803 87.5179 59.1206 90.042 54.3614C91.8946 50.8763 92.5788 47.6078 92.4738 44.595C92.3687 41.5899 91.4641 38.8171 90.1163 36.3097C87.6947 31.8001 83.2667 28.2097 77.8598 25.7745C73.5343 23.827 68.5989 22.6172 63.5585 22.2738C58.5411 21.9206 53.4161 22.426 48.6934 23.8914C43.161 25.6144 38.1846 28.6761 34.6048 33.2812C31.8271 37.3829 30.5433 41.3109 30.5023 45.0828C30.4613 48.8801 31.6707 52.5583 33.8694 56.139C36.109 59.7938 39.0969 62.3891 41.9592 64.8888C47.2456 69.5017 50.7537 72.977 52.1118 79.2368ZM70.7771 80.8955L52.6064 82.8585C52.6602 83.7405 52.6807 84.6615 52.6602 85.6391L70.5977 83.6995C70.6182 82.7161 70.672 81.7775 70.7771 80.8955ZM52.755 89.3076C52.8806 90.0452 53.0702 90.7184 53.3111 91.3448L70.7233 89.7096C70.8616 88.8998 70.8309 88.1642 70.7668 87.3622L52.755 89.3076ZM55.7839 94.7889C59.6148 97.8427 65.7956 96.83 68.8219 93.5635L55.7839 94.7889ZM118.286 40.2689C118.844 40.2251 119.408 40.2658 119.945 40.3887C120.483 40.5116 120.983 40.7143 121.417 40.985C122.265 41.5119 122.855 42.2846 122.975 43.1783C123.096 44.0701 122.724 44.9189 122.037 45.5628C121.345 46.2087 120.326 46.6556 119.157 46.7492L110.045 47.4771C108.874 47.5688 107.762 47.2898 106.913 46.7629C106.477 46.4934 106.115 46.1609 105.847 45.7845C105.58 45.4082 105.413 44.9953 105.355 44.5696C105.238 43.6779 105.601 42.831 106.293 42.1851C106.985 41.5392 108.003 41.0904 109.174 40.9987L118.286 40.2689ZM100.2 12.5367C100.858 11.7874 101.853 11.3112 102.919 11.1512L103.024 11.1356C104.061 10.999 105.176 11.1571 106.127 11.643C107.108 12.1464 107.736 12.9016 107.946 13.7172C108.154 14.529 107.956 15.4071 107.298 16.1544L102.206 21.9557C101.545 22.705 100.553 23.1811 99.4822 23.3412C98.4162 23.4992 97.2631 23.349 96.2816 22.8494C95.2976 22.344 94.6724 21.5889 94.4597 20.781L94.4418 20.6991C94.2624 19.9088 94.4725 19.0639 95.108 18.3399L100.2 12.5367ZM60.6321 3.17617C60.6629 2.27466 61.1677 1.46876 61.9569 0.897023C62.3617 0.60306 62.8389 0.372941 63.3609 0.2199C63.8829 0.0668585 64.4395 -0.00608397 64.9986 0.00526768C66.1851 0.0267322 67.2434 0.411143 67.9942 1.0102C68.745 1.61121 69.196 2.43272 69.1678 3.32837L68.9346 10.2634C68.9423 10.3453 68.9346 10.4253 68.9193 10.5034C68.827 11.321 68.3401 12.0527 67.6124 12.5796C66.8065 13.164 65.7321 13.4848 64.6194 13.4733C64.5118 13.4792 64.4067 13.4733 64.3068 13.4616C63.2662 13.3942 62.2938 13.0396 61.5726 12.4645C61.1865 12.1562 60.8843 11.7929 60.6834 11.3954C60.4824 10.9979 60.3866 10.574 60.4015 10.1483L60.6321 3.17617ZM15.2502 15.1495C14.8396 14.858 14.5085 14.5077 14.2759 14.1186C14.0433 13.7295 13.9138 13.3093 13.8947 12.8821C13.8537 12.0469 14.2304 11.2 15.0324 10.5444C15.4153 10.2317 15.8753 9.97955 16.3862 9.80242C16.8972 9.62529 17.449 9.52664 18.0101 9.51212C19.1068 9.48285 20.2164 9.76969 21.0774 10.3785L27.7783 15.1378C28.6393 15.7486 29.098 16.572 29.1364 17.4072C29.1749 18.2423 28.7956 19.0873 27.9987 19.741C27.6161 20.0538 27.1561 20.3061 26.6451 20.4832C26.1341 20.6604 25.5822 20.7589 25.0211 20.7732C24.4601 20.7896 23.9004 20.7215 23.374 20.5728C22.8477 20.4241 22.365 20.1978 21.9538 19.9068L15.2502 15.1495ZM63.3612 38.4366C66.3926 38.8854 69.0166 40.5382 70.1928 42.7061C70.2133 42.7373 70.2133 42.7627 70.2338 42.7802C70.4721 43.2056 70.6438 43.6544 70.7566 44.0798C70.9974 45.0516 71.0359 46.0097 70.7566 46.9795C70.1646 49.3074 67.9993 51.2802 65.1473 52.1993C65.1063 52.2149 65.0678 52.2149 65.0524 52.2266C63.3791 52.7613 61.2984 52.9271 59.5354 52.6247C56.4937 52.1778 53.8902 50.5192 52.7012 48.3552C52.6807 48.3259 52.6807 48.2966 52.6602 48.281C51.9606 47.0049 51.7454 45.4243 52.1426 44.0798C52.5987 42.2827 54.1208 40.5362 56.117 39.5274C57.0779 39.0122 58.3823 38.6083 59.5354 38.4366C60.8064 38.2473 62.0902 38.222 63.3612 38.4366Z" fill="white"/>
</svg>
