<svg width="512" height="512" viewBox="0 0 512 512" fill="none" xmlns="http://www.w3.org/2000/svg">
<g clip-path="url(#clip0_10_49)">
<path fill-rule="evenodd" clip-rule="evenodd" d="M316.131 168.132L328.505 179.651H328.601C333.838 184.607 334.169 192.859 328.505 197.625L321.241 204.518C321.315 204.748 321.486 204.978 321.561 205.208C322.894 207.825 324.057 210.852 324.953 213.62L325.113 214.15H334.03C341.486 214.15 347.705 219.964 347.705 226.957V243.462C347.705 250.736 341.657 256.25 334.03 256.25H323.683C322.734 259.148 320.665 262.804 319.171 265.582L325.475 271.407L325.721 271.636C330.947 276.532 330.563 284.644 325.721 289.6L325.55 289.76L313.166 301.279C307.982 306.474 298.948 306.414 293.742 301.279L286.553 294.455C285.785 294.955 276.91 298.042 276.185 298.042V306.314C276.185 313.308 269.977 319.122 262.499 319.122H244.889C237.123 319.122 231.225 313.448 231.225 306.314V296.623C227.865 295.474 224.483 293.866 221.273 292.377L215.065 298.272L214.819 298.502C209.55 303.387 200.942 303.067 195.619 298.502L195.46 298.352L183.086 286.603C177.55 281.427 177.742 273.714 183.172 268.559L190.435 261.815C190.275 261.585 190.19 261.356 190.105 261.056C188.931 258.379 187.556 255.521 186.777 252.724L186.617 252.104H177.891C170.361 252.104 164.238 246.29 164.238 239.246V222.741C164.238 215.538 170.243 209.933 177.934 209.933H188.259C189.507 206.546 191.15 203.769 192.771 200.592L186.563 194.707C181.113 189.602 181.177 181.629 186.563 176.494L198.851 164.905V164.835C204.078 159.9 212.995 159.64 218.041 164.905L225.39 171.728C225.646 171.648 225.881 171.489 226.041 171.419C228.942 170.15 231.907 169.141 234.958 168.232C235.203 168.162 235.363 168.082 235.598 168.082V159.819C235.598 152.826 241.806 147.012 249.283 147.012H266.894C274.617 147.012 280.579 152.586 280.579 159.819V169.51C280.825 169.581 281.145 169.74 281.401 169.81C284.217 170.849 287.406 172.168 290.051 173.527L290.542 173.756L296.836 167.932C302.745 162.397 310.83 163.247 316.131 168.132ZM18.062 257.439C13.2621 257.499 8.83537 255.781 5.58205 252.914C-1.54329 246.629 -1.91662 236.049 4.7927 229.365C7.90736 226.268 12.2914 224.28 17.1874 224.12L55.3314 222.892C60.2378 222.731 64.7501 224.47 68.0673 227.377C75.1928 233.691 75.5978 244.241 68.8673 250.955C65.6317 254.167 61.1736 256.052 56.4619 256.201C43.8326 256.201 30.7554 257.21 18.062 257.439ZM200.505 426.663C195.513 426.783 191.129 423.336 190.425 418.621C189.689 413.695 193.23 409.139 198.393 408.2C192.707 377.968 177.155 361.314 160.729 343.72C147.95 330.013 134.67 315.775 124.206 294.815C113.923 274.184 108.27 252.854 108.441 230.704C108.665 208.554 114.659 185.745 127.715 162.158C127.801 161.988 127.886 161.868 127.971 161.708C145.102 134.553 169.059 116.42 195.726 106.249C218.105 97.6768 242.414 94.7594 266.233 96.8074C289.977 98.8657 313.23 105.839 333.55 117.079C359.395 131.386 380.633 152.646 392.324 179.471C398.638 193.988 402.926 210.193 403.459 227.957C403.982 245.63 400.739 264.713 392.025 284.894C380.377 311.919 364.953 328.703 350.553 344.409C337.284 358.896 324.921 372.343 318.051 392.985C321.945 393.844 325.017 396.831 325.625 400.777C326.371 405.862 322.563 410.578 317.134 411.277L313.764 411.727C313.145 416.203 312.75 420.999 312.569 426.124L313.667 425.964C319.108 425.265 324.131 428.831 324.878 433.916C325.625 439.002 321.817 443.727 316.387 444.417L312.974 444.876C313.262 449.002 313.508 452.959 313.23 457.135L313.795 457.055C319.278 456.436 324.228 460.092 324.921 465.178C325.582 470.303 321.689 474.939 316.249 475.598L308.9 476.457C292.099 517.227 233.849 526.193 210.137 486.218C208.681 485.526 207.429 484.51 206.49 483.26C205.551 482.009 204.954 480.562 204.75 479.045C204.588 477.819 204.693 476.575 205.059 475.388C203.353 470.632 202.073 465.427 201.251 459.683L200.942 459.723C195.513 460.422 190.467 456.845 189.731 451.76C188.985 446.675 192.793 441.959 198.222 441.26L200.59 440.94C200.761 435.935 200.718 431.169 200.505 426.663ZM216.921 405.692L297.902 394.913C304.867 367.428 320.014 350.893 336.441 333.05C349.934 318.363 364.302 302.697 374.809 278.33C382.521 260.487 385.369 243.752 384.932 228.326C384.494 212.94 380.729 198.744 375.118 185.906C365.038 162.817 346.606 144.434 324.099 131.965C306.094 121.994 285.55 115.8 264.569 114.042C243.683 112.233 222.35 114.821 202.691 122.324C179.662 131.146 158.947 146.822 144.046 170.4C132.484 191.4 127.14 211.512 126.969 230.824C126.798 250.266 131.833 269.098 140.985 287.432C150.307 306.144 162.745 319.432 174.659 332.231C196.665 355.849 211.267 373.642 216.921 405.692ZM294.617 414.185L218.979 424.235C219.203 428.751 219.289 433.467 219.203 438.472L293.87 428.541C293.955 423.506 294.179 418.701 294.617 414.185ZM219.598 457.255C220.121 461.031 220.91 464.478 221.913 467.685L294.393 459.313C294.969 455.167 294.841 451.401 294.574 447.294L219.598 457.255ZM232.206 485.319C248.153 500.955 273.881 495.77 286.478 479.045L232.206 485.319ZM492.377 206.177C494.7 205.953 497.048 206.161 499.283 206.79C501.523 207.419 503.604 208.457 505.411 209.843C508.94 212.541 511.396 216.497 511.896 221.073C512.4 225.639 510.851 229.985 507.991 233.282C505.111 236.589 500.869 238.877 496.003 239.356L458.073 243.083C453.199 243.552 448.57 242.124 445.036 239.426C443.221 238.046 441.714 236.344 440.599 234.417C439.487 232.49 438.792 230.376 438.551 228.196C438.064 223.631 439.575 219.295 442.455 215.988C445.336 212.681 449.573 210.383 454.448 209.913L492.377 206.177ZM417.093 64.1879C419.832 60.3515 423.973 57.9133 428.411 57.0941L428.848 57.0143C433.164 56.3149 437.806 57.1243 441.764 59.6122C445.848 62.1896 448.462 66.0562 449.336 70.2321C450.202 74.3885 449.378 78.8843 446.639 82.7105L425.443 112.413C422.691 116.25 418.562 118.687 414.105 119.507C409.667 120.316 404.868 119.547 400.782 116.989C396.686 114.401 394.083 110.535 393.198 106.399L393.124 105.979C392.377 101.933 393.251 97.6072 395.897 93.9003L417.093 64.1879ZM252.387 16.262C252.515 11.6463 254.617 7.52004 257.902 4.59275C259.587 3.08766 261.573 1.90945 263.746 1.12588C265.919 0.342309 268.236 -0.031156 270.563 0.0269644C275.502 0.136863 279.907 2.10505 283.033 5.17222C286.158 8.24939 288.035 12.4555 287.918 17.0412L286.947 52.5486C286.979 52.9679 286.947 53.3775 286.884 53.7774C286.499 57.9635 284.473 61.7098 281.443 64.4075C278.089 67.3997 273.617 69.0422 268.985 68.9833C268.537 69.0135 268.099 68.9833 267.684 68.9234C263.352 68.5783 259.304 66.7627 256.302 63.8182C254.695 62.2397 253.437 60.3796 252.601 58.3444C251.764 56.3092 251.365 54.1389 251.427 51.9593L252.387 16.262ZM63.4805 77.5654C61.7713 76.073 60.3931 74.2794 59.4249 72.2872C58.4567 70.295 57.9176 68.1436 57.8381 65.9563C57.6674 61.6801 59.2355 57.344 62.5739 53.9873C64.1678 52.3863 66.0825 51.0953 68.2092 50.1884C70.3363 49.2815 72.6332 48.7764 74.9689 48.702C79.534 48.5522 84.1528 50.0208 87.7368 53.1379L115.63 77.5055C119.214 80.6328 121.123 84.8486 121.283 89.1249C121.443 93.4006 119.865 97.727 116.547 101.074C114.955 102.675 113.04 103.967 110.913 104.874C108.786 105.781 106.489 106.286 104.153 106.359C101.818 106.443 99.4878 106.094 97.2966 105.333C95.1059 104.571 93.0966 103.413 91.3849 101.923L63.4805 77.5654ZM263.747 196.795C276.366 199.093 287.289 207.556 292.185 218.655C292.27 218.815 292.27 218.945 292.355 219.035C293.347 221.213 294.062 223.511 294.532 225.689C295.534 230.664 295.694 235.57 294.532 240.535C292.067 252.454 283.054 262.555 271.182 267.26C271.012 267.34 270.851 267.34 270.787 267.4C263.822 270.138 255.161 270.987 247.822 269.438C235.161 267.15 224.323 258.658 219.374 247.579C219.289 247.429 219.289 247.279 219.203 247.199C216.291 240.665 215.395 232.572 217.049 225.689C218.947 216.487 225.283 207.545 233.593 202.38C237.593 199.742 243.022 197.674 247.822 196.795C253.113 195.826 258.457 195.697 263.747 196.795Z" fill="white"/>
</g>
<defs>
<clipPath id="clip0_10_49">
<rect width="512" height="512" fill="white"/>
</clipPath>
</defs>
</svg>
