<svg xmlns="http://www.w3.org/2000/svg" width="19.676" height="19.68" viewBox="0 0 19.676 19.68">
  <g id="fb" transform="translate(-153.188 -225.227)">
    <path id="Path_19049" data-name="Path 19049" d="M17814.729,18309.172a9.838,9.838,0,1,1-9.838,9.836A9.835,9.835,0,0,1,17814.729,18309.172Z" transform="translate(-17651.703 -18083.945)" fill="#fff" fill-rule="evenodd"/>
    <path id="Path_19050" data-name="Path 19050" d="M19910.861,19736.848v-7.6h2.145l.281-2.676h-2.426l.006-1.338c0-.7.064-1.07,1.066-1.07h1.34v-2.678h-2.143c-2.574,0-3.48,1.3-3.48,3.482v1.6h-1.6v2.676h1.6v7.49a9.846,9.846,0,0,0,1.932.191,9.98,9.98,0,0,0,1.279-.084Z" transform="translate(-19746.559 -19492.025)" fill="#435893"/>
  </g>
</svg>