<svg width="150" height="122" viewBox="0 0 150 122" fill="none" xmlns="http://www.w3.org/2000/svg">
<g clip-path="url(#clip0_10_23)">
<mask id="mask0_10_23" style="mask-type:luminance" maskUnits="userSpaceOnUse" x="0" y="0" width="150" height="122">
<path d="M149.854 0H0V121.415H149.854V0Z" fill="white"/>
</mask>
<g mask="url(#mask0_10_23)">
<path d="M89.1463 0C97.3536 0 105.195 1.63415 112.354 4.60976C119.78 7.68293 126.463 12.1951 132.061 17.7927C137.658 23.3781 142.158 30.061 145.244 37.5122C148.207 44.6708 149.854 52.5122 149.854 60.7196C149.854 68.9269 148.219 76.7684 145.244 83.9269C142.171 91.3537 137.658 98.0489 132.061 103.634C126.476 109.232 119.793 113.732 112.341 116.817C105.183 119.781 97.3414 121.427 89.1341 121.427C80.9268 121.427 73.0853 119.793 65.9268 116.829C58.5 113.756 51.817 109.244 46.2195 103.646L46.2073 103.634C40.6097 98.0367 36.0975 91.3537 33.0244 83.9269C32.0731 81.622 31.2561 79.2562 30.5853 76.8293C31.8536 76.9513 33.1463 77.0123 34.4512 77.0123C36.9268 77.0123 39.3414 76.7928 41.6951 76.3659C42.0853 77.5367 42.5122 78.6952 42.9756 79.8293C45.5 85.9269 49.2073 91.4269 53.8292 96.0367C58.439 100.646 63.939 104.354 70.0365 106.89C75.9024 109.317 82.3658 110.671 89.1341 110.671C95.9146 110.671 102.366 109.329 108.232 106.89C114.329 104.366 119.829 100.659 124.439 96.0367C129.049 91.4269 132.756 85.9269 135.293 79.8293C137.719 73.9635 139.073 67.5001 139.073 60.7318C139.073 53.9513 137.732 47.5 135.293 41.6342C132.768 35.5366 129.061 30.0366 124.439 25.4269C119.829 20.8171 114.329 17.1098 108.232 14.5732C102.366 12.1464 95.9024 10.7927 89.1341 10.7927C82.3536 10.7927 75.9024 12.1342 70.0365 14.5732C69.5121 14.7927 68.9878 15.0244 68.4756 15.2561C66.4756 12.1098 64.0609 9.25611 61.2926 6.78049C62.8048 6.00001 64.3536 5.28049 65.9268 4.62196C73.0975 1.63415 80.939 0 89.1463 0ZM82.1707 31.8537C82.1707 30.3659 82.7804 29.0122 83.756 28.0366C84.7317 27.061 86.0731 26.4512 87.5609 26.4512C89.0487 26.4512 90.4024 27.061 91.378 28.0366C92.3536 29.0122 92.9634 30.3659 92.9634 31.8537V60.1708L114.122 72.7196C115.39 73.4757 116.244 74.6708 116.597 76.0123C116.939 77.3415 116.78 78.8049 116.024 80.0854C115.268 81.3537 114.073 82.2074 112.732 82.561C111.402 82.9025 109.939 82.744 108.671 81.9879L84.939 67.9391C84.1219 67.4879 83.4512 66.8293 82.9634 66.0488C82.4634 65.2318 82.1707 64.2684 82.1707 63.244V31.8537Z" fill="white"/>
<path fill-rule="evenodd" clip-rule="evenodd" d="M32.9146 3.12195C51.0976 3.12195 65.8293 17.8537 65.8293 36.0366C65.8293 54.2195 51.0976 68.9512 32.9146 68.9512C14.7317 68.9512 0 54.2073 0 36.0366C0 17.8537 14.7317 3.12195 32.9146 3.12195ZM18.3537 36.9146C18.7927 34.3537 21.7195 32.9268 24.0244 34.3171C24.2317 34.439 24.439 34.5854 24.6219 34.7561L24.6463 34.7683C25.6829 35.7561 26.8415 36.7927 27.9878 37.8171L28.9756 38.7073L40.6707 26.439C41.3658 25.7073 41.878 25.2317 42.9268 25C46.5122 24.2073 49.0366 28.5976 46.5 31.2805L31.9146 46.5732C30.5366 48.0366 28.0854 48.1707 26.6098 46.7683C25.7683 45.9878 24.8415 45.1829 23.9146 44.378C22.3049 42.9756 20.6585 41.5488 19.3171 40.1341C18.5122 39.3293 18.1585 38.0122 18.3537 36.9146Z" fill="white"/>
</g>
</g>
<defs>
<clipPath id="clip0_10_23">
<rect width="150" height="121.951" fill="white"/>
</clipPath>
</defs>
</svg>
