<svg width="123" height="68" viewBox="0 0 123 68" fill="none" xmlns="http://www.w3.org/2000/svg">
<g clip-path="url(#clip0_1_18)">
<path fill-rule="evenodd" clip-rule="evenodd" d="M3.24001 16.78L5.54001 45.25C5.85001 48.19 6.54001 50.08 7.38001 51.12C7.72868 51.5132 8.18027 51.8011 8.68384 51.9512C9.18742 52.1014 9.72294 52.1079 10.23 51.97H10.5H21.78C22.3973 52.0338 23.0209 51.9471 23.5974 51.7172C24.1739 51.4873 24.686 51.1211 25.09 50.65L25.14 50.59C25.9705 49.207 26.3805 47.6121 26.32 46V14.57C26.2708 14.4321 26.2471 14.2864 26.25 14.14C26.2451 14.1002 26.2451 14.0598 26.25 14.02C26.2051 13.6006 26.0701 13.1959 25.8544 12.8335C25.6387 12.471 25.3472 12.1594 25 11.92C23.8056 11.3006 22.4609 11.0303 21.12 11.14H7.00001C6.41669 11.1081 5.833 11.1954 5.28454 11.3966C4.73608 11.5977 4.23437 11.9085 3.81001 12.31C3.14001 13.11 2.90001 14.49 3.23001 16.64V16.78H3.24001ZM93.1 15.57C93.0985 15.0919 93.1286 14.6142 93.19 14.14L88 10.65C87.25 10.15 86.43 9.57 85.6 8.99C82.6 6.91 79.6 4.77 76.27 3.9C74.328 3.39955 72.3349 3.1244 70.33 3.08C68.4913 3.03269 66.6546 3.23453 64.87 3.68C63.8296 3.94375 62.823 4.32626 61.87 4.82C61.031 5.26237 60.2543 5.81382 59.56 6.46L56 10.63C55.8926 10.8331 55.7425 11.0105 55.56 11.15L45.89 22.66C46.0148 23.336 46.3032 23.9712 46.73 24.51C47.1984 25.0834 47.8136 25.5188 48.51 25.77C49.3166 26.0592 50.1774 26.1651 51.03 26.08C52.6523 25.9223 54.191 25.2852 55.45 24.25L58.14 22C58.82 21.44 59.39 20.92 59.95 20.41C61.1065 19.2861 62.3728 18.2811 63.73 17.41C66.73 15.61 69.73 15.55 72.73 20.53L87.93 48H93.1V15.57ZM94.33 11.18C94.564 10.8525 94.8321 10.5508 95.13 10.28C96.7328 9.00204 98.7544 8.3674 100.8 8.5H114C116.77 8.5 119 8.99 120.58 10.19C122.31 11.53 123.13 13.56 122.78 16.48L119.86 46.69C119.812 48.9608 119.041 51.1571 117.66 52.96C116.952 53.7534 116.067 54.3681 115.076 54.7539C114.086 55.1397 113.018 55.2857 111.96 55.18H100.09C98.5552 55.3003 97.0321 54.8319 95.83 53.87C94.9126 53.1055 94.178 52.1454 93.68 51.06H89.57C90.0892 52.5176 90.1173 54.105 89.65 55.58C89.1881 56.9639 88.3291 58.1811 87.18 59.08C86.0554 59.9682 84.7239 60.5566 83.31 60.79C81.9043 61.0266 80.4604 60.8674 79.14 60.33C77.8198 61.802 76.1217 62.8845 74.23 63.46C72.5046 63.9302 70.6751 63.8463 69 63.22C67.5657 64.9398 65.6165 66.1528 63.44 66.68C61.1837 67.0994 58.8518 66.7472 56.82 65.68C56.1218 66.2323 55.3513 66.6865 54.53 67.03C53.4059 67.495 52.196 67.7166 50.98 67.68C48.5753 67.7265 46.2397 66.8743 44.43 65.29C42.9323 63.8068 41.689 62.0872 40.75 60.2L34.19 48.8H29.11C28.8803 50.1065 28.3647 51.3461 27.6 52.43L27.53 52.53C26.8349 53.3877 25.9397 54.0615 24.9231 54.4922C23.9065 54.9229 22.7997 55.0973 21.7 55H10.61C9.59902 55.2237 8.54605 55.1657 7.56572 54.8325C6.58538 54.4992 5.71524 53.9035 5.05001 53.11C3.75001 51.6 2.85001 49.11 2.47001 45.54V45.41L0.170006 17.05C-0.289994 13.99 0.170006 11.82 1.45001 10.34C2.13936 9.59642 2.97939 9.00843 3.91403 8.61526C4.84866 8.22209 5.85641 8.0328 6.87001 8.06H21.1C23.0407 7.93269 24.9763 8.37404 26.67 9.33C27.8493 10.0806 28.7136 11.2365 29.1 12.58H38.65C40.8344 11.0146 43.2367 9.77811 45.78 8.91C48.4424 8.10986 51.2458 7.89159 54 8.27L57.27 4.38L57.39 4.25C58.2879 3.39787 59.2971 2.67126 60.39 2.09C61.558 1.4896 62.7888 1.02008 64.06 0.69C66.1175 0.186036 68.2322 -0.0459412 70.35 -1.22935e-07C72.5946 0.0505156 74.826 0.359214 77 0.92C80.81 1.92 84.1 4.23 87.3 6.47C88.07 7.01 88.83 7.54 89.65 8.09L94.3 11.18H94.33ZM15.77 38.76C16.297 38.758 16.8126 38.9126 17.2516 39.2041C17.6905 39.4956 18.033 39.911 18.2356 40.3974C18.4382 40.8839 18.4917 41.4196 18.3894 41.9365C18.287 42.4534 18.0335 42.9283 17.6609 43.3009C17.2883 43.6735 16.8134 43.927 16.2965 44.0294C15.7796 44.1317 15.2439 44.0782 14.7574 43.8756C14.271 43.673 13.8557 43.3305 13.5641 42.8916C13.2726 42.4526 13.118 41.9369 13.12 41.41C13.1226 40.708 13.4027 40.0355 13.8991 39.5391C14.3955 39.0427 15.068 38.7626 15.77 38.76ZM86.36 50.92C86.149 50.828 85.9608 50.6908 85.8087 50.518C85.6566 50.3451 85.5444 50.141 85.48 49.92L70.06 22.09C68.35 19.23 66.81 19.15 65.31 20.04C64.1249 20.8236 63.0166 21.7176 62 22.71C61.32 23.33 60.64 23.95 60.08 24.41L57.35 26.66C55.6106 28.0751 53.492 28.9449 51.26 29.16C49.9523 29.2769 48.6348 29.1062 47.4 28.66C46.1842 28.2101 45.1105 27.4437 44.29 26.44C43.3571 25.262 42.8028 23.8291 42.7 22.33C42.6842 22.1064 42.7161 21.8819 42.7937 21.6716C42.8713 21.4612 42.9927 21.2698 43.15 21.11L51.48 11.2C49.8509 11.1606 48.2263 11.3869 46.67 11.87C44.3012 12.6982 42.0672 13.8708 40.04 15.35C39.7575 15.5772 39.4023 15.6945 39.04 15.68H29.41V45.68H35.08C35.365 45.6796 35.6446 45.7578 35.8881 45.906C36.1316 46.0542 36.3294 46.2666 36.46 46.52L43.46 58.67C44.2387 60.2577 45.2499 61.7205 46.46 63.01C47.7366 64.0908 49.3681 64.6608 51.04 64.61C51.8276 64.6325 52.6112 64.4894 53.34 64.19C53.8075 63.9981 54.2479 63.746 54.65 63.44L50.14 55C49.9782 54.6439 49.958 54.2395 50.0834 53.869C50.2089 53.4985 50.4706 53.1896 50.8155 53.0051C51.1604 52.8206 51.5626 52.7742 51.9405 52.8754C52.3183 52.9766 52.6435 53.2178 52.85 53.55L57.79 62.78C59.1937 63.6775 60.8825 64.0172 62.524 63.7322C64.1655 63.4472 65.641 62.5581 66.66 61.24L59.55 50.06C59.3274 49.7178 59.2497 49.3013 59.3341 48.9019C59.4185 48.5025 59.658 48.1529 60 47.93C60.3461 47.7145 60.7627 47.643 61.1608 47.7309C61.5589 47.8187 61.9068 48.0589 62.13 48.4L69.62 60.17C70.8087 60.6966 72.1397 60.8093 73.4 60.49C74.7293 60.0707 75.9188 59.2961 76.84 58.25L70.07 45.47C69.8751 45.108 69.8319 44.6834 69.9501 44.2895C70.0682 43.8957 70.338 43.5649 70.7 43.37C71.062 43.1751 71.4867 43.1319 71.8805 43.2501C72.2743 43.3682 72.6051 43.638 72.8 44L79.8 57.22C80.71 57.7346 81.7723 57.9117 82.8 57.72C83.696 57.5769 84.5399 57.2049 85.25 56.64C85.9198 56.1308 86.4243 55.435 86.7 54.64C87.0043 53.6468 86.9221 52.5752 86.47 51.64C86.3722 51.4168 86.3309 51.1729 86.35 50.93L86.36 50.92ZM106.68 38.76C107.206 38.764 107.718 38.9236 108.153 39.2187C108.588 39.5138 108.926 39.9312 109.124 40.4182C109.322 40.9051 109.371 41.4398 109.266 41.9548C109.16 42.4697 108.904 42.9418 108.53 43.3114C108.156 43.681 107.682 43.9316 107.165 44.0315C106.649 44.1313 106.115 44.0761 105.631 43.8727C105.146 43.6692 104.732 43.3267 104.442 42.8884C104.152 42.4501 103.998 41.9357 104 41.41C104.003 40.708 104.283 40.0355 104.779 39.5391C105.275 39.0427 105.948 38.7626 106.65 38.76H106.68Z" fill="white"/>
</g>
<defs>
<clipPath id="clip0_1_18">
<rect width="122.88" height="67.72" fill="white"/>
</clipPath>
</defs>
</svg>
