<svg width="123" height="80" viewBox="0 0 123 80" fill="none" xmlns="http://www.w3.org/2000/svg">
<g clip-path="url(#clip0_1_23)">
<path fill-rule="evenodd" clip-rule="evenodd" d="M23.35 72.21C27.39 68.1 32.17 63.93 35.72 58.53H87.15C90.71 63.92 95.49 68.1 99.52 72.21C130.47 103.73 128.39 29.89 106.52 7.71H104.84C102.09 3.11 96.72 0 90.55 0C84.38 0 79.02 3.11 76.27 7.71H46.61C43.86 3.11 38.49 0 32.32 0C26.15 0 20.79 3.11 18.03 7.71H16.35C-5.52001 29.89 -7.60001 103.72 23.35 72.21ZM29.85 12.84H40.96V21.69H49.81V32.8H40.96V41.65H29.85V32.8H21V21.69H29.85V12.84ZM83.16 36.9C85.85 36.9 88.03 39.08 88.03 41.77C88.03 44.46 85.85 46.65 83.16 46.65C80.47 46.65 78.29 44.47 78.29 41.77C78.29 39.08 80.47 36.9 83.16 36.9ZM85.82 15.21C89.72 15.21 92.88 18.37 92.88 22.26C92.88 26.16 89.72 29.31 85.82 29.31C81.92 29.31 78.77 26.15 78.77 22.26C78.77 18.37 81.92 15.21 85.82 15.21ZM104.04 26.11C106.73 26.11 108.91 28.29 108.91 30.98C108.91 33.67 106.73 35.85 104.04 35.85C101.35 35.85 99.16 33.67 99.16 30.98C99.16 28.29 101.35 26.11 104.04 26.11Z" fill="white"/>
</g>
<defs>
<clipPath id="clip0_1_23">
<rect width="122.88" height="79.92" fill="white"/>
</clipPath>
</defs>
</svg>
