<svg width="123" height="96" viewBox="0 0 123 96" fill="none" xmlns="http://www.w3.org/2000/svg">
<g clip-path="url(#clip0_1815_248)">
<path d="M104.42 21.2299H104.69C105.47 21.2299 106.16 21.5899 106.62 22.1399C118.03 33.8799 124.02 59.3699 122.69 76.4299C122.32 81.1599 121.39 85.3199 119.86 88.4599C118.12 92.0399 115.61 94.3899 112.25 95.0099C107.97 95.7999 102.62 93.5399 96.19 86.9899C95.36 86.1499 94.5 85.2999 93.62 84.4299C90.62 81.4799 87.46 78.3699 84.79 74.6199H38.08C35.4 78.3999 32.24 81.5099 29.23 84.4599C28.36 85.3199 27.5 86.1599 26.68 86.9899C20.25 93.5399 14.9 95.7999 10.62 95.0099C7.25998 94.3899 4.73998 92.0399 3.00998 88.4599C1.47998 85.3099 0.549983 81.1599 0.179983 76.4299C-1.15002 59.2899 4.89998 33.6499 16.4 21.9799C16.89 21.4799 17.53 21.2299 18.18 21.2299V21.2199H18.46C19.87 19.2799 21.62 17.7199 23.59 16.5399C26.58 14.7499 30.06 13.8599 33.52 13.8599C36.99 13.8599 40.47 14.7499 43.45 16.5399C45.41 17.7099 47.16 19.2699 48.55 21.2099H56.46C55.85 6.28988 60 2.53988 66.13 2.11988C68.35 1.96988 70.7 2.35988 73.16 2.76988C77.81 3.53988 82.95 4.38988 86.6 0.739883C87.58 -0.240117 89.16 -0.240117 90.14 0.739883C91.12 1.71988 91.12 3.29988 90.14 4.27988C84.67 9.73988 78.2 8.66988 72.35 7.69988C70.19 7.33988 68.13 6.99988 66.46 7.10988C63.15 7.32988 60.95 10.0899 61.47 21.2299H74.34C75.74 19.2899 77.5 17.7199 79.46 16.5499C82.45 14.7599 85.93 13.8699 89.38 13.8699C92.83 13.8699 96.31 14.7699 99.3 16.5499C101.26 17.7199 103.02 19.2799 104.42 21.2299ZM90.87 51.9499C92.71 53.7899 92.71 56.7599 90.87 58.5999C89.03 60.4399 86.06 60.4399 84.22 58.5999C82.38 56.7599 82.38 53.7899 84.22 51.9499C86.05 50.1199 89.03 50.1199 90.87 51.9499ZM101.33 42.5699C103.17 44.4099 103.17 47.3799 101.33 49.2199C99.49 51.0599 96.52 51.0599 94.68 49.2199C92.84 47.3799 92.84 44.4099 94.68 42.5699C96.52 40.7299 99.49 40.7299 101.33 42.5699ZM80.4 42.5699C82.24 44.4099 82.24 47.3799 80.4 49.2199C78.56 51.0599 75.59 51.0599 73.75 49.2199C71.91 47.3799 71.91 44.4099 73.75 42.5699C75.59 40.7299 78.57 40.7299 80.4 42.5699ZM90.87 34.1899C92.71 36.0299 92.71 38.9999 90.87 40.8399C89.03 42.6799 86.06 42.6799 84.22 40.8399C82.38 38.9999 82.38 36.0299 84.22 34.1899C86.05 32.3599 89.03 32.3599 90.87 34.1899ZM26.85 35.0299H35.02V43.3599H43.35V51.5299H35.02V59.8599H26.85V51.5299H18.52V43.3599H26.85V35.0299ZM103.62 26.2399H103.08V26.2299C102.23 26.2299 101.4 25.7999 100.94 25.0099C99.87 23.2299 98.41 21.8299 96.73 20.8299C94.54 19.5199 91.97 18.8699 89.37 18.8699C86.78 18.8699 84.2 19.5199 82.01 20.8299C80.38 21.7999 78.96 23.1499 77.9 24.8499C77.49 25.6699 76.64 26.2299 75.66 26.2299H47.22V26.2199C46.37 26.2199 45.54 25.7899 45.08 24.9999C44.02 23.2199 42.56 21.8299 40.89 20.8299C38.69 19.5099 36.11 18.8499 33.52 18.8499C30.93 18.8499 28.35 19.5099 26.15 20.8299C24.52 21.8099 23.09 23.1499 22.03 24.8499C21.62 25.6699 20.77 26.2299 19.79 26.2299H19.25C9.18998 37.2499 3.94998 60.3799 5.16998 76.0599C5.48998 80.1799 6.25998 83.7299 7.50998 86.2899C8.54998 88.4199 9.87998 89.7999 11.52 90.0999C14.19 90.5899 17.99 88.7099 23.12 83.4899C23.97 82.6299 24.84 81.7699 25.73 80.8999C28.81 77.8799 32.06 74.6799 34.56 70.9399C34.98 70.1499 35.81 69.6199 36.77 69.6199H86.11V69.6299C86.92 69.6299 87.71 70.0199 88.19 70.7499C90.73 74.5899 94.02 77.8299 97.13 80.8899C98.03 81.7699 98.91 82.6399 99.76 83.5099C104.88 88.7299 108.69 90.6099 111.36 90.1199C113 89.8199 114.34 88.4399 115.37 86.3099C116.62 83.7399 117.39 80.1999 117.71 76.0799C118.93 60.3799 113.69 37.2499 103.62 26.2399Z" fill="white"/>
</g>
<defs>
<clipPath id="clip0_1815_248">
<rect width="122.88" height="95.17" fill="white"/>
</clipPath>
</defs>
</svg>
