<svg width="123" height="122" viewBox="0 0 123 122" fill="none" xmlns="http://www.w3.org/2000/svg">
<g clip-path="url(#clip0_1_20)">
<path fill-rule="evenodd" clip-rule="evenodd" d="M2.76002 65.72H11.21C10.7059 65.5864 10.2597 65.2909 9.93994 64.8789C9.62016 64.467 9.44451 63.9615 9.44002 63.44V2.35C9.44265 1.72755 9.69108 1.13135 10.1312 0.691207C10.5714 0.251066 11.1676 0.00263195 11.79 0H110.47C111.092 0.00263195 111.689 0.251066 112.129 0.691207C112.569 1.13135 112.817 1.72755 112.82 2.35V63.43C112.819 63.951 112.647 64.4572 112.328 64.8696C112.01 65.2821 111.564 65.5775 111.06 65.71H120.12C120.85 65.71 121.551 65.9994 122.068 66.5148C122.585 67.0303 122.877 67.7297 122.88 68.46C122.877 69.1912 122.586 69.8917 122.069 70.4087C121.552 70.9257 120.851 71.2174 120.12 71.22H96.83C96.7525 68.2023 95.812 65.2699 94.12 62.77H109.12V3.69H13.46V62.77H21.75C21.4062 63.2672 21.0987 63.7885 20.83 64.33C20.4771 65.0531 20.199 65.8104 20 66.59L19.91 66.99C19.7618 67.6478 19.6682 68.3168 19.63 68.99C19.5893 69.7406 19.6127 70.4934 19.7 71.24H2.76002C2.39626 71.2387 2.03631 71.1657 1.70074 71.0253C1.36517 70.8849 1.06055 70.6798 0.804256 70.4216C0.547966 70.1635 0.345032 69.8574 0.20704 69.5208C0.0690487 69.1842 -0.00129747 68.8238 1.81172e-05 68.46C0.00132895 68.0989 0.0737585 67.7415 0.213171 67.4084C0.352584 67.0752 0.55625 66.7728 0.81254 66.5184C1.06883 66.2639 1.37273 66.0625 1.70687 65.9255C2.04102 65.7885 2.39888 65.7187 2.76002 65.72ZM59.53 62.77H62.53C61.6564 64.0365 60.982 65.4293 60.53 66.9L60.41 65.9C60.299 65.1155 60.1183 64.3424 59.87 63.59C59.77 63.29 59.66 63 59.54 62.72L59.53 62.77Z" fill="white"/>
<path fill-rule="evenodd" clip-rule="evenodd" d="M50.94 39.71C51.07 38.59 47.75 34.32 47.15 32.27C45.85 30.21 45.39 26.92 46.8 24.74C47.37 23.88 47.12 22.34 47.12 21.14C47.12 9.26 67.93 9.26 67.93 21.14C67.93 22.64 67.59 23.78 68.4 24.97C69.76 26.97 69.06 30.44 67.91 32.28C67.17 34.43 63.69 38.49 63.91 39.71C64.13 45.81 50.91 45.61 50.91 39.71H50.94ZM58.52 50.25H59.25C59.4076 50.25 59.5636 50.219 59.7092 50.1587C59.8548 50.0983 59.9871 50.01 60.0985 49.8985C60.21 49.7871 60.2983 49.6548 60.3587 49.5092C60.419 49.3636 60.45 49.2076 60.45 49.05V47.11C60.45 46.9524 60.419 46.7964 60.3587 46.6508C60.2983 46.5052 60.21 46.3729 60.0985 46.2615C59.9871 46.15 59.8548 46.0616 59.7092 46.0013C59.5636 45.941 59.4076 45.91 59.25 45.91H54.92C54.7624 45.91 54.6064 45.941 54.4608 46.0013C54.3152 46.0616 54.1829 46.15 54.0715 46.2615C53.96 46.3729 53.8716 46.5052 53.8113 46.6508C53.751 46.7964 53.72 46.9524 53.72 47.11V49.05C53.72 49.2076 53.751 49.3636 53.8113 49.5092C53.8716 49.6548 53.96 49.7871 54.0715 49.8985C54.1829 50.01 54.3152 50.0983 54.4608 50.1587C54.6064 50.219 54.7624 50.25 54.92 50.25H55.66L54.24 54.84H59.89L58.52 50.25ZM32.34 54.84C33.11 44.94 37.79 49.84 47.34 43.84L52.57 54.84H32.34ZM82.23 54.84C81.47 44.94 76.78 49.84 67.23 43.84L62 54.84H82.23Z" fill="white"/>
<path fill-rule="evenodd" clip-rule="evenodd" d="M50.5 104.26C54.93 95.5 68.9 102.93 70.05 93.11C70.2 91.83 67.2 88.4 66.51 86.11C65.04 83.76 64.51 80.03 66.12 77.55C66.76 76.55 66.49 73.38 66.49 72.03C66.49 58.53 90.15 58.52 90.15 72.03C90.15 73.74 89.76 76.46 90.68 77.8C92.24 80.05 91.44 84.03 90.13 86.11C89.29 88.55 86.13 91.77 86.37 93.11C88.37 103.18 101.56 94.4 104.58 104.26H50.5Z" fill="white"/>
<path fill-rule="evenodd" clip-rule="evenodd" d="M48.12 108.13H106.32C108.742 108.138 111.062 109.103 112.774 110.816C114.487 112.528 115.452 114.848 115.46 117.27V121.27H39V117.27C39.0105 114.847 39.9783 112.527 41.6922 110.815C43.4062 109.103 45.7274 108.138 48.15 108.13H48.12Z" fill="white"/>
<path fill-rule="evenodd" clip-rule="evenodd" d="M42.14 61L30.87 62.46C29.9135 62.5865 28.9901 62.8954 28.15 63.37C27.3098 63.8565 26.5781 64.5099 26 65.29C25.4083 66.0554 24.9702 66.9281 24.71 67.86C24.4717 68.7972 24.414 69.7712 24.54 70.73L26.85 83.42C26.9684 84.377 27.2742 85.3013 27.75 86.14C28.2365 86.9802 28.8899 87.7119 29.67 88.29C30.4316 88.8908 31.3076 89.3302 32.2447 89.5812C33.1817 89.8322 34.16 89.8896 35.12 89.75L38.77 89.26C39.5068 89.9833 40.2956 90.6518 41.13 91.26C42.1068 91.9611 43.1442 92.5736 44.23 93.09C45.3445 93.623 46.5019 94.0613 47.69 94.4C48.9281 94.752 50.192 95.0062 51.47 95.16C51.6614 95.1916 51.8578 95.1668 52.0354 95.0886C52.2129 95.0105 52.364 94.8824 52.47 94.72C52.553 94.6085 52.6118 94.481 52.6427 94.3456C52.6737 94.2101 52.6761 94.0697 52.6497 93.9333C52.6234 93.7968 52.5689 93.6674 52.4897 93.5532C52.4106 93.439 52.3085 93.3425 52.19 93.27C51.5723 92.8606 50.9962 92.3917 50.47 91.87C50.0205 91.4231 49.6275 90.9227 49.3 90.38C48.9533 89.82 48.62 89.25 48.3 88.67L48 88L51.49 87.54C52.4472 87.4165 53.3711 87.1073 54.21 86.63C55.8865 85.6282 57.1143 84.0209 57.64 82.14C57.88 81.22 57.09 78.58 56.97 77.59L55.5 66.59C55.3754 65.6344 55.0699 64.7113 54.6 63.87C53.8711 62.6053 52.7812 61.587 51.4699 60.9457C50.1587 60.3043 48.6858 60.069 47.24 60.27L42.14 60.95V61ZM47.84 69.32C48.0781 69.2697 48.2897 69.1343 48.4351 68.9392C48.5806 68.744 48.6499 68.5026 48.63 68.26C48.6023 68.0211 48.4821 67.8025 48.2952 67.6511C48.1083 67.4997 47.8695 67.4275 47.63 67.45L32.63 69.64C32.3937 69.6924 32.1845 69.8287 32.0411 70.0236C31.8976 70.2185 31.8297 70.4588 31.85 70.7C31.8777 70.9389 31.9979 71.1575 32.1848 71.3089C32.3717 71.4603 32.6105 71.5325 32.85 71.51L47.85 69.32H47.84ZM50.37 81C50.6081 80.9497 50.8197 80.8143 50.9651 80.6192C51.1106 80.424 51.1799 80.1826 51.16 79.94C51.1323 79.7011 51.0121 79.4825 50.8252 79.3311C50.6383 79.1797 50.3995 79.1075 50.16 79.13L35.16 81.32C34.9237 81.3724 34.7145 81.5087 34.5711 81.7036C34.4276 81.8985 34.3597 82.1388 34.38 82.38C34.4077 82.6189 34.5279 82.8375 34.7148 82.9889C34.9017 83.1403 35.1405 83.2125 35.38 83.19L50.38 81H50.37ZM44.64 75.9C44.7608 75.8817 44.8769 75.8397 44.9815 75.7765C45.0861 75.7133 45.1773 75.6301 45.2497 75.5317C45.3222 75.4332 45.3745 75.3215 45.4037 75.2028C45.4329 75.0841 45.4385 74.9608 45.42 74.84C45.3923 74.6011 45.2721 74.3825 45.0852 74.2311C44.8983 74.0797 44.6595 74.0075 44.42 74.03L34 75.66C33.8791 75.6783 33.7631 75.7203 33.6585 75.7835C33.5538 75.8467 33.4627 75.9299 33.3903 76.0283C33.3178 76.1268 33.2655 76.2385 33.2363 76.3572C33.2071 76.4759 33.2015 76.5992 33.22 76.72C33.2452 76.96 33.3647 77.1802 33.5522 77.3321C33.7398 77.484 33.98 77.5552 34.22 77.53L44.66 75.89L44.64 75.9Z" fill="white"/>
<path fill-rule="evenodd" clip-rule="evenodd" d="M86 8.27L96.9 9.71C97.8283 9.8311 98.7247 10.1299 99.54 10.59C100.356 11.0615 101.067 11.6944 101.63 12.45C102.205 13.1908 102.629 14.0366 102.88 14.94C103.11 15.8515 103.164 16.7983 103.04 17.73L100.81 30C100.687 30.928 100.389 31.8241 99.93 32.64C99.4579 33.4526 98.825 34.1604 98.07 34.72C97.3279 35.3053 96.4787 35.7401 95.57 36C94.6609 36.2437 93.712 36.3015 92.78 36.17L89.24 35.7C88.5402 36.3989 87.7916 37.0472 87 37.64C86.0577 38.3228 85.0533 38.9154 84 39.41C82.9224 39.9327 81.8016 40.361 80.65 40.69C79.4473 41.0296 78.2204 41.277 76.98 41.43C76.7505 41.4698 76.5142 41.4282 76.3121 41.3125C76.1099 41.1967 75.9546 41.014 75.8728 40.7958C75.791 40.5777 75.7879 40.3379 75.8641 40.1177C75.9402 39.8976 76.0909 39.7109 76.29 39.59C76.8865 39.1916 77.4455 38.7398 77.96 38.24C78.3592 37.7966 78.708 37.3103 79 36.79C79.33 36.25 79.65 35.69 79.93 35.13L80.22 34.51L76.85 34.07C75.9172 33.9486 75.017 33.6462 74.2 33.18C73.3852 32.7109 72.6769 32.0775 72.12 31.32C71.5413 30.578 71.1164 29.7281 70.87 28.82C70.64 27.93 71.4 25.37 71.52 24.41L73 13.73C73.1225 12.7988 73.4211 11.8995 73.88 11.08C74.3456 10.2688 74.9717 9.56106 75.72 9C76.4583 8.41884 77.3071 7.99411 78.2149 7.7517C79.1227 7.50928 80.0703 7.45427 81 7.59L86 8.25V8.27ZM78 27.68C77.7709 27.6406 77.5656 27.5151 77.4261 27.3292C77.2867 27.1432 77.2236 26.9109 77.25 26.68C77.2623 26.5619 77.2982 26.4474 77.3555 26.3434C77.4128 26.2393 77.4903 26.1478 77.5835 26.0742C77.6766 26.0006 77.7836 25.9464 77.8981 25.9147C78.0126 25.8831 78.1322 25.8747 78.25 25.89L92.75 28C92.9798 28.0394 93.1861 28.1645 93.3272 28.3501C93.4683 28.5358 93.5336 28.768 93.51 29C93.4963 29.1176 93.4596 29.2313 93.402 29.3347C93.3443 29.4381 93.2668 29.5291 93.1739 29.6025C93.081 29.6759 92.9745 29.7302 92.8606 29.7624C92.7467 29.7946 92.6276 29.8039 92.51 29.79L78 27.68ZM80.46 16.34C80.2302 16.3007 80.0239 16.1755 79.8828 15.9899C79.7417 15.8042 79.6764 15.572 79.7 15.34C79.7123 15.2219 79.7482 15.1074 79.8055 15.0034C79.8627 14.8993 79.9403 14.8078 80.0335 14.7342C80.1266 14.6606 80.2336 14.6064 80.3481 14.5747C80.4626 14.5431 80.5822 14.5347 80.7 14.55L95.2 16.65C95.4298 16.6894 95.6361 16.8145 95.7772 17.0001C95.9183 17.1858 95.9836 17.418 95.96 17.65C95.9463 17.7676 95.9096 17.8813 95.852 17.9847C95.7943 18.0881 95.7168 18.1791 95.6239 18.2525C95.531 18.3259 95.4246 18.3802 95.3106 18.4124C95.1967 18.4446 95.0775 18.4539 94.96 18.44L80.44 16.34H80.46ZM79.57 22.1C79.33 22.0682 79.1124 21.9423 78.9652 21.7501C78.818 21.5579 78.7532 21.315 78.785 21.075C78.8168 20.835 78.9427 20.6174 79.1349 20.4702C79.3271 20.323 79.57 20.2582 79.81 20.29L87.17 21.4C87.4009 21.4371 87.6087 21.5617 87.7502 21.7479C87.8917 21.9341 87.9561 22.1676 87.93 22.4C87.9176 22.5181 87.8818 22.6326 87.8245 22.7366C87.7672 22.8407 87.6897 22.9322 87.5965 23.0058C87.5033 23.0794 87.3964 23.1337 87.2819 23.1653C87.1674 23.1969 87.0478 23.2053 86.93 23.19L79.55 22.1H79.57Z" fill="white"/>
</g>
<defs>
<clipPath id="clip0_1_20">
<rect width="122.88" height="121.28" fill="white"/>
</clipPath>
</defs>
</svg>
