<svg width="85" height="123" viewBox="0 0 85 123" fill="none" xmlns="http://www.w3.org/2000/svg">
<g clip-path="url(#clip0_211_1269)">
<path fill-rule="evenodd" clip-rule="evenodd" d="M75.59 28.93C79.24 28.56 81.69 30.11 82.13 32.5C82.78 36.02 79.36 38.6 76.9 40.5C76.47 40.83 76.03 41.15 75.59 41.45V28.93ZM17.59 12.42C23.43 12.14 24.96 18.26 24.45 23.13C24.15 26 23.39 27.05 22.13 29.57C20.65 31.96 19.13 34.29 17.73 36.74V90.21C17.7303 91.8062 18.0463 93.3865 18.66 94.86C19.2738 96.328 20.167 97.6628 21.29 98.79C22.3539 99.8725 23.6126 100.744 25 101.36L25.15 101.43C26.6235 102.044 28.2038 102.36 29.8 102.36H61.22C55.09 108.11 48.48 112 41 112.22L33.23 121.66C31.55 123.2 29.6 123.37 27.23 121.66L4.7 106.58C2.36 105 0.05 103.43 0 100.23C0 98 1.34 95.72 3.36 93.48C4.65953 91.3098 5.3504 88.8296 5.36 86.3C5.53 81.13 3 76.61 2.63 71C2.2 64.7 2.63 56.21 3.63 46.46L4.09 33.29C4.21386 32.1162 4.61487 30.9885 5.26 30L16.84 12.51L17.55 12.42H17.59ZM74.9 55.12V51.65C77.9602 51.8816 80.8189 53.2644 82.9 55.52C85.9 59.13 83.9 64.29 80.66 66.77C79.9807 67.2662 79.1852 67.5796 78.35 67.68L78.66 67.74C81.81 70.39 83.35 73.36 82.75 76.24C81.88 80.48 75.09 84.86 71.01 85.16C70.1246 85.2611 69.2287 85.1055 68.4292 84.712C67.6296 84.3184 66.96 83.7033 66.5 82.94C64.18 79.34 67.69 75.49 70.11 73.1C71.4709 71.7289 73.0704 70.6173 74.83 69.82V67.17C74.0901 66.8938 73.4261 66.4462 72.8925 65.8639C72.3588 65.2816 71.9708 64.5812 71.76 63.82C71.06 60.64 73.1 57.56 74.9 55.12ZM74.55 86.27L74.82 84.87C78.11 84.61 80.53 85.73 81.76 88.72C82.29 91.72 81.98 94.72 79.21 96.42C76.6 98 71 99 68.3 97.22C65.42 95.32 65.79 92.05 67.97 89.73C69.7336 87.9199 72.0213 86.7096 74.51 86.27H74.55ZM29.83 2.19382e-05H63.45C64.7037 -0.00129216 65.9453 0.244498 67.1039 0.723339C68.2625 1.20218 69.3153 1.90468 70.2023 2.79069C71.0892 3.67669 71.7928 4.72881 72.2729 5.88691C72.7529 7.04501 73 8.28637 73 9.54002V51.31C72.9897 51.4231 72.9897 51.5369 73 51.65V54.51C72.086 55.7284 71.3018 57.0388 70.66 58.42C70.3074 59.2043 70.0457 60.0263 69.88 60.87V10.4H23.44V12.4C22.5736 11.5294 21.4891 10.9077 20.3 10.6V9.60002C20.2881 8.34191 20.5259 7.09395 20.9998 5.92842C21.4736 4.76289 22.174 3.70297 23.0604 2.81007C23.9468 1.91716 25.0016 1.20902 26.1636 0.726658C27.3256 0.244301 28.5718 -0.00268042 29.83 2.19382e-05ZM46.63 89.49C47.4081 89.488 48.1693 89.7171 48.8171 90.1482C49.465 90.5793 49.9702 91.1929 50.2689 91.9115C50.5676 92.63 50.6463 93.421 50.495 94.1843C50.3436 94.9475 49.9691 95.6487 49.4189 96.1989C48.8687 96.7492 48.1675 97.1237 47.4042 97.275C46.641 97.4263 45.8499 97.3476 45.1314 97.0489C44.4129 96.7503 43.7992 96.245 43.3682 95.5972C42.9371 94.9494 42.708 94.1882 42.71 93.41C42.7087 92.8949 42.8092 92.3845 43.0057 91.9083C43.2022 91.4322 43.4909 90.9995 43.8552 90.6352C44.2195 90.271 44.6521 89.9823 45.1283 89.7857C45.6045 89.5892 46.1148 89.4887 46.63 89.49ZM69.83 64.11V64.23C70.0632 65.2872 70.578 66.2617 71.32 67.05C71.7694 67.5386 72.2843 67.9627 72.85 68.31V68.64C72.2859 68.9439 71.7385 69.2777 71.21 69.64C70.72 69.97 70.26 70.34 69.8 70.72V64.11H69.83ZM67.71 86.5C67.9536 86.6097 68.2041 86.7032 68.46 86.78C67.7749 87.2598 67.1415 87.8094 66.57 88.42C66.2002 88.7954 65.8655 89.2038 65.57 89.64C64.722 90.871 64.2781 92.3354 64.3 93.83C64.3308 94.6209 64.5202 95.3976 64.8569 96.1139C65.1936 96.8302 65.6707 97.4716 66.26 98C66.5694 98.2893 66.9041 98.5504 67.26 98.78L67.4 98.87C66.1631 99.4334 64.8192 99.7233 63.46 99.72H29.83C28.5777 99.72 27.3376 99.4732 26.1807 98.9936C25.0238 98.5141 23.9728 97.8112 23.0877 96.9252C22.2027 96.0392 21.5009 94.9875 21.0226 93.8301C20.5442 92.6727 20.2987 91.4324 20.3 90.18V36.44L20.44 36.18L23.44 31.33V86.5H67.71Z" fill="white"/>
</g>
<defs>
<clipPath id="clip0_211_1269">
<rect width="84.33" height="122.88" fill="white"/>
</clipPath>
</defs>
</svg>
