<svg id="insta" xmlns="http://www.w3.org/2000/svg" width="23.196" height="23.196" viewBox="0 0 23.196 23.196">
  <path id="Path_19054" data-name="Path 19054" d="M0,0H23.2V23.2H0Z" fill="none"/>
  <path id="Path_19055" data-name="Path 19055" d="M7.866,3H15.6a4.871,4.871,0,0,1,4.866,4.866V15.6A4.871,4.871,0,0,1,15.6,20.464H7.866A4.871,4.871,0,0,1,3,15.6V7.866A4.871,4.871,0,0,1,7.866,3ZM15.6,18.464A2.869,2.869,0,0,0,18.464,15.6V7.866A2.869,2.869,0,0,0,15.6,5H7.866A2.869,2.869,0,0,0,5,7.866V15.6a2.869,2.869,0,0,0,2.866,2.866Z" transform="translate(-0.134 -0.134)" fill="#fff"/>
  <path id="Path_19056" data-name="Path 19056" d="M11.9,15.8a3.9,3.9,0,1,1,3.9-3.9A3.9,3.9,0,0,1,11.9,15.8ZM10,11.9A1.9,1.9,0,1,0,11.9,10,1.9,1.9,0,0,0,10,11.9Z" transform="translate(-0.302 -0.302)" fill="#fff"/>
  <path id="Path_19057" data-name="Path 19057" d="M16.5,8.51a1,1,0,0,1-1-1V7.5a1,1,0,0,1,2,0v.01A1,1,0,0,1,16.5,8.51Z" transform="translate(-0.553 -0.251)" fill="#fff"/>
</svg>