<svg width="123" height="85" viewBox="0 0 123 85" fill="none" xmlns="http://www.w3.org/2000/svg">
<path fill-rule="evenodd" clip-rule="evenodd" d="M23.79 50.2501C27.23 60.3701 41.61 60.7501 44.85 50.2501C48.66 53.6801 57.48 54.3601 61.68 56.6901C65.88 59.0201 67.41 62.7501 67.76 67.2901L68.05 69.6801C67.2313 70.3131 66.3579 70.872 65.44 71.3501C62.1276 72.975 58.3982 73.5506 54.75 73.0001C53.1388 72.8077 51.5127 73.2094 50.1763 74.1298C48.8399 75.0502 47.8848 76.4262 47.49 78.0001H4C1.46 77.8001 0.18 76.4901 0 74.2301L0.87 67.2301C0.973783 64.4845 1.87747 61.829 3.47 59.5901C4.41333 58.3594 5.60171 57.3379 6.96 56.5901C11.96 53.8201 19.63 53.8901 23.79 50.1501V50.2501ZM20.79 31.6801C20.3591 31.7092 19.9412 31.8394 19.57 32.0601C19.3919 32.1864 19.2476 32.3547 19.15 32.5501C19.0464 32.8034 19.002 33.077 19.02 33.3501C19.2035 34.681 19.7347 35.94 20.56 37.0001L23.82 42.1701C25.0165 44.298 26.4893 46.2584 28.2 48.0001C29.8444 49.5955 32.0489 50.4823 34.34 50.4701C35.5398 50.4928 36.7321 50.2754 37.8466 49.8306C38.9612 49.3858 39.9755 48.7226 40.83 47.8801C42.5867 46.0539 44.0932 44.0027 45.31 41.7801L48.97 35.7801C49.72 34.0901 49.97 33.0501 49.7 32.5501C49.56 32.2701 49.06 32.1601 48.24 32.2101C47.5793 32.3678 46.8881 32.3436 46.24 32.1401L47.72 27.9701C41 27.8101 36.42 26.6401 31 23.1701C29.21 22.0401 28.68 20.7301 26.9 20.8601C25.6067 21.085 24.4229 21.7278 23.53 22.6901C22.5736 23.7808 21.9065 25.0943 21.59 26.5101L22.67 31.7201C22.0635 31.8785 21.4265 31.8785 20.82 31.7201L20.79 31.6801ZM50 30.1801C50.3586 30.2731 50.6928 30.4429 50.9794 30.6777C51.266 30.9125 51.4982 31.2067 51.66 31.5401C52.21 32.6401 51.99 34.2801 50.96 36.6301L50.89 36.7501L47.18 42.8601C45.868 45.2564 44.2364 47.4632 42.33 49.4201C41.278 50.459 40.0274 51.2751 38.6528 51.8198C37.2783 52.3645 35.8081 52.6264 34.33 52.5901C31.5092 52.6144 28.7901 51.5382 26.75 49.5901C24.9002 47.7456 23.303 45.6641 22 43.4001L18.75 38.2201C17.6969 36.8226 17.0499 35.1616 16.88 33.4201C16.855 32.8117 16.9714 32.2059 17.22 31.6501C17.4755 31.0934 17.885 30.6215 18.4 30.2901C18.6682 30.1098 18.9569 29.9621 19.26 29.8501C19.0473 27.3158 19.0006 24.7704 19.12 22.2301C19.1952 21.5136 19.329 20.8046 19.52 20.1101C20.4313 17.1804 22.3891 14.6887 25.02 13.1101C25.9629 12.5191 26.9692 12.0361 28.02 11.6701C34.27 9.41005 42.56 10.6701 47.02 15.4501C48.9907 17.6588 50.1202 20.4913 50.21 23.4501L50 30.1801Z" fill="white"/>
<path fill-rule="evenodd" clip-rule="evenodd" d="M78 39.6799C81.44 49.7999 95.82 50.1799 99.06 39.6799C102.87 43.1099 111.69 43.7999 115.89 46.1299C120.09 48.4599 121.62 52.1299 121.97 56.7299L122.84 65.5899C122.84 65.7699 115.42 65.8499 106.42 65.8699V59.4199C106.415 57.6648 105.716 55.983 104.476 54.7411C103.236 53.4992 101.555 52.7978 99.8 52.7899L74.13 52.6599C73.0887 52.663 72.0622 52.906 71.13 53.3699C70.0509 51.8505 68.6381 50.5984 67 49.7099C64.6755 48.5694 62.2301 47.6939 59.71 47.0999C60.1866 46.7328 60.6878 46.3987 61.21 46.0999C66.21 43.3199 73.88 43.3999 78.04 39.6499L78 39.6799ZM75 21.1199C74.571 21.1422 74.1547 21.2729 73.79 21.4999C73.6045 21.6165 73.4555 21.7828 73.36 21.9799C73.2564 22.2332 73.2119 22.5068 73.23 22.7799C73.3975 24.1237 73.9224 25.398 74.75 26.4699L78.01 31.6399C79.2033 33.7314 80.6695 35.6549 82.37 37.3599C84.0109 38.9617 86.2168 39.8527 88.51 39.8399C89.7098 39.8627 90.902 39.6453 92.0166 39.2005C93.1311 38.7557 94.1455 38.0925 95 37.2499C96.759 35.4221 98.2657 33.3672 99.48 31.1399L103.14 25.1399C103.89 23.4399 104.14 22.3999 103.87 21.9099C103.73 21.6199 103.23 21.5199 102.41 21.5599C101.751 21.7266 101.058 21.7058 100.41 21.4999L102 17.3299C95.29 17.2499 90.71 16.0799 85.28 12.6099C83.49 11.4699 82.96 10.1699 81.18 10.2999C79.888 10.5221 78.7043 11.1613 77.81 12.1199C76.8535 13.2106 76.1865 14.5242 75.87 15.9399L76.95 21.1499C76.3441 21.3129 75.7059 21.3129 75.1 21.1499L75 21.1199ZM104.14 19.6199C104.511 19.7085 104.857 19.8782 105.155 20.1169C105.452 20.3555 105.693 20.6571 105.86 20.9999C106.41 22.1099 106.19 23.7499 105.16 26.0899C105.16 26.0899 105.16 26.1699 105.09 26.2199L101.38 32.3299C100.065 34.7246 98.4341 36.9311 96.53 38.8899C95.4748 39.9237 94.2234 40.736 92.8494 41.2787C91.4755 41.8214 90.0068 42.0836 88.53 42.0499C85.7197 42.0468 83.0203 40.9534 81 38.9999C79.159 37.1699 77.5716 35.1015 76.28 32.8499L73 27.6599C71.9479 26.258 71.3011 24.5942 71.13 22.8499C71.104 22.2447 71.2205 21.6419 71.47 21.0899C71.7249 20.5302 72.1342 20.0549 72.65 19.7199C72.9164 19.5392 73.2055 19.3946 73.51 19.2899C73.2974 16.7523 73.2506 14.2036 73.37 11.6599C73.4451 10.9468 73.5789 10.241 73.77 9.54988C74.6779 6.61844 76.6366 4.12562 79.27 2.54988C80.2106 1.95493 81.2174 1.47167 82.27 1.10988C88.52 -1.16012 96.81 0.109884 101.27 4.87988C103.239 7.08953 104.368 9.92148 104.46 12.8799L104.25 19.6499L104.14 19.6199Z" fill="white"/>
<g clip-path="url(#clip0_212_1277)">
<path d="M86.7805 63.3177C86.4302 63.668 85.9551 63.8648 85.4597 63.8648C84.9643 63.8648 84.4892 63.668 84.1389 63.3177C83.7886 62.9674 83.5918 62.4923 83.5918 61.9969C83.5918 61.5015 83.7886 61.0264 84.1389 60.6761L87.3127 57.5145C88.9314 55.9039 91.1219 54.9998 93.4053 54.9998C95.6887 54.9998 97.8792 55.9039 99.4978 57.5145L99.5149 57.534C101.118 59.1538 102.016 61.3415 102.012 63.6203C102.009 65.8991 101.105 68.0843 99.4978 69.6995L96.324 72.8612C95.9737 73.2115 95.4986 73.4082 95.0032 73.4082C94.5078 73.4082 94.0327 73.2115 93.6824 72.8612C93.3321 72.5109 93.1353 72.0357 93.1353 71.5404C93.1353 71.045 93.3321 70.5698 93.6824 70.2196L96.8562 67.0457C97.7631 66.1281 98.2717 64.8899 98.2717 63.5997C98.2717 62.3095 97.7631 61.0713 96.8562 60.1536L96.8293 60.1268C95.9097 59.2243 94.6719 58.7202 93.3834 58.7234C92.095 58.7266 90.8597 59.2369 89.9446 60.1439L86.7829 63.3177H86.7805ZM90.1985 64.0892C90.5558 63.7778 91.0181 63.6139 91.4917 63.6306C91.9654 63.6474 92.4149 63.8437 92.7493 64.1796C93.0836 64.5155 93.2778 64.9659 93.2924 65.4397C93.307 65.9134 93.1409 66.3749 92.8279 66.7308L83.7312 75.8275C83.3782 76.1627 82.9082 76.3469 82.4214 76.3407C81.9346 76.3345 81.4694 76.1385 81.125 75.7944C80.7806 75.4503 80.5842 74.9854 80.5776 74.4986C80.5709 74.0118 80.7547 73.5416 81.0896 73.1883L90.1887 64.0892H90.1985ZM87.1614 76.7405C87.5147 76.4056 87.9848 76.2219 88.4716 76.2285C88.9584 76.2351 89.4234 76.4316 89.7675 76.776C90.1116 77.1204 90.3076 77.5855 90.3138 78.0724C90.3199 78.5592 90.1358 79.0291 89.8005 79.3822L86.6999 82.4852C85.0877 84.0898 82.9074 84.9934 80.6327 84.9998C78.3581 85.0062 76.1728 84.1149 74.5515 82.5194L74.4831 82.4534C72.8864 80.832 71.9941 78.6459 72 76.3703C72.006 74.0946 72.9097 71.9132 74.5149 70.3001L77.6155 67.2069C77.7848 67.0187 77.9907 66.8669 78.2205 66.7607C78.4503 66.6545 78.6994 66.5962 78.9525 66.5892C79.2055 66.5822 79.4574 66.6268 79.6927 66.7202C79.9281 66.8136 80.1419 66.9539 80.3214 67.1325C80.5008 67.3111 80.6421 67.5243 80.7365 67.7592C80.831 67.9941 80.8768 68.2457 80.871 68.4989C80.8652 68.752 80.808 69.0013 80.7029 69.2316C80.5978 69.4619 80.4469 69.6685 80.2595 69.8387L77.1565 72.9417C76.2487 73.8599 75.7395 75.099 75.7395 76.3902C75.7395 77.6814 76.2487 78.9205 77.1565 79.8387C78.0742 80.7492 79.3146 81.2601 80.6074 81.2601C81.9002 81.2601 83.1406 80.7492 84.0583 79.8387L87.1614 76.7405Z" fill="white"/>
</g>
<defs>
<clipPath id="clip0_212_1277">
<rect width="30" height="30" fill="white" transform="translate(72 55)"/>
</clipPath>
</defs>
</svg>
