<svg xmlns="http://www.w3.org/2000/svg" width="15.878" height="15.173" viewBox="0 0 15.878 15.173">
  <path id="linkedin-icon-1" d="M0,6.763A1.65,1.65,0,0,1,.536,5.5,1.968,1.968,0,0,1,1.931,5,1.909,1.909,0,0,1,3.3,5.49a1.729,1.729,0,0,1,.536,1.318,1.614,1.614,0,0,1-.521,1.226A1.972,1.972,0,0,1,1.9,8.54H1.885A1.876,1.876,0,0,1,.521,8.035,1.7,1.7,0,0,1,0,6.763ZM.2,20.173V9.935H3.6V20.173Zm5.288,0h3.4V14.457a2,2,0,0,1,.774-1.709,1.665,1.665,0,0,1,1.1-.36q1.717,0,1.717,2.314v5.472h3.4V14.3a4.933,4.933,0,0,0-1.073-3.441A3.66,3.66,0,0,0,11.97,9.69a3.478,3.478,0,0,0-3.081,1.7v.031H8.874l.015-.031V9.935h-3.4q.031.49.031,3.05T5.487,20.173Z" transform="translate(0 -5)" fill="#fff"/>
</svg>