<svg width="512" height="512" viewBox="0 0 512 512" fill="none" xmlns="http://www.w3.org/2000/svg">
<g clip-path="url(#clip0_11_51)">
<mask id="mask0_11_51" style="mask-type:luminance" maskUnits="userSpaceOnUse" x="0" y="0" width="512" height="512">
<path d="M512 0H0V512H512V0Z" fill="white"/>
</mask>
<g mask="url(#mask0_11_51)">
<path fill-rule="evenodd" clip-rule="evenodd" d="M91.0469 467.583V340.042H163.61C194.521 344.208 225.116 357.5 255.868 372.875H312.161C337.7 374.084 351.023 394.542 326.273 407.959C306.526 419.459 280.565 418.791 253.709 416.916C235.279 416.208 234.489 435.75 253.709 435.833C260.397 436.25 267.664 435 273.983 435C307.21 435 334.803 429.958 351.602 409.083L359.922 393.5L444.175 360.792C486.304 349.875 515.95 384.542 485.039 408.708C426.554 442.475 363.991 471.575 298.259 495.583C252.024 517.832 205.737 517.084 159.608 495.583L91.1522 467.583H91.0469ZM0 327.875H69.2461V480.417H0V327.875ZM314.319 10.125C314.597 7.25131 316.278 4.57606 319.006 2.66666C321.685 0.799659 325.184 -0.158263 328.748 -2.73265e-06H329.696C333.125 0.352918 336.26 1.71553 338.475 3.8161C340.69 5.91668 341.824 8.60084 341.649 11.3333C341.649 11.3333 341.649 11.7083 341.649 11.875L339.648 34.9583C339.648 35.2084 339.648 35.4583 339.648 35.6666C339.203 38.3047 337.578 40.7291 335.067 42.5C332.377 44.348 328.881 45.2902 325.325 45.125H324.377C321.133 44.8149 318.141 43.5865 315.952 41.6667C313.602 39.5427 312.393 36.7771 312.582 33.9584C312.554 33.7784 312.554 33.5965 312.582 33.4167L314.53 10.25L314.319 10.125ZM161.609 45.2917C159.065 43.2559 157.639 40.5086 157.639 37.6458C157.639 34.7831 159.065 32.0358 161.609 30C164.176 27.9772 167.65 26.8415 171.272 26.8415C174.895 26.8415 178.369 27.9772 180.935 30L201.999 46.9167C204.555 48.9471 205.99 51.6966 205.99 54.5623C205.99 57.4285 204.555 60.1779 201.999 62.2085C199.409 64.2125 195.931 65.3343 192.309 65.3333C190.515 65.3261 188.741 65.0394 187.087 64.489C185.433 63.9381 183.933 63.1352 182.673 62.1251L161.609 45.2083V45.2917ZM119.482 163.083C115.888 163.007 112.476 161.815 109.983 159.764C107.49 157.714 106.117 154.97 106.16 152.125C106.256 149.325 107.729 146.665 110.267 144.712C112.804 142.758 116.206 141.666 119.746 141.667H149.656C151.458 141.682 153.238 141.981 154.892 142.546C156.546 143.112 158.042 143.931 159.292 144.958C160.574 145.966 161.586 147.168 162.264 148.493C162.943 149.817 163.276 151.237 163.242 152.667V153.042C163.047 155.707 161.601 158.218 159.187 160.083C156.58 162.086 153.079 163.194 149.445 163.167H148.919L119.324 162.917L119.482 163.083ZM497.939 142.667H498.363C501.789 142.607 505.119 143.574 507.683 145.375C510.389 147.288 512.037 149.967 512.262 152.834C512.262 152.834 512.262 153.125 512.262 153.167C512.337 155.879 511.117 158.513 508.841 160.542C506.422 162.684 503.038 163.986 499.416 164.167L469.558 165.625C465.97 165.746 462.465 164.747 459.801 162.844C457.133 160.94 455.522 158.284 455.305 155.447C455.093 152.611 456.296 149.822 458.656 147.681C461.016 145.54 464.342 144.218 467.926 144C477.929 143.5 487.936 142.958 497.939 142.542V142.667ZM444.016 46.5C445.074 45.355 446.41 44.3869 447.942 43.6515C449.474 42.916 451.176 42.4277 452.945 42.2147C454.718 42.0017 456.525 42.0682 458.265 42.4103C460.005 42.7525 461.641 43.3635 463.081 44.2083C464.501 45.0501 465.695 46.1054 466.598 47.3138C467.506 48.5221 468.097 49.8598 468.347 51.2502C468.85 54.0882 467.943 56.9708 465.82 59.2917L448.125 78.3749C445.969 80.6784 442.755 82.2154 439.175 82.6527C435.595 83.0894 431.941 82.3905 429.01 80.7081C426.163 78.974 424.277 76.436 423.744 73.6251C423.511 72.2115 423.64 70.7763 424.119 69.4021C424.598 68.0284 425.422 66.7443 426.533 65.6251L444.283 46.5H444.016ZM352.497 323.875C346.739 331.025 338.714 336.858 329.222 340.792C321.21 344.143 312.321 345.97 303.261 346.125C294.084 346.303 285.008 344.579 276.932 341.125C271.184 338.633 266.061 335.328 261.819 331.375L352.234 323.875H352.497ZM363.029 284.417V289.083V290.667C363.232 293.778 363.162 296.897 362.818 300L360.659 306.667L251.076 315.542L249.391 312L245.863 298.083V293.917L363.345 284.417H363.029ZM264.241 164.667C269.335 166.228 273.962 168.612 277.827 171.666C280.978 174.013 283.933 176.518 286.674 179.167C296.007 168.348 306.265 158.046 317.374 148.334C327.196 139.481 337.96 131.312 349.548 123.917L352.076 123.25L379.616 124.208L373.877 128.792C357.905 141.744 343.107 155.57 329.591 170.167C313.493 186.583 298.77 203.813 285.515 221.75C279.756 210.424 272.105 199.76 262.767 190.042C255.423 182.049 246.538 175.02 236.437 169.208L264.03 164.541L264.241 164.667ZM201.577 104.167C208.812 95.5745 217.695 87.9273 227.907 81.5002C238.245 74.9261 249.904 69.7713 262.398 66.2502L263.451 65.9999C272.771 63.4424 282.439 61.7641 292.255 61.0002C302.652 60.1856 313.135 60.3535 323.482 61.4999C343.732 63.6022 363.12 69.2997 380.195 78.1665C391.351 83.8543 401.318 90.8831 409.737 98.9998C417.921 107.003 424.365 116.029 428.798 125.708C431.3 131.237 433.202 136.925 434.488 142.708C435.874 148.882 436.49 155.148 436.328 161.417C436.216 168.433 435.138 175.418 433.119 182.25C431.029 189.216 428.065 196 424.269 202.5C416.003 216.667 402.47 230.167 389.147 243.459C382.618 250 376.141 256.5 370.559 262.917C368.824 264.905 366.435 266.48 363.651 267.471C360.866 268.463 357.792 268.833 354.761 268.541L256.29 276.625C252.379 276.94 248.454 276.157 245.2 274.413C241.945 272.668 239.571 270.074 238.491 267.083C236.313 261.137 233.531 255.341 230.171 249.75C227.446 245.14 224.091 240.781 220.166 236.75C215.427 232.083 210.582 227.292 205.737 221.583C200.332 215.292 195.728 208.593 191.993 201.583L191.677 200.834C187.97 193.677 185.148 186.254 183.252 178.667C181.382 170.786 180.693 162.758 181.198 154.75C181.751 146.434 183.608 138.204 186.728 130.25C189.998 121.748 194.486 113.57 200.103 105.875V105.625L201.314 104.167H201.577Z" fill="white"/>
</g>
</g>
<defs>
<clipPath id="clip0_11_51">
<rect width="512" height="512" fill="white"/>
</clipPath>
</defs>
</svg>
