<svg width="512" height="512" viewBox="0 0 512 512" fill="none" xmlns="http://www.w3.org/2000/svg">
<g clip-path="url(#clip0_10_29)">
<path d="M326.527 171.735C310.89 169.133 270.586 169.305 243.841 179.031C217.089 188.756 168.444 219.155 153.853 224.028C139.262 228.887 138.043 248.35 170.873 251.992C203.709 255.646 232.891 234.964 240.186 231.323C247.482 227.669 318.012 238.619 318.012 238.619L340.202 244.087L391.363 313.241C400.34 305.443 418.095 288.892 422.591 276.314C424.232 271.733 426.669 267.522 429.343 263.782L356.853 163.805C347.605 169.047 336.444 173.39 326.527 171.735Z" fill="white"/>
<path d="M326.527 254.123L315.775 253.038C301.668 250.853 261.775 245.173 246.8 245.173C246.138 245.173 245.615 245.18 245.224 245.199C244.622 245.543 243.926 245.941 243.244 246.338C232.619 252.528 207.72 267.019 178.724 267.019C175.546 267.019 172.362 266.84 169.264 266.496C164.564 265.973 160.432 265.165 156.778 264.146C160.24 265.662 163.431 267.834 166.159 270.621C170.449 275.004 173.103 280.379 174.156 286C176.652 285.331 179.24 284.96 181.888 284.96C190.004 284.96 197.598 288.151 203.264 293.95C208.852 299.657 211.877 307.204 211.791 315.188C211.791 315.267 211.778 315.347 211.778 315.426C219.861 315.452 227.422 318.644 233.075 324.416C238.662 330.123 241.688 337.669 241.602 345.654C241.575 348.408 241.152 351.095 240.404 353.678C246.137 354.876 251.387 357.729 255.584 362.019C267.116 373.81 266.911 392.776 255.127 404.309L249.229 410.082C249.255 410.082 249.282 410.082 249.308 410.082C259.225 409.367 267.573 403.25 269.91 394.034C273.948 397.218 279.032 399.131 284.574 399.131C297.669 399.131 308.287 388.519 308.287 375.418C308.287 374.041 308.148 372.704 307.916 371.392C312.087 375.027 317.522 377.244 323.487 377.244C336.582 377.244 347.201 366.625 347.201 353.531C350.008 354.703 353.086 355.358 356.317 355.358C369.418 355.358 380.03 344.739 380.03 331.645C380.03 321.701 375.171 315.227 363.612 301.854L326.527 254.123Z" fill="white"/>
<path d="M155.734 280.829C149.816 274.785 140.124 274.679 134.08 280.591L112.2 302.007C106.156 307.919 106.05 317.611 111.962 323.655C117.88 329.699 127.572 329.805 133.616 323.886L155.502 302.476C161.539 296.565 161.645 286.873 155.734 280.829Z" fill="white"/>
<path d="M192.833 304.158C186.921 298.107 177.229 298.001 171.185 303.919L142.01 332.465C135.959 338.383 135.86 348.075 141.771 354.113C147.683 360.164 157.382 360.27 163.426 354.352L192.601 325.805C198.645 319.894 198.751 310.202 192.833 304.158Z" fill="white"/>
<path d="M222.643 334.624C216.731 328.58 207.039 328.467 200.995 334.386L171.82 362.939C165.776 368.85 165.67 378.542 171.582 384.593C177.494 390.631 187.186 390.737 193.237 384.818L222.412 356.272C228.456 350.353 228.562 340.661 222.643 334.624Z" fill="white"/>
<path d="M245.158 372.226C239.246 366.182 229.554 366.07 223.51 371.988L206.49 388.645C200.446 394.556 200.34 404.248 206.252 410.293C212.17 416.337 221.862 416.437 227.906 410.531L244.926 393.875C250.971 387.963 251.07 378.271 245.158 372.226Z" fill="white"/>
<path d="M510.606 234.991L412.814 100.125C410.45 96.855 405.889 96.134 402.625 98.497L359.31 129.909C356.046 132.272 355.318 136.834 357.688 140.097L455.48 274.97C457.843 278.234 462.405 278.962 465.668 276.592L508.991 245.186C512.248 242.815 512.977 238.254 510.606 234.991ZM477.334 247.106C471.899 251.051 464.292 249.833 460.347 244.398C456.408 238.963 457.619 231.363 463.061 227.418C468.496 223.472 476.096 224.69 480.042 230.119C483.98 235.56 482.769 243.167 477.334 247.106Z" fill="white"/>
<path d="M144.784 261.63C147.088 261.63 149.339 261.922 151.523 262.418C133.139 255.368 130.094 242.472 129.617 237.924C128.319 225.676 136.204 214.522 149.239 210.179C154.482 208.431 168.225 200.937 181.519 193.695C195.779 185.916 211.429 177.383 225.04 171.106C207.788 169.71 191.621 170.299 182.989 171.735C173.694 173.284 163.314 169.571 154.436 164.791L81.376 265.543C83.567 268.833 85.533 272.435 86.916 276.314C88.962 282.034 93.755 288.574 99.216 294.744C100.07 293.645 100.977 292.572 101.997 291.573L123.876 270.157C129.498 264.662 136.926 261.63 144.784 261.63Z" fill="white"/>
<path d="M152.695 129.902L109.372 98.496C106.115 96.133 101.554 96.854 99.184 100.124L1.39102 234.991C-0.978976 238.254 -0.243976 242.815 3.01302 245.186L46.329 276.592C49.593 278.962 54.154 278.234 56.518 274.963L154.311 140.097C156.68 136.834 155.952 132.272 152.695 129.902ZM123.745 144.97C119.806 150.398 112.199 151.616 106.764 147.671C101.322 143.731 100.11 136.125 104.056 130.69C107.995 125.255 115.602 124.037 121.037 127.982C126.479 131.928 127.684 139.528 123.745 144.97Z" fill="white"/>
</g>
<defs>
<clipPath id="clip0_10_29">
<rect width="512" height="512" fill="white"/>
</clipPath>
</defs>
</svg>
