<svg width="123" height="100" viewBox="0 0 123 100" fill="none" xmlns="http://www.w3.org/2000/svg">
<g clip-path="url(#clip0_1815_251)">
<path d="M121.13 36.0305C121.13 36.1205 121.12 36.2105 121.11 36.3005C120.55 49.7205 117.43 61.4405 111 70.9605C104.51 80.5705 94.71 87.8805 80.84 92.3705C80.8 92.3805 80.76 92.3905 80.73 92.4005V99.0605C80.73 99.5705 80.31 100 79.79 100H38.58C37.92 100 37.38 99.4605 37.38 98.8005V92.3605C37.25 92.3105 37.13 92.2505 37.01 92.1805C24.29 86.1605 15.32 78.2505 9.37995 68.7805C3.40995 59.2805 0.529953 48.2705 -4.74282e-05 36.1205C-0.0500474 34.9105 0.889952 33.8805 2.09995 33.8305C2.12995 33.8305 2.15995 33.8305 2.18995 33.8305C2.18995 33.8305 3.41995 33.8305 5.62995 33.8305C5.18995 33.3505 4.82995 32.8105 4.54995 32.2005L5.74995 31.8905C4.42995 30.3705 3.16995 28.8105 2.65995 26.8005L3.87995 26.4705C2.80995 24.6405 2.02995 22.9105 1.84995 21.3805L3.19995 21.5705C2.21995 19.1905 1.66995 17.0605 1.71995 15.2705L3.08995 15.6505C2.22995 13.5705 1.95995 11.2105 2.04995 9.01047C4.00995 9.66047 5.94995 10.6705 7.86995 12.2805L8.04995 10.9005C9.52995 11.4005 11.35 12.6705 13.41 14.4705L13.66 13.1605C15.09 14.0305 16.45 15.2505 17.73 16.8905L18.44 15.9005C19.72 16.9005 20.94 18.4605 22.12 20.6005L22.87 19.5605C23.88 20.7405 24.62 22.3405 24.95 24.5305L25.91 23.8705C26.27 24.6205 26.51 25.6105 26.57 26.9505C27.01 26.3505 27.53 25.7805 28.13 25.2605C29.54 23.8005 31.93 22.9105 35.23 22.5505L32.82 21.5705C32.39 21.2905 32.58 21.1305 33.27 21.0605C36.37 20.9405 39.09 21.0905 41.13 21.7005C41.1 19.9705 40.37 18.2405 39.52 16.5105L41.74 15.0605L42.48 15.5805C43.07 18.1705 43.64 20.5705 44.12 21.8805C45.57 21.8105 46.51 21.4205 47.49 21.0605C48.7 20.6205 49.71 20.0405 50.59 19.3805C51.26 18.9405 51.64 19.1405 51.59 20.2805C51.39 21.3405 50.84 22.1505 50.01 22.7605C51.41 22.7005 52.7 22.8405 53.88 23.1905C55.69 23.7305 57.2 24.7805 58.36 26.3805C58.72 26.8805 59.04 27.4305 59.33 28.0305C59.41 28.1905 59.48 28.3605 59.55 28.5305C58.62 20.2905 62.46 11.2705 71.75 5.29047C74.21 3.71047 76.78 2.16047 79.05 -0.0195312C79.28 2.50047 79.07 4.52047 78.19 5.81047C80.28 6.69047 81.32 6.22047 83.12 5.42047C83.23 7.29047 83.67 9.34047 82.81 10.8505C84.53 10.5905 85.79 10.5305 87.21 9.41047C87.7 11.6305 87.18 13.6605 86.56 15.5205C88.78 15.5705 90.58 15.9505 91.92 16.5405C91.77 15.4305 91.75 14.2705 91.87 13.2105C93.41 14.3005 95.21 15.4605 97.18 15.5305C96.67 13.7005 96.28 11.7105 96.87 9.59047C98.19 10.7505 99.41 10.8805 101.05 11.2205C100.3 9.71047 100.83 7.76047 101.03 5.96047C102.73 6.83047 103.71 7.34047 105.78 6.60047C105 5.32047 104.89 3.35047 105.25 0.920469C107.33 3.15047 109.74 4.78047 112.03 6.44047C117.85 10.6505 122.08 16.0305 122.8 23.4505C123.18 27.3805 122.36 31.2105 120.6 34.6205H120.64C120.63 34.6305 121.13 35.4605 121.13 36.0305ZM60.67 33.4205L60.69 33.6605H59.37C59.28 32.6005 59.09 31.5105 58.78 30.3805C58.59 29.7405 58.37 29.1605 58.11 28.6205C57.86 28.0805 57.58 27.6005 57.27 27.1705C56.29 25.8105 55.02 24.9305 53.48 24.4705C52.16 24.0805 50.64 23.9905 48.96 24.1705C50.85 24.7305 52.22 25.8705 52.71 28.0505C52.75 29.1505 52.59 29.5805 52.13 28.9505C49.71 27.0305 47.43 26.0805 45.37 26.6005C46.07 28.2605 47.44 29.5605 48.94 30.7905C46.24 30.8305 43.84 29.6205 41.66 27.5405C39.22 28.7405 35.67 28.4105 34.33 30.2805C33.55 31.2405 33.4 30.7505 33.61 29.4405C34.18 27.3505 35.15 26.0005 36.57 25.4805C34.23 25.5705 32.69 25.2505 31.81 24.6005C30.62 25.0005 29.69 25.5305 29.05 26.2105C29.03 26.2205 29.02 26.2405 29 26.2505C28.17 26.9705 27.51 27.8005 27.01 28.7005L27.69 28.4805C27.69 29.7905 27.02 31.5705 26.03 33.5705L27.26 33.7405L27.21 33.8305H60.82C60.77 33.6905 60.72 33.5505 60.67 33.4205ZM64.59 33.8505L70.88 33.9405L69.09 28.3205C72.36 26.2505 74.77 22.8605 76.38 18.2605C74 21.5405 71.37 24.2605 68.81 24.9305C65.38 -0.31953 66.91 30.7005 67.79 33.7005C65.69 32.2705 63.86 30.2905 62.31 27.7505C62.69 29.9905 63.36 32.0705 64.59 33.8505ZM72.03 33.9605L75.43 34.0105C77.19 31.6505 78.29 28.9005 79.02 25.9205C77.05 28.9305 74.75 31.6305 72.03 33.9605ZM100.35 34.3505L102.48 34.3805C100.02 30.0505 95.03 28.2105 91.49 24.6405C91.1 24.2405 90.72 23.8405 90.36 23.4105C90.18 23.4605 90 23.5205 89.81 23.5705C87.77 24.1305 92.32 27.2805 97.24 31.4705C98.36 32.4205 99.43 33.3705 100.35 34.3505ZM107.26 34.4405L110.63 34.4905C107.95 32.0105 105.73 29.1505 103.9 25.9705C104.48 29.0805 105.48 31.9705 107.26 34.4405ZM111.21 34.5005L117.29 34.5805C118.66 32.8905 119.45 30.8505 119.95 28.6205C118.31 30.9905 116.45 32.8105 114.34 34.0805C115.35 31.2305 118.46 1.32047 113.82 25.5505C111.37 24.7705 108.98 22.0005 106.85 18.7105C108.17 23.2505 110.32 26.6405 113.37 28.8205L111.21 34.5005ZM81.05 2.42047C84.15 1.01047 87.59 0.220469 91.22 0.220469C95.53 0.220469 99.58 1.33047 103.1 3.29047C103.1 3.66047 103.11 4.02047 103.14 4.36047C103.15 4.52047 103.17 4.69047 103.19 4.84047C102.8 4.71047 102.4 4.51047 101.91 4.26047V4.25047L101.89 4.24047C100.94 3.75047 99.77 4.13047 99.28 5.09047C99.16 5.33047 99.09 5.59047 99.07 5.84047C99.05 6.12047 99 6.45047 98.95 6.79047C98.86 7.38047 98.78 7.98047 98.73 8.57047C98.52 8.45047 98.33 8.32047 98.13 8.15047C97.33 7.44047 96.1 7.52047 95.39 8.32047C95.16 8.59047 95.01 8.90047 94.94 9.22047C94.62 10.4405 94.56 11.6205 94.65 12.7505C94.06 12.4205 93.49 12.0305 92.95 11.6505C92.08 11.0305 90.87 11.2405 90.26 12.1105C90.07 12.3905 89.95 12.6905 89.92 13.0105H89.91C89.87 13.3105 89.85 13.6305 89.84 13.9405C89.58 13.8905 89.3 13.8405 89.03 13.8005C89.09 13.5005 89.15 13.2005 89.19 12.8905C89.37 11.6605 89.38 10.3705 89.08 9.01047H89.07C89.01 8.73047 88.89 8.47047 88.7 8.23047C88.05 7.38047 86.84 7.24047 86 7.90047C85.76 8.09047 85.51 8.24047 85.25 8.36047C85.24 7.71047 85.18 7.06047 85.12 6.41047C85.09 6.10047 85.06 5.80047 85.04 5.42047C85.04 5.16047 84.99 4.90047 84.88 4.65047C84.45 3.67047 83.3 3.23047 82.32 3.66047L82.3 3.67047H82.29C81.73 3.92047 81.28 4.12047 80.83 4.23047C80.87 4.03047 80.9 3.84047 80.93 3.63047C81 3.25047 81.03 2.84047 81.05 2.42047ZM16.65 33.8205H18.03C17.09 32.5805 16.17 31.3305 15.27 30.0705C12.1 25.6305 9.23995 21.1305 6.63995 16.3405C5.86995 14.9205 5.12995 13.4905 4.41995 12.0405C4.31995 12.8605 6.28995 17.1605 7.74995 19.8905C10.37 24.7605 13.43 29.3505 16.65 33.8205ZM98.31 51.6105C98.57 50.7405 99.48 50.2405 100.35 50.4905C101.22 50.7505 101.72 51.6605 101.47 52.5305C100.79 54.8405 99.97 57.1505 99.01 59.4205C98.06 61.6605 96.99 63.8405 95.81 65.9205C95.36 66.7105 94.36 66.9905 93.57 66.5405C92.78 66.0905 92.5 65.0905 92.95 64.3005C94.08 62.3205 95.1 60.2605 95.98 58.1505C96.88 56.0205 97.66 53.8305 98.31 51.6105ZM90.88 67.6305C91.39 66.8705 92.41 66.6705 93.16 67.1805C93.92 67.6905 94.12 68.7105 93.61 69.4605C92.77 70.7105 91.89 71.9005 90.98 73.0305C90.08 74.1505 89.13 75.2105 88.15 76.2105C87.51 76.8605 86.47 76.8705 85.82 76.2305C85.17 75.5905 85.16 74.5505 85.8 73.9005C86.7 72.9805 87.58 72.0005 88.41 70.9605C89.28 69.9005 90.1 68.7805 90.88 67.6305ZM13.09 66.4505C18.55 75.1505 26.84 82.4705 38.6 88.0805H79.84C92.52 83.9105 101.46 77.2305 107.35 68.5005C112.96 60.1805 115.86 49.9605 116.61 38.2305H4.51995C5.24995 48.7205 7.92995 58.2305 13.09 66.4505Z" fill="white"/>
</g>
<defs>
<clipPath id="clip0_1815_251">
<rect width="122.88" height="100" fill="white"/>
</clipPath>
</defs>
</svg>
