<svg width="123" height="121" viewBox="0 0 123 121" fill="none" xmlns="http://www.w3.org/2000/svg">
<g clip-path="url(#clip0_1_26)">
<path fill-rule="evenodd" clip-rule="evenodd" d="M65.82 3.83C65.82 1.73 67.9 0 70.49 0C73.08 0 75.16 1.71 75.16 3.83V20.57C75.16 22.67 73.09 24.4 70.49 24.4C67.89 24.4 65.82 22.69 65.82 20.57V3.83ZM122.88 56.83L81 120.1L48.52 99.26H7.52C5.52455 99.2521 3.61338 98.4545 2.20425 97.0416C0.795119 95.6287 0.00262726 93.7155 0 91.72L0 17.35C0.00264583 15.3511 0.797886 13.4348 2.21134 12.0213C3.62479 10.6079 5.54108 9.81265 7.54 9.81H16.64C17.2978 9.85093 17.9152 10.1411 18.3666 10.6214C18.8179 11.1017 19.0691 11.7359 19.0691 12.395C19.0691 13.0541 18.8179 13.6883 18.3666 14.1686C17.9152 14.6489 17.2978 14.9391 16.64 14.98H7.54C7.2314 14.9793 6.92574 15.04 6.64078 15.1585C6.35581 15.2769 6.09721 15.4508 5.88 15.67C5.44001 16.1106 5.19199 16.7073 5.19 17.33V36.61H68.3L64.89 41.77H5.14V91.69C5.1409 92.3129 5.38908 92.91 5.83 93.35C6.27991 93.7709 6.87392 94.0035 7.49 94H46.41H49.83L74.27 109.52L74.57 109.73C75.6908 110.424 77.0404 110.648 78.3252 110.352C79.6099 110.056 80.7258 109.265 81.43 108.15L82.77 106H82.84L89.15 95.8L117.85 53.58L122.85 56.8L122.88 56.83ZM13.56 73.65H24.26C24.5871 73.65 24.901 73.7793 25.1333 74.0096C25.3656 74.24 25.4974 74.5529 25.5 74.88V82.79C25.4922 83.1136 25.3581 83.4214 25.1264 83.6475C24.8947 83.8736 24.5837 84.0001 24.26 84H13.56C13.2329 84 12.919 83.8707 12.6867 83.6404C12.4544 83.41 12.3226 83.0971 12.32 82.77V74.88C12.32 74.7176 12.3521 74.5569 12.4146 74.407C12.477 74.2571 12.5685 74.1211 12.6838 74.0067C12.7991 73.8924 12.9358 73.802 13.0862 73.7407C13.2366 73.6795 13.3976 73.6487 13.56 73.65ZM54.56 51.11H58.7L53.29 59.3V52.36C53.29 52.0302 53.4203 51.7138 53.6526 51.4796C53.8848 51.2455 54.2002 51.1126 54.53 51.11H54.56ZM34 51.11H44.7C44.8675 51.1033 45.0346 51.1303 45.1914 51.1895C45.3482 51.2487 45.4915 51.3388 45.6128 51.4545C45.7341 51.5702 45.8309 51.7091 45.8974 51.8629C45.9639 52.0167 45.9988 52.1824 46 52.35V60.26C45.9974 60.5871 45.8656 60.9 45.6333 61.1304C45.401 61.3607 45.0871 61.49 44.76 61.49H34C33.6738 61.49 33.3609 61.3604 33.1303 61.1297C32.8996 60.8991 32.77 60.5862 32.77 60.26V52.35C32.77 52.0229 32.8993 51.709 33.1296 51.4767C33.36 51.2444 33.6729 51.1126 34 51.11ZM13.52 51.11H24.22C24.5481 51.1126 24.8619 51.2441 25.0939 51.4761C25.3259 51.7081 25.4574 52.0219 25.46 52.35V60.26C25.4574 60.5871 25.3256 60.9 25.0933 61.1304C24.861 61.3607 24.5471 61.49 24.22 61.49H13.56C13.2329 61.49 12.919 61.3607 12.6867 61.1304C12.4544 60.9 12.3226 60.5871 12.32 60.26V52.35C12.3226 52.0219 12.4541 51.7081 12.6861 51.4761C12.9181 51.2441 13.2319 51.1126 13.56 51.11H13.52ZM34 73.65H43.8L38.51 81.65C38.0484 82.3724 37.7419 83.1829 37.61 84.03H34C33.6738 84.03 33.3609 83.9004 33.1303 83.6697C32.8996 83.4391 32.77 83.1262 32.77 82.8V74.88C32.7687 74.7181 32.7996 74.5576 32.8609 74.4077C32.9223 74.2579 33.0128 74.1218 33.1273 74.0073C33.2418 73.8928 33.3779 73.8023 33.5277 73.7409C33.6776 73.6796 33.8381 73.6487 34 73.65ZM23.9 3.83C23.9 1.73 26 0 28.57 0C31.14 0 33.24 1.71 33.24 3.83V20.57C33.24 22.67 31.16 24.4 28.57 24.4C25.98 24.4 23.9 22.69 23.9 20.57V3.83ZM94 19.78V17.33C94.0014 17.0222 93.9421 16.7171 93.8254 16.4323C93.7087 16.1474 93.537 15.8884 93.32 15.67C92.8807 15.2489 92.2984 15.0095 91.69 15H83.17C82.817 15.022 82.4633 14.9714 82.1306 14.8514C81.7979 14.7315 81.4933 14.5446 81.2355 14.3024C80.9778 14.0602 80.7724 13.7678 80.632 13.4432C80.4916 13.1186 80.4191 12.7687 80.4191 12.415C80.4191 12.0613 80.4916 11.7114 80.632 11.3868C80.7724 11.0622 80.9778 10.7698 81.2355 10.5276C81.4933 10.2854 81.7979 10.0985 82.1306 9.97857C82.4633 9.8586 82.817 9.80803 83.17 9.83H91.69C93.6889 9.83265 95.6052 10.6279 97.0187 12.0413C98.4321 13.4548 99.2274 15.3711 99.23 17.37V23.13L94 19.78ZM40.7 15C40.0131 15 39.3543 14.7271 38.8686 14.2414C38.3829 13.7557 38.11 13.0969 38.11 12.41C38.11 11.7231 38.3829 11.0643 38.8686 10.5786C39.3543 10.0929 40.0131 9.82 40.7 9.82H58.05C58.7369 9.82 59.3957 10.0929 59.8814 10.5786C60.3671 11.0643 60.64 11.7231 60.64 12.41C60.64 13.0969 60.3671 13.7557 59.8814 14.2414C59.3957 14.7271 58.7369 15 58.05 15H40.7ZM119 43.09L77.1 106.38L43.71 85L85.57 21.68L119 43.09ZM88.44 60.37C89.3262 61.9119 89.7356 63.6819 89.6167 65.4563C89.4978 67.2308 88.8558 68.9302 87.7718 70.3401C86.6878 71.75 85.2104 72.8072 83.5261 73.3781C81.8418 73.949 80.0261 74.0082 78.3082 73.548C76.5903 73.0879 75.0473 72.1291 73.8739 70.7927C72.7004 69.4563 71.9493 67.8022 71.7152 66.0392C71.481 64.2763 71.7745 62.4835 72.5585 60.8871C73.3424 59.2908 74.5818 57.9625 76.12 57.07C77.145 56.4753 78.2773 56.0888 79.4521 55.9328C80.6268 55.7768 81.8208 55.8543 82.9655 56.161C84.1101 56.4676 85.183 56.9972 86.1225 57.7195C87.062 58.4418 87.8495 59.3425 88.44 60.37ZM107 50.57L78.93 92.33C77.6187 91.4961 76.0305 91.2152 74.5127 91.5488C72.9949 91.8823 71.6709 92.8032 70.83 94.11L57.62 85.66C58.4565 84.3494 58.7389 82.7604 58.4052 81.2419C58.0715 79.7233 57.149 78.3991 55.84 77.56L83.92 35.78C85.2282 36.6129 86.8133 36.8932 88.3278 36.5596C89.8423 36.2259 91.1629 35.3055 92 34L105.21 42.45C104.371 43.7642 104.088 45.3579 104.423 46.8807C104.759 48.4034 105.686 49.7305 107 50.57Z" fill="white"/>
</g>
<defs>
<clipPath id="clip0_1_26">
<rect width="122.88" height="120.1" fill="white"/>
</clipPath>
</defs>
</svg>
