<svg width="512" height="512" viewBox="0 0 512 512" fill="none" xmlns="http://www.w3.org/2000/svg">
<g clip-path="url(#clip0_11_57)">
<mask id="mask0_11_57" style="mask-type:luminance" maskUnits="userSpaceOnUse" x="0" y="0" width="512" height="512">
<path d="M512 0H0V512H512V0Z" fill="white"/>
</mask>
<g mask="url(#mask0_11_57)">
<path d="M176.145 332.167C169.914 332.167 164.902 326.625 164.902 319.792C164.902 312.958 169.959 307.417 176.145 307.417H237.69C243.921 307.417 248.934 312.958 248.934 319.792C248.934 326.625 243.876 332.167 237.69 332.167H176.145ZM386.788 280.875C421.376 280.875 452.666 293.792 475.336 314.708C498.001 335.625 512 364.5 512 396.417C512 428.334 498.001 457.208 475.336 478.125C452.666 499.042 421.376 511.959 386.788 511.959C352.2 511.959 320.909 499.042 298.242 478.125C275.574 457.208 261.577 428.334 261.577 396.417C261.577 364.5 275.574 335.625 298.242 314.708C320.909 293.792 352.2 280.875 386.788 280.875ZM377.216 342.375C377.216 336.667 382.228 332.042 388.414 332.042C394.6 332.042 399.612 336.667 399.612 342.375V396.208L443.23 420.042C448.558 422.917 450.319 429.25 447.159 434.167C444.041 439.084 437.181 440.709 431.853 437.792L383.312 411.25C379.699 409.542 377.216 406.084 377.216 402.042V342.375ZM459.53 329.333C440.928 312.167 415.19 301.542 386.788 301.542C358.386 301.542 332.649 312.167 314.045 329.333C295.442 346.5 283.928 370.25 283.928 396.458C283.928 422.667 295.442 446.417 314.045 463.583C332.649 480.75 358.386 491.375 386.788 491.375C415.19 491.375 440.928 480.75 459.53 463.583C478.133 446.417 489.647 422.667 489.647 396.458C489.647 370.25 478.133 346.5 459.53 329.333ZM199.128 458.083C206.534 458.083 212.54 463.625 212.54 470.458C212.54 477.292 206.534 482.833 199.128 482.833H31.2465C22.6672 482.833 14.8556 479.583 9.16626 474.375C3.522 469.167 0 461.958 0 454.042V28.8333C0 20.875 3.522 13.7083 9.16626 8.45834C14.8105 3.25 22.6221 0 31.2465 0H414.603C423.183 0 430.996 3.25 436.682 8.45834C442.326 13.6667 445.848 20.875 445.848 28.8333V225.833C445.848 232.667 439.845 238.209 432.44 238.209C425.035 238.209 419.028 232.667 419.028 225.833V28.8333C419.028 27.75 418.533 26.75 417.717 26C416.905 25.25 415.822 24.7917 414.648 24.7917H31.2465C30.0725 24.7917 28.9436 25.25 28.176 26C27.3181 26.7083 26.8214 27.7083 26.8214 28.8333V454.042C26.8214 455.125 27.3181 456.167 28.1309 456.875C28.9436 457.625 30.0273 458.083 31.2013 458.083H199.128ZM86.3344 302.042H119.974C122.412 302.042 124.399 303.875 124.399 306.125V337.167C124.399 339.417 122.412 341.25 119.974 341.25H86.3344C83.896 341.25 81.9092 339.417 81.9092 337.167V306.125C81.9541 303.834 83.9409 302.042 86.3344 302.042ZM86.3344 89.5416H119.974C122.412 89.5416 124.399 91.3751 124.399 93.6248V124.667C124.399 126.917 122.412 128.75 119.974 128.75H86.3344C83.896 128.75 81.9092 126.917 81.9092 124.667V93.6248C81.9541 91.3751 83.9409 89.5416 86.3344 89.5416ZM176.145 119.667C169.914 119.667 164.902 114.125 164.902 107.292C164.902 100.458 169.959 94.9166 176.145 94.9166H336.261C342.492 94.9166 347.504 100.458 347.504 107.292C347.504 114.125 342.447 119.667 336.261 119.667H176.145ZM100.106 233.917C97.2163 236.042 93.062 235.5 90.127 232.875C89.811 232.667 89.4951 232.417 89.1787 232.125L75.0908 218.708C72.1558 215.875 72.833 211.167 76.626 208.167C80.419 205.167 85.8828 205 88.8628 207.834L96.5391 215.125L121.238 196.792C124.535 194.333 129.592 195.417 132.481 199.166C135.372 202.917 135.01 207.959 131.714 210.417L100.106 233.917ZM168.74 223.542C162.509 223.542 157.497 218 157.497 211.167C157.497 204.334 162.554 198.792 168.74 198.792H328.856C335.087 198.792 340.099 204.334 340.099 211.167C340.099 218 335.042 223.542 328.856 223.542H168.74Z" fill="white"/>
</g>
</g>
<defs>
<clipPath id="clip0_11_57">
<rect width="512" height="512" fill="white"/>
</clipPath>
</defs>
</svg>
