<svg width="512" height="512" viewBox="0 0 512 512" fill="none" xmlns="http://www.w3.org/2000/svg">
<mask id="mask0_11_69" style="mask-type:luminance" maskUnits="userSpaceOnUse" x="0" y="0" width="512" height="511">
<path d="M511.501 0H0V510.862H511.501V0Z" fill="white"/>
</mask>
<g mask="url(#mask0_11_69)">
<path fill-rule="evenodd" clip-rule="evenodd" d="M87.9558 397.559H422.005L474.204 232.913C476.909 233.908 479.823 234.43 482.82 234.43C498.638 234.43 511.5 219.828 511.5 201.766C511.5 183.751 498.68 169.102 482.82 169.102C467.002 169.102 454.14 183.704 454.14 201.766C454.14 208.877 456.138 215.419 459.51 220.776L429.872 248.557C388.371 287.431 362.354 269.416 370.472 209.019L375.05 175.028C376.632 175.36 378.297 175.502 379.962 175.502C395.78 175.502 408.643 160.901 408.643 142.839C408.643 124.824 395.822 110.175 379.962 110.175C364.144 110.175 351.282 124.776 351.282 142.839C351.282 153.126 355.486 162.323 362.021 168.296L354.903 181.096C320.021 240.735 294.296 217.884 284.014 158.957L265.657 62.6726C275.939 57.6948 283.182 46.1274 283.182 32.5689C283.182 14.5541 270.361 -0.0947876 254.501 -0.0947876C238.684 -0.0947876 225.821 14.5067 225.821 32.5689C225.821 47.6445 234.771 60.3022 246.926 64.0948L235.02 118.993C224.697 169.292 212.334 269.511 156.431 184.083L147.314 169.956C154.516 164.03 159.219 154.359 159.219 143.455C159.219 125.44 146.399 110.791 130.539 110.791C114.721 110.791 101.859 125.393 101.859 143.455C101.859 161.47 114.68 176.119 130.539 176.119C132.745 176.119 134.91 175.834 136.991 175.265L138.906 197.452C142.652 227.745 147.439 268.753 116.886 266.809C101.734 265.861 96.0312 259.982 84.4592 250.596L51.4081 223.905C55.1128 218.406 57.319 211.532 57.319 204.041C57.319 186.027 44.4982 171.378 28.6387 171.378C12.8208 171.378 -0.041626 185.979 -0.041626 204.041C-0.041626 222.104 12.7792 236.705 28.6387 236.705C32.385 236.705 35.9232 235.899 39.2117 234.43L87.9558 397.559ZM87.706 443.117H422.837V510.862H87.706V443.117Z" fill="white"/>
</g>
</svg>
