<svg width="123" height="78" viewBox="0 0 123 78" fill="none" xmlns="http://www.w3.org/2000/svg">
<g clip-path="url(#clip0_11_87)">
<path fill-rule="evenodd" clip-rule="evenodd" d="M24.94 45.15L30.48 61.44L33.27 51.77L31.9 50.28C31.28 49.38 31.15 48.6 31.49 47.92C32.23 46.46 33.76 46.73 35.19 46.73C36.69 46.73 38.54 46.45 39.01 48.32C39.17 48.95 38.97 49.6 38.53 50.28L37.16 51.77L39.95 61.44L44.97 45.15C48.59 48.41 59.3 49.06 63.29 51.28C64.55 51.98 65.69 52.88 66.6 54.09C67.99 55.92 68.84 58.32 69.07 61.36L69.9 73.79C69.7 75.94 68.48 77.18 66.07 77.37H35.21H3.83C1.42 77.18 0.2 75.94 0 73.79L0.83 61.36C1.06 58.32 1.91 55.92 3.3 54.09C4.22 52.88 5.35 51.99 6.62 51.28C10.61 49.06 21.32 48.41 24.94 45.15ZM74.92 32.57L78.07 32.49L80.69 32.42C77.63 23.01 78.66 14.37 86.01 7.03003C87.26 11.06 90.06 14.39 94.81 16.85C97.09 18.54 99.29 20.58 101.42 22.93C101.8 21.38 100.36 19.49 98.61 17.54C100.23 18.34 101.71 19.46 102.77 21.61C103.99 24.1 103.98 26.21 103.57 28.91C103.38 30.17 103.07 31.34 102.64 32.42H106.99C111.58 22.59 108.67 8.00003 99.28 1.82003C96.4 -0.0699722 94.33 2.77603e-05 90.95 2.77603e-05C87.08 2.77603e-05 85.1 0.120028 81.79 2.31003C76.9 5.54003 73.9 11.13 72.64 18.9C72.38 22.77 72.21 29.46 74.92 32.57ZM86.89 50.46L89.24 42.3L88.09 41.04C87.57 40.28 87.46 39.62 87.75 39.05C88.37 37.82 89.67 38.05 90.87 38.05C92.13 38.05 93.69 37.81 94.09 39.39C94.22 39.92 94.06 40.47 93.69 41.04L92.54 42.3L94.89 50.46L90.89 53.62L86.89 50.46ZM107.92 47.63C106.14 44.06 103.88 41.02 101.25 38.18C106.2 40.1 111.26 41.99 115.01 44.34C117.39 45.83 118.63 46.96 119.59 48.77C121.64 52.62 121.86 56.07 122.17 60.24L122.89 67.45H90.89H75.23C75.04 62.99 75.24 59.68 73.76 55.4C73.14 53.61 72.29 52.01 71.23 50.6C70.52 49.66 69.69 48.82 68.77 48.05C67.91 47.33 67.01 46.73 66.1 46.22C65.72 46.01 65.32 45.81 64.9 45.63C65.44 45.21 66.06 44.79 66.78 44.34C70.53 41.99 75.58 40.1 80.54 38.18C77.91 41.03 75.65 44.06 73.87 47.63L79.03 47.5L90.9 57.82L102.77 47.5L107.92 47.63ZM22.11 22C21.61 22.05 21.23 22.17 20.95 22.36C20.77 22.48 20.64 22.63 20.55 22.82C20.45 23.03 20.41 23.29 20.42 23.58C20.45 24.49 20.93 25.7 21.87 27.09L21.89 27.11L24.99 32.03C26.23 34 27.52 36 29.13 37.47C30.66 38.87 32.52 39.82 34.97 39.82C37.63 39.83 39.57 38.84 41.15 37.36C42.8 35.81 44.12 33.68 45.41 31.55L48.89 25.82C49.6 24.21 49.81 23.22 49.58 22.75C49.45 22.48 48.97 22.38 48.19 22.42C47.65 22.58 47.02 22.56 46.28 22.36L47.69 16.95C41.31 16.87 36.95 15.76 31.79 12.46C30.09 11.38 29.58 10.14 27.89 10.26C26.61 10.51 25.53 11.08 24.68 12C23.86 12.88 23.24 14.09 22.84 15.63L23.87 22.03C23.17 22.18 22.59 22.15 22.11 22ZM49.82 20.57C50.55 20.79 51.08 21.21 51.4 21.86C51.92 22.91 51.71 24.47 50.73 26.7C50.71 26.74 50.69 26.78 50.67 26.82L47.14 32.63C45.77 34.88 44.39 37.13 42.53 38.87C40.6 40.68 38.21 41.89 34.95 41.88C31.91 41.87 29.61 40.71 27.74 38.99C25.93 37.34 24.56 35.22 23.25 33.14L20.16 28.22C19.01 26.51 18.42 24.94 18.38 23.65C18.36 23.03 18.47 22.47 18.7 21.97C18.94 21.45 19.31 21.01 19.82 20.67C20.06 20.51 20.34 20.37 20.64 20.26C20.45 17.61 20.38 14.32 20.51 11.56C20.58 10.89 20.7 10.22 20.89 9.55003C21.68 6.72003 23.67 4.45003 26.12 2.88003C26.99 2.33003 27.93 1.87003 28.94 1.51003C34.89 -0.639972 42.77 0.530027 46.99 5.10003C48.71 6.96003 49.79 9.43003 50.02 12.69L49.82 20.57Z" fill="white"/>
</g>
<defs>
<clipPath id="clip0_11_87">
<rect width="122.88" height="77.36" fill="white"/>
</clipPath>
</defs>
</svg>
