<svg width="512" height="512" viewBox="0 0 512 512" fill="none" xmlns="http://www.w3.org/2000/svg">
<g clip-path="url(#clip0_11_63)">
<mask id="mask0_11_63" style="mask-type:luminance" maskUnits="userSpaceOnUse" x="0" y="0" width="512" height="512">
<path d="M512 0H0V512H512V0Z" fill="white"/>
</mask>
<g mask="url(#mask0_11_63)">
<path d="M108.405 250.25C105.61 256 98.5804 258.417 92.7369 255.667C86.8931 252.917 84.4371 246.042 87.2319 240.25C93.4142 227.5 101.036 215.542 109.844 204.541C118.737 193.458 128.815 183.417 139.867 174.583C144.906 170.542 152.317 171.292 156.382 176.25C160.49 181.209 159.727 188.5 154.688 192.5C144.906 200.333 136.014 209.167 128.265 218.833C120.515 228.541 113.867 239.042 108.405 250.25ZM401.224 388.625L414.859 428.125L421.717 404.667L418.375 401.042C416.851 398.875 416.51 396.958 417.359 395.333C419.178 391.792 422.945 392.458 426.463 392.458C430.147 392.458 434.721 391.792 435.862 396.334C436.245 397.833 435.779 399.458 434.676 401.083L431.333 404.708L438.193 428.167L450.556 388.667C459.493 396.583 485.871 398.167 495.695 403.542C498.788 405.25 501.627 407.417 503.87 410.333C507.3 414.792 509.373 420.583 509.969 427.958L512 449.417C511.492 454.625 508.487 457.625 502.555 458.083H426.504H349.181C343.253 457.625 340.246 454.625 339.738 449.417L341.771 427.958C342.364 420.583 344.439 414.792 347.869 410.333C350.113 407.417 352.95 405.25 356.041 403.542C365.908 398.125 392.289 396.541 401.224 388.625ZM61.4433 388.625L75.0788 428.125L81.9387 404.667L78.5932 401.042C77.0689 398.875 76.7301 396.958 77.5772 395.333C79.3979 391.792 83.1667 392.458 86.6812 392.458C90.3655 392.458 94.9385 391.792 96.082 396.334C96.4633 397.833 95.9975 399.458 94.8965 401.083L91.551 404.708L98.411 428.167L110.776 388.667C119.711 396.583 146.092 398.167 155.916 403.542C159.008 405.25 161.845 407.417 164.089 410.333C167.519 414.792 169.594 420.583 170.187 427.958L172.219 449.417C171.711 454.625 168.705 457.625 162.776 458.083H86.7661H9.44307C3.51468 457.625 0.508145 454.625 0 449.417L2.03259 427.958C2.62542 420.583 4.70037 414.792 8.13035 410.333C10.3747 407.417 13.2118 405.25 16.303 403.542C26.1272 398.125 52.5508 396.541 61.4433 388.625ZM54.9647 332.167C56.0232 332.458 57.0818 332.458 58.1828 332.25L56.2351 317.083C57.2512 313.333 58.7755 310.417 60.7657 308.292C62.8832 306.042 65.5085 304.667 68.6846 304.083C72.8767 303.792 74.1472 306.792 78.2969 309.416C91.0007 317.416 101.756 320.125 117.467 320.292L115.519 329.917C115.222 330.333 115.095 330.833 115.138 331.375C115.138 331.459 115.18 331.583 115.18 331.666L114.926 333C115.349 333.042 115.773 333.042 116.154 333.042C116.535 333.292 117.043 333.416 117.551 333.375C120.261 333.125 121.955 333.375 122.379 334.291C123.014 335.5 122.463 338 120.685 342L112.088 355.917C108.913 361.083 105.652 366.291 101.545 370.083C97.6063 373.708 92.7369 376.125 86.0884 376.125C79.9486 376.125 75.3327 373.792 71.4794 370.333C67.4987 366.75 64.2806 361.875 61.2315 357.083L53.6093 345.125L53.5673 345.083C51.2383 341.667 50.0099 338.666 49.9254 336.417C49.883 335.667 50.0099 335 50.2642 334.417C50.4757 333.917 50.857 333.5 51.3653 333.209C52.2544 332.583 53.4399 332.25 54.9647 332.167ZM122.76 329.333L123.225 309.917C122.633 302 120.007 296.041 115.773 291.5C105.356 280.417 85.9615 277.583 71.2675 282.792C68.8115 283.666 66.4401 284.792 64.323 286.125C58.2673 289.916 53.3979 295.417 51.4498 302.291C50.984 303.917 50.6876 305.542 50.5182 307.167C50.1793 313.958 50.3912 322.125 50.857 328.583C50.1793 328.834 49.5441 329.167 48.9938 329.542C47.8083 330.333 46.9188 331.333 46.3685 332.583C45.8178 333.75 45.5638 335.042 45.6063 336.5C45.6908 339.583 47.1306 343.333 49.9679 347.459L57.59 359.375C60.8081 364.416 64.1961 369.542 68.5997 373.5C73.1731 377.625 78.7627 380.417 86.1733 380.417C94.1343 380.417 99.9353 377.542 104.636 373.209C109.167 369.042 112.597 363.583 115.942 358.125L124.623 344.041C124.665 343.959 124.708 343.875 124.75 343.792C127.121 338.458 127.63 334.792 126.402 332.334C125.639 330.833 124.453 329.875 122.76 329.333ZM230.233 51.8748C231.291 52.1666 232.35 52.1666 233.451 51.9583L231.503 36.7916C232.477 33.0417 234.001 30.125 236.034 28C238.151 25.75 240.777 24.375 243.953 23.7917C248.145 23.5 249.415 26.5 253.565 29.125C266.269 37.125 277.024 39.8333 292.735 40L290.787 49.625C290.49 50.0416 290.364 50.5417 290.406 51.0834C290.406 51.1667 290.448 51.2916 290.448 51.3751L290.194 52.7083C290.617 52.7498 291.041 52.7498 291.422 52.7498C291.803 53.0002 292.311 53.1251 292.819 53.0831C295.53 52.8333 297.223 53.0831 297.647 53.9581C298.282 55.1665 297.731 57.6665 295.953 61.6668L287.357 75.5835C284.181 80.7501 280.92 85.9581 276.813 89.75C272.875 93.375 268.005 95.7916 261.357 95.7916C255.217 95.7916 250.601 93.4584 246.747 89.9999C242.767 86.4169 239.549 81.5416 236.5 76.7498L228.878 64.7915L228.835 64.7501C226.506 61.3335 225.278 58.3332 225.193 56.0834C225.151 55.3334 225.278 54.6667 225.532 54.0836C225.744 53.5833 226.125 53.1666 226.633 52.8747C227.523 52.2916 228.708 51.9583 230.233 51.8748ZM236.712 108.334L250.347 147.833L257.207 124.375L253.862 120.75C252.337 118.583 251.998 116.667 252.845 115.042C254.666 111.5 258.435 112.167 261.95 112.167C265.633 112.167 270.207 111.5 271.35 116.042C271.731 117.542 271.266 119.166 270.164 120.792L266.819 124.416L273.679 147.875L286.086 108.334C295.021 116.25 321.403 117.833 331.227 123.208C334.318 124.917 337.155 127.084 339.399 130C342.829 134.458 344.904 140.25 345.497 147.625L347.53 169.083C347.022 174.291 344.015 177.292 338.087 177.75H262.034H184.711C178.783 177.292 175.776 174.291 175.268 169.083L177.301 147.625C177.894 140.25 179.968 134.458 183.398 130C185.643 127.084 188.48 124.917 191.571 123.208C201.395 117.833 227.819 116.25 236.712 108.334ZM298.028 49.0833L298.494 29.6666C297.901 21.75 295.275 15.7917 291.041 11.25C280.624 0.16666 261.229 -2.66667 246.536 2.54166C244.08 3.41666 241.751 4.54166 239.591 5.87498C233.578 9.62497 228.666 15.1667 226.718 22C226.252 23.625 225.956 25.25 225.787 26.875C225.448 33.6667 225.66 41.8333 226.125 48.2917C225.448 48.5417 224.813 48.875 224.262 49.25C223.076 50.0416 222.187 51.0417 221.636 52.2916C221.086 53.4584 220.832 54.7502 220.874 56.2084C220.959 59.2916 222.399 63.0415 225.236 67.1667L232.858 79.0835C236.077 84.1252 239.464 89.2498 243.868 93.2086C248.441 97.3332 254.031 100.125 261.441 100.125C269.402 100.125 275.204 97.2498 279.904 92.9167C284.435 88.7081 287.865 83.2916 291.21 77.8332L299.891 63.7501C299.933 63.6667 299.976 63.5832 300.018 63.4998C302.39 58.1668 302.898 54.4998 301.67 52.0417C300.907 50.5417 299.722 49.5833 298.028 49.0833ZM394.703 332.167C393.179 332.25 392.035 332.583 391.188 333.125C390.68 333.458 390.341 333.875 390.087 334.333C389.833 334.875 389.706 335.542 389.749 336.333C389.833 338.625 391.019 341.583 393.39 345L393.432 345.042L401.055 357C404.104 361.791 407.322 366.667 411.302 370.25C415.113 373.708 419.773 376 425.913 376.041C432.561 376.041 437.431 373.625 441.369 370C445.473 366.209 448.737 361.042 451.913 355.833L460.509 341.917C462.286 337.916 462.836 335.417 462.203 334.208C461.737 333.292 460.084 333.083 457.374 333.292C456.866 333.333 456.4 333.209 455.976 332.958C455.555 332.958 455.131 332.958 454.748 332.917L455.001 331.583C454.96 331.5 454.96 331.417 454.96 331.292C454.918 330.75 455.047 330.25 455.343 329.833L457.291 320.208C441.581 320 430.825 317.333 418.121 309.333C413.928 306.708 412.7 303.708 408.507 304C405.332 304.583 402.706 306 400.589 308.208C398.556 310.333 397.032 313.25 396.058 317L398.006 332.167C396.82 332.458 395.761 332.416 394.703 332.167ZM462.498 329.333C464.193 329.833 465.379 330.791 466.141 332.292C467.369 334.75 466.861 338.458 464.488 343.75C464.446 343.834 464.405 343.917 464.363 344L455.68 358.084C452.333 363.5 448.903 368.958 444.374 373.167C439.675 377.5 433.872 380.416 425.913 380.375C418.5 380.375 412.911 377.583 408.338 373.458C403.934 369.5 400.546 364.334 397.328 359.333L389.706 347.417C386.911 343.292 385.471 339.541 385.344 336.458C385.302 335 385.556 333.667 386.107 332.541C386.699 331.333 387.547 330.292 388.732 329.5C389.283 329.125 389.918 328.834 390.595 328.542C390.087 322.083 389.918 313.958 390.256 307.125C390.426 305.5 390.722 303.875 391.188 302.25C393.136 295.417 398.048 289.875 404.061 286.084C406.178 284.75 408.55 283.625 411.006 282.75C425.659 277.542 445.094 280.375 455.509 291.459C459.747 295.959 462.415 301.958 462.965 309.875L462.498 329.333ZM370.524 194.5C365.569 190.417 364.934 183.125 369.084 178.25C373.234 173.375 380.644 172.75 385.598 176.834C387.97 178.791 389.833 180.375 391.23 181.625C392.924 183.125 394.703 184.834 396.651 186.666C403.765 193.583 410.328 200.916 416.172 208.667C422.017 216.417 427.349 224.667 432.053 233.375C435.058 239.042 432.856 246.042 427.141 249C421.38 251.958 414.267 249.791 411.26 244.167C407.237 236.667 402.579 229.416 397.328 222.542C392.035 215.583 386.319 209.083 380.178 203.167C378.781 201.791 377.172 200.333 375.435 198.75C373.361 196.917 371.709 195.5 370.524 194.5ZM315.517 480.167C321.657 478.125 328.305 481.417 330.38 487.458C332.455 493.5 329.109 500.042 322.97 502.084C313.187 505.333 303.067 507.833 292.65 509.458C282.36 511.125 271.901 511.958 261.399 511.958C250.686 511.958 240.057 511.083 229.597 509.375C218.884 507.625 208.552 505.042 198.685 501.708C192.545 499.625 189.242 493.042 191.359 487C193.477 480.958 200.167 477.708 206.308 479.792C215.115 482.75 224.177 485.042 233.324 486.542C242.344 488 251.702 488.792 261.357 488.792C270.842 488.792 280.031 488.041 288.839 486.625C298.028 485.209 306.921 483 315.517 480.167Z" fill="white"/>
</g>
</g>
<defs>
<clipPath id="clip0_11_63">
<rect width="512" height="512" fill="white"/>
</clipPath>
</defs>
</svg>
