<svg width="123" height="120" viewBox="0 0 123 120" fill="none" xmlns="http://www.w3.org/2000/svg">
<g clip-path="url(#clip0_213_1285)">
<path d="M20.0004 52C19.4874 53.0022 18.6034 53.7646 17.5367 54.1247C16.4699 54.4848 15.3047 54.4142 14.2893 53.928C13.2738 53.4417 12.4883 52.5783 12.1 51.5215C11.7117 50.4647 11.7513 49.298 12.2104 48.27C13.0427 46.4925 13.9741 44.7631 15.0004 43.09C16.0455 41.4197 17.1805 39.8073 18.4004 38.26L18.4604 38.18C19.6607 36.6709 20.9391 35.2256 22.2904 33.85C23.6702 32.4386 25.1256 31.1033 26.6504 29.85C27.5375 29.1384 28.669 28.8043 29.8004 28.92C30.3612 28.9764 30.9054 29.1433 31.4014 29.4111C31.8974 29.6788 32.3355 30.0421 32.6904 30.48C33.4021 31.3671 33.7361 32.4986 33.6204 33.63C33.564 34.1909 33.3971 34.735 33.1294 35.231C32.8616 35.727 32.4983 36.1651 32.0604 36.52C30.773 37.5645 29.5444 38.6796 28.3804 39.86C24.9304 43.4117 22.0981 47.5149 20.0004 52ZM8.91041 95.49L9.16041 95.3C11.7304 93.77 15.6204 94.17 18.1604 92.4C18.3455 92.1122 18.5029 91.8075 18.6304 91.49C18.8704 90.95 19.0804 90.36 19.2204 89.96C18.6554 89.2643 18.1407 88.5291 17.6804 87.76L16.1204 85.28C15.6206 84.6158 15.3128 83.8272 15.2304 83C15.2152 82.7187 15.2666 82.4377 15.3804 82.18C15.4936 81.9266 15.6777 81.7113 15.9104 81.56C16.0297 81.4829 16.1571 81.4192 16.2904 81.37C16.1866 79.8857 16.1632 78.3969 16.2204 76.91C16.3063 76.0078 16.6084 75.1396 17.101 74.3789C17.5936 73.6182 18.2623 72.9875 19.0504 72.54C19.7314 72.1019 20.4725 71.765 21.2504 71.54C21.7504 71.4 20.8304 69.82 21.3404 69.77C23.8204 69.51 27.8304 71.77 29.5504 73.64C30.497 74.6958 31.039 76.0527 31.0804 77.47L30.9904 81.47C31.1922 81.5223 31.3756 81.6294 31.5203 81.7794C31.665 81.9294 31.7654 82.1165 31.8104 82.32C31.8939 83.0575 31.7435 83.8027 31.3804 84.45L29.6104 87.38C29.004 88.4621 28.2723 89.4691 27.4304 90.38C27.5012 90.4972 27.578 90.6107 27.6604 90.72C28.0005 91.2544 28.3887 91.7565 28.8204 92.22C30.8204 93.67 35.8204 94.02 37.7604 95.08H37.8304L38.0704 95.27C41.1432 91.6274 42.7441 86.9682 42.5591 82.2062C42.3741 77.4443 40.4165 72.9232 37.0704 69.53L37.0004 69.64C33.5053 66.1966 28.8197 64.2294 23.914 64.1459C19.0083 64.0624 14.2584 65.8689 10.6481 69.1913C7.03782 72.5137 4.84371 77.0974 4.52022 81.9931C4.19673 86.8889 5.76865 91.7215 8.91041 95.49ZM23.5004 59.65C26.5858 59.6456 29.6416 60.2512 32.4922 61.4319C35.3427 62.6127 37.9318 64.3452 40.1104 66.53L40.2404 66.67C44.5888 71.087 47.0152 77.0436 46.9909 83.2418C46.9665 89.44 44.4934 95.3774 40.1104 99.76L39.9704 99.89C37.2219 102.592 33.8506 104.577 30.1539 105.668C26.4572 106.76 22.5487 106.925 18.7731 106.149C14.9976 105.373 11.4709 103.68 8.50431 101.219C5.53769 98.7583 3.22223 95.6051 1.76218 92.0379C0.30212 88.4706 -0.257669 84.5989 0.132182 80.7642C0.522033 76.9295 1.84954 73.2496 3.99763 70.0492C6.14571 66.8487 9.04835 64.2261 12.4495 62.4125C15.8507 60.599 19.6459 59.6502 23.5004 59.65ZM85.5604 96.11C87.4704 94.43 91.5604 94.01 94.0704 92.53C96.2704 91.21 95.8904 89.88 95.8804 87.7H92.3904C83.3304 87.7 89.3004 88.41 90.5304 78.57C92.3704 64.67 106.37 64.66 108.44 78.57C109.76 88.04 115.44 87.7 106.57 87.7H103C103 90.11 102.61 91.34 105.11 92.7C106.97 93.7 111.2 94.35 113.23 96.03C116.632 92.4374 118.509 87.666 118.466 82.7186C118.423 77.7713 116.464 73.0332 113 69.5L112.88 69.4C109.318 65.8445 104.498 63.8376 99.4651 63.8152C94.4324 63.7927 89.5939 65.7565 86.0004 69.28L85.8904 69.4C82.3651 72.9321 80.3596 77.702 80.3017 82.692C80.2437 87.682 82.138 92.4971 85.5804 96.11H85.5604ZM99.3804 59.41C102.467 59.406 105.525 60.0117 108.377 61.1923C111.229 62.373 113.82 64.1054 116 66.29L116.12 66.43C120.473 70.8444 122.902 76.8008 122.88 82.9998C122.857 89.1987 120.384 95.1373 116 99.52L115.86 99.65C111.446 104.003 105.488 106.433 99.2886 106.409C93.0888 106.384 87.1505 103.908 82.7704 99.52L82.6404 99.39C78.2865 94.9739 75.8565 89.0147 75.8809 82.8132C75.9053 76.6118 78.382 70.6718 82.7704 66.29L82.9004 66.16C87.2918 61.8296 93.213 59.4043 99.3804 59.41ZM48.7204 35.84L48.9704 35.64C51.5504 34.12 55.4304 34.52 57.9704 32.75C58.1475 32.4577 58.3046 32.1537 58.4404 31.84C58.6704 31.3 58.8904 30.71 59.0204 30.31C58.4587 29.6118 57.9442 28.8768 57.4804 28.11L55.9204 25.63C55.4116 24.9719 55.0933 24.1867 55.0004 23.36C54.9864 23.082 55.0378 22.8046 55.1504 22.55C55.2673 22.2959 55.4547 22.0807 55.6904 21.93C55.8074 21.849 55.9354 21.785 56.0704 21.74C55.9615 20.2559 55.9381 18.7668 56.0004 17.28C56.0343 16.9418 56.0979 16.6071 56.1904 16.28C56.6283 14.874 57.5679 13.6781 58.8304 12.92C59.5149 12.4818 60.2593 12.1449 61.0404 11.92C61.5304 11.78 60.6204 10.2 61.1304 10.14C63.6004 9.89002 67.6104 12.14 69.3404 14.02C70.2768 15.0782 70.8174 16.4281 70.8704 17.84L70.7704 21.84C70.9722 21.8923 71.1556 21.9994 71.3003 22.1494C71.445 22.2994 71.5454 22.4865 71.5904 22.69C71.6739 23.4275 71.5235 24.1727 71.1604 24.82C71.1629 24.8366 71.1629 24.8534 71.1604 24.87L69.3804 27.8C68.7774 28.8843 68.0454 29.8916 67.2004 30.8L67.4304 31.14C67.7706 31.6712 68.1589 32.17 68.5904 32.63V32.68C70.5904 34.13 75.5904 34.48 77.5304 35.54H77.6004L77.8404 35.73C80.9089 32.0855 82.507 27.4271 82.322 22.6665C82.1371 17.9058 80.1824 13.3855 76.8404 9.99002L76.8204 10C73.3305 6.53211 68.6375 4.54382 63.7184 4.44908C58.7994 4.35434 54.0333 6.16044 50.4124 9.49139C46.7915 12.8223 44.5949 17.4215 44.2797 22.3313C43.9645 27.2412 45.5551 32.0834 48.7204 35.85V35.84ZM63.3104 2.36435e-05C66.3958 -0.00436128 69.4517 0.601218 72.3022 1.78194C75.1528 2.96266 77.7418 4.69523 79.9204 6.88002L80.0504 7.02002C84.4037 11.4345 86.8334 17.392 86.8091 23.5918C86.7847 29.7916 84.3082 35.7299 79.9204 40.11L79.7904 40.24C77.0422 42.9421 73.6713 44.9264 69.9751 46.0181C66.2789 47.1097 62.3708 47.2751 58.5956 46.4997C54.8203 45.7242 51.2939 44.0318 48.3272 41.5716C45.3605 39.1114 43.0447 35.9591 41.5841 32.3925C40.1234 28.826 39.5628 24.9548 39.9515 21.1204C40.3403 17.286 41.6666 13.6062 43.8134 10.4054C45.9603 7.20463 48.8617 4.58127 52.2618 2.76664C55.6619 0.952015 59.4563 0.00188051 63.3104 2.36435e-05ZM92.3104 37.29C91.6603 36.7399 91.1873 36.0098 90.9508 35.1916C90.7144 34.3734 90.7251 33.5036 90.9816 32.6914C91.238 31.8793 91.7288 31.1611 92.3923 30.6271C93.0557 30.093 93.8622 29.767 94.7104 29.69C95.8478 29.5976 96.9759 29.9568 97.8504 30.69L99.3704 32L100.86 33.42C101.86 34.42 102.86 35.42 103.72 36.42C104.58 37.42 105.45 38.48 106.24 39.54C107.03 40.6 107.83 41.76 108.56 42.92C109.29 44.08 109.98 45.26 110.56 46.44V46.56C110.927 47.3158 111.065 48.1622 110.957 48.9953C110.85 49.8285 110.501 50.6119 109.954 51.2494C109.406 51.8868 108.685 52.3505 107.878 52.5833C107.071 52.8162 106.213 52.8081 105.41 52.56C104.372 52.2142 103.508 51.4794 103 50.51C102.48 49.51 101.9 48.51 101.29 47.57C100.68 46.63 100.02 45.65 99.3504 44.76C98.6804 43.87 97.9004 42.94 97.1204 42C96.3404 41.06 95.6004 40.32 94.8204 39.55C94.0404 38.78 93.1704 38 92.2904 37.25L92.3104 37.29ZM76.0504 109C76.5852 108.82 77.1504 108.747 77.7134 108.787C78.2764 108.826 78.826 108.977 79.3304 109.23H79.4104C80.3999 109.746 81.1522 110.623 81.5104 111.68C81.862 112.761 81.7723 113.937 81.261 114.952C80.7497 115.967 79.8582 116.739 78.7804 117.1C77.4104 117.56 76.0304 117.96 74.6304 118.31C73.2304 118.66 71.8704 118.93 70.4404 119.16C69.0104 119.39 67.5804 119.57 66.1704 119.68C64.7604 119.79 63.2804 119.86 61.8504 119.86C60.4204 119.86 58.9304 119.8 57.4704 119.68C56.0104 119.56 54.5704 119.38 53.1104 119.14C51.6504 118.9 50.1904 118.59 48.8004 118.24C47.4104 117.89 45.9704 117.46 44.6104 117C44.0728 116.814 43.5771 116.524 43.1515 116.147C42.726 115.769 42.379 115.312 42.1304 114.8C41.8783 114.291 41.7299 113.738 41.6938 113.171C41.6578 112.605 41.7348 112.037 41.9204 111.5C42.2943 110.417 43.0816 109.525 44.1104 109.02C44.6191 108.768 45.1728 108.62 45.7393 108.583C46.3059 108.547 46.8739 108.624 47.4104 108.81C48.5404 109.19 49.7104 109.54 50.9004 109.81C52.0604 110.1 53.2304 110.35 54.3904 110.54C55.5504 110.73 56.7604 110.88 58.0004 110.98C59.2404 111.08 60.4304 111.13 61.7004 111.13C62.9704 111.13 64.1604 111.08 65.3404 110.98C66.5204 110.88 67.7604 110.74 68.9004 110.55H68.9704C70.1304 110.36 71.3004 110.12 72.4604 109.83C73.6204 109.54 74.7804 109.21 75.9004 108.83L76.0504 109Z" fill="white"/>
</g>
<defs>
<clipPath id="clip0_213_1285">
<rect width="122.88" height="119.91" fill="white"/>
</clipPath>
</defs>
</svg>
