<svg width="102" height="93" viewBox="0 0 102 93" fill="none" xmlns="http://www.w3.org/2000/svg">
<g clip-path="url(#clip0_213_1278)">
<path fill-rule="evenodd" clip-rule="evenodd" d="M41.3545 73.6115L46.6919 89.3319L49.373 79.9995L48.0615 78.5522C47.4722 77.6871 47.3394 76.9302 47.6631 76.2731C48.377 74.8591 49.8462 75.1253 51.2241 75.1253C52.6685 75.1253 54.4531 74.8508 54.9014 76.6641C55.0591 77.2713 54.8682 77.9034 54.4448 78.5522L53.125 79.9995L55.8062 89.3319L60.6372 73.6115C64.1235 76.7556 74.4331 77.3794 78.2764 79.5254C79.4883 80.2074 80.584 81.0641 81.4722 82.2286C83.8628 85.3976 84.0371 85.6056 84.6514 89.5398C84.4522 91.6109 83.2817 92.8087 80.9658 92.9917H21.0342C18.7183 92.817 17.5479 91.6193 17.3486 89.5398C17.9629 85.6056 18.1455 85.3976 20.5278 82.2286C21.4077 81.0558 22.5034 80.1991 23.7236 79.5254C27.5586 77.3794 37.8765 76.7472 41.3545 73.6115ZM23.2256 72.5718C23.1592 72.4387 23.0845 72.3222 23.0015 72.2058C22.6279 71.5903 22.2544 70.9831 21.8726 70.2844C21.499 69.5275 21.1255 68.8205 20.7852 68.1634C20.4531 67.4564 20.1294 66.6995 19.8472 65.9509C19.6147 65.2938 19.3325 64.5452 19.0503 63.6469C18.6353 62.3743 17.4482 61.5841 16.1865 61.5841H8.06836C7.78613 61.5841 7.51221 61.5425 7.31299 61.4427C7.13037 61.3429 6.89795 61.2098 6.75684 61.0268C6.57422 60.8355 6.4248 60.6525 6.3418 60.4695C6.24219 60.2866 6.20068 59.9954 6.20068 59.721V49.4486C6.20068 49.1658 6.24219 48.9329 6.30029 48.7416C6.3999 48.5503 6.53271 48.3257 6.77344 48.0845C6.95605 47.9015 7.14697 47.7518 7.32959 47.7102C7.52051 47.6104 7.80273 47.5688 8.07666 47.5688H15.5391C17.0415 47.5688 18.2617 46.4792 18.5439 45.0735C18.7266 44.275 18.9175 43.5264 19.1001 42.861C19.3325 42.1041 19.5732 41.3971 19.8555 40.6485C20.1377 39.9415 20.4116 39.1846 20.7935 38.4859C21.1255 37.729 21.499 37.0802 21.8228 36.4231C22.4785 35.2004 22.2378 33.7864 21.3081 32.8548L15.4893 26.9742C15.4478 26.9327 15.4478 26.9327 15.3896 26.9327C15.207 26.7497 15.0576 26.5584 14.9746 26.3754C14.875 26.1924 14.875 26.0011 14.875 25.7183C14.875 25.4355 14.9165 25.2026 15.0161 25.0113C15.1157 24.7784 15.2485 24.5954 15.4893 24.3542L22.6694 17.201C22.9019 16.9681 23.0845 16.8267 23.3252 16.7269C23.5161 16.627 23.7402 16.5855 24.0308 16.5855C24.313 16.5855 24.5454 16.627 24.7363 16.7269C24.9272 16.8267 25.1514 16.9598 25.3506 17.1427H25.3921L30.6963 22.4577C31.7256 23.4891 33.3691 23.6305 34.5479 22.7904C35.1621 22.4162 35.7681 22.0419 36.4653 21.6592C37.2124 21.2849 37.9263 20.9107 38.582 20.5696C39.2876 20.2369 40.043 19.9125 40.79 19.6297C41.4458 19.3968 42.1929 19.114 43.0894 18.8312C44.3594 18.4153 45.1479 17.2259 45.1479 15.9616V7.8103C45.1479 7.5275 45.1895 7.25302 45.2891 7.05339C45.3887 6.8704 45.5215 6.6791 45.6626 6.49611C45.8535 6.31312 46.0361 6.1634 46.2188 6.12181C46.4014 6.022 46.6919 5.98041 46.9741 5.98041H54.1875H54.2705H55.0093C55.2915 5.98041 55.5654 6.022 55.7646 6.12181C55.9473 6.1634 56.1382 6.31312 56.3208 6.49611C56.4619 6.6791 56.603 6.8704 56.6943 7.05339C56.7939 7.23638 56.8355 7.5275 56.8355 7.8103V15.9533C56.8355 17.2259 57.6323 18.3987 58.894 18.8229C59.7822 19.1057 60.5376 19.3802 61.1934 19.6214C61.9487 19.9042 62.6958 20.2369 63.4014 20.5613C64.0571 20.894 64.7627 21.2683 65.5181 21.6509C66.2236 22.0252 66.8296 22.3995 67.4355 22.7821C68.606 23.6305 70.2495 23.4891 71.2871 22.4494L76.5913 17.1344H76.6328C76.8154 16.9514 77.0478 16.8017 77.2471 16.7185C77.4297 16.6187 77.6621 16.5771 77.9526 16.5771C78.2349 16.5771 78.4673 16.6187 78.6582 16.7185C78.8989 16.8184 79.0732 16.9514 79.314 17.1926L86.4941 24.3459C86.7266 24.5787 86.8677 24.7617 86.9673 25.003C87.0669 25.1859 87.1084 25.4188 87.1084 25.71C87.1084 25.9928 87.1084 26.1841 87.0088 26.3671C86.9092 26.5584 86.7764 26.7413 86.5937 26.9243C86.5522 26.9243 86.5522 26.9243 86.4941 26.9659L80.6753 32.8465C79.7373 33.7864 79.5049 35.2004 80.1606 36.4148C80.4927 37.0719 80.8662 37.729 81.1899 38.4776C81.5635 39.1846 81.8457 39.9415 82.1279 40.6402C82.4102 41.3888 82.6426 42.1041 82.8833 42.8527C83.0659 43.5098 83.2568 44.2584 83.4395 45.0652C83.7217 46.4709 84.9419 47.5605 86.4443 47.5605H93.8984C94.1807 47.5605 94.4546 47.6021 94.6538 47.7019C94.8364 47.7435 95.0273 47.8849 95.21 48.0762C95.4507 48.3174 95.5835 48.5503 95.6831 48.7333C95.7246 48.9163 95.7827 49.1492 95.7827 49.4403V59.696C95.7827 59.9788 95.7412 60.2533 95.6416 60.4529C95.542 60.6442 95.4009 60.8272 95.2266 61.0102C95.0855 61.1932 94.853 61.3429 94.6704 61.4261C94.4795 61.5259 94.1973 61.5675 93.9233 61.5675H85.7969C84.5269 61.5675 83.3564 62.366 82.9331 63.6303C82.6509 64.5203 82.377 65.2772 82.1362 65.9343C81.854 66.6912 81.522 67.4398 81.1982 68.1468C80.4927 69.5358 79.812 70.8666 78.9902 72.1892C78.9072 72.3056 78.8325 72.4221 78.7661 72.5551H85.8716C86.1704 71.9563 86.4692 71.3075 86.7847 70.6421C87.1582 69.7937 87.5317 68.9536 87.8721 68.1052C87.9136 67.9638 88.0132 67.7725 88.063 67.6311H94.0728C95.1519 67.6311 96.1895 67.4481 97.1191 67.0738C98.0571 66.6995 98.9536 66.084 99.709 65.3354C100.464 64.5868 101.07 63.7301 101.444 62.7403C101.817 61.7505 102 60.7607 102 59.6877V49.4403C102 48.4089 101.768 47.3775 101.386 46.4293C101.012 45.4894 100.448 44.641 99.7007 43.8924L99.6592 43.8508C98.9038 43.0939 98.0571 42.4867 97.1274 42.1041C96.1895 41.6882 95.1519 41.4886 94.0811 41.4886H88.9595C88.9595 41.3472 88.918 41.2557 88.8599 41.1143C88.5776 40.2243 88.3037 39.326 87.9717 38.4776C87.5981 37.5876 87.2661 36.7309 86.8926 35.9407C86.8511 35.8409 86.7515 35.7078 86.71 35.5664L90.9434 31.2828C91.7402 30.5758 92.3047 29.7357 92.7197 28.7875C93.0933 27.8476 93.334 26.8079 93.334 25.7349C93.334 24.6453 93.1514 23.6721 92.7197 22.6823C92.3047 21.7424 91.7319 20.894 90.9849 20.1454H90.9434L83.7632 12.9922C83.0161 12.2436 82.1611 11.678 81.1733 11.2538C80.1855 10.8379 79.1978 10.6383 78.127 10.6383C77.0977 10.6383 76.0684 10.8213 75.0806 11.2538C74.0928 11.6281 73.2461 12.2436 72.4907 12.9922L68.8301 16.6187L68.5479 16.4773C67.7925 16.0614 66.9458 15.6788 66.0576 15.2546C65.2109 14.8803 64.3726 14.506 63.5259 14.165C63.3848 14.1234 63.1938 14.0236 63.0527 13.9737V7.94339C63.0527 6.85377 62.8701 5.82238 62.4966 4.8908C62.123 3.94258 61.5088 3.05259 60.7617 2.29568C59.9648 1.53877 59.1182 0.93158 58.1719 0.557285C57.1924 0.182989 56.2046 0 55.1172 0H51.415H50.585H46.8828C45.7954 0 44.8242 0.182989 43.8364 0.557285C42.9067 0.93158 42.0518 1.54709 41.2466 2.29568C40.4912 3.05259 39.8853 3.94258 39.5117 4.8908C39.1382 5.82238 38.9556 6.87041 38.9556 7.94339V13.9654C38.8145 14.007 38.6235 14.1068 38.4824 14.1567C37.6357 14.4894 36.7974 14.8637 35.9507 15.2463C35.0625 15.6622 34.2158 16.0448 33.4605 16.469L33.1782 16.6104L29.5176 12.9839C28.7705 12.2353 27.9155 11.6198 26.9277 11.2455C25.9399 10.8296 24.9106 10.63 23.8813 10.63C22.7939 10.63 21.8228 10.813 20.835 11.2455C19.8472 11.6614 19.0005 12.2353 18.2451 12.9839L11.0649 20.1371H11.0234C10.2764 20.8857 9.71191 21.7424 9.28857 22.674C8.87353 23.6555 8.67432 24.6453 8.67432 25.7183C8.67432 26.8079 8.90674 27.8393 9.28857 28.7709C9.70361 29.7108 10.2764 30.5592 11.0732 31.2662L15.2983 35.5498C15.2568 35.6912 15.1572 35.8326 15.1157 35.9241C14.7422 36.7226 14.4102 37.571 14.0283 38.461C13.6963 39.3094 13.4141 40.1994 13.1401 41.0977C13.0986 41.2391 13.0405 41.3306 13.0405 41.472H7.93555C6.84814 41.472 5.81885 41.6633 4.88916 42.0875C3.95117 42.4618 3.10449 43.0773 2.35742 43.8259L2.31592 43.8675C1.56055 44.616 1.00439 45.4728 0.630859 46.4043C0.232422 47.3609 0 48.4089 0 49.4403V59.6877C0 60.7773 0.182617 61.7505 0.556152 62.7403C0.929688 63.7301 1.54395 64.5785 2.29102 65.3354C3.03809 66.0923 3.93457 66.6995 4.88086 67.0738C5.81885 67.4481 6.85645 67.6311 7.92725 67.6311H13.937C13.9785 67.7725 14.0781 67.9638 14.1279 68.1052C14.46 68.9536 14.8335 69.7937 15.2153 70.6421C15.5391 71.3158 15.8296 71.9646 16.1284 72.5551H23.2256V72.5718ZM38.939 51.1205C38.2749 51.1454 37.7769 51.2868 37.4365 51.5114C37.2373 51.6445 37.0962 51.8108 37.0049 52.0105C36.897 52.2267 36.8555 52.5012 36.8638 52.809C36.8887 53.7239 37.3701 54.905 38.2832 56.2691L38.2915 56.2941L41.2715 61.0435C42.4668 62.9482 43.7202 64.8946 45.2725 66.3169C46.7666 67.6893 48.5845 68.6126 50.9917 68.6209C53.5898 68.6292 55.499 67.6643 57.0347 66.2087C58.6367 64.7032 59.9067 62.6405 61.1602 60.5694L64.5137 55.0298C65.1362 53.5991 65.3687 52.6426 65.2275 52.077C65.1362 51.7443 64.771 51.5779 64.1484 51.553C64.0156 51.5447 63.8828 51.5447 63.7417 51.5447C63.5923 51.553 63.4346 51.5613 63.2686 51.5696C63.1772 51.5779 63.0942 51.5696 63.0112 51.553C62.7124 51.5696 62.4053 51.5447 62.0898 51.5031L63.2354 46.4043C57.1011 46.3295 52.8926 45.2565 47.9287 42.0708C46.2935 41.0311 45.8037 39.8334 44.1685 39.9498C42.9399 40.1827 41.9023 40.74 41.0723 41.63C40.2837 42.4784 39.686 43.6429 39.2959 45.1317L39.9517 51.1371C39.603 51.1787 39.2627 51.1621 38.939 51.1205ZM65.3105 50.0475C66.1406 50.297 66.6719 50.8294 66.8794 51.6778C67.1201 52.626 66.8545 53.9485 66.0659 55.7534C66.0493 55.7867 66.0327 55.82 66.0161 55.8532L62.6211 61.4593C61.3096 63.6219 59.9814 65.7845 58.2051 67.4481C56.3706 69.1698 54.1045 70.3177 51.0083 70.3094C48.1196 70.301 45.9448 69.1948 44.1602 67.5562C42.4336 65.9759 41.1138 63.938 39.8604 61.9335L36.8804 57.1841C35.793 55.5538 35.2285 54.0649 35.187 52.8422C35.1704 52.2683 35.27 51.7443 35.4775 51.2868C35.7017 50.8044 36.042 50.4051 36.4985 50.0974C36.7144 49.956 36.9551 49.8312 37.2207 49.7314C37.0298 47.1613 36.9551 43.909 37.0796 41.1892C37.146 40.5487 37.2622 39.8999 37.4448 39.2511C38.2085 36.5229 40.1177 34.3271 42.4834 32.8216C43.3135 32.2892 44.2266 31.8484 45.1978 31.4991C50.917 29.4113 58.5122 30.5508 62.5796 34.9509C64.2314 36.7475 65.2773 39.1264 65.5015 42.2705L65.3105 50.0475Z" fill="white"/>
</g>
<defs>
<clipPath id="clip0_213_1278">
<rect width="102" height="93" fill="white"/>
</clipPath>
</defs>
</svg>
