<svg width="123" height="114" viewBox="0 0 123 114" fill="none" xmlns="http://www.w3.org/2000/svg">
<g clip-path="url(#clip0_210_1267)">
<path fill-rule="evenodd" clip-rule="evenodd" d="M0.000206036 67.6C-0.059794 61.77 2.16021 56.6 7.37021 54.91L7.50021 54.69C7.65255 54.3907 7.85554 54.12 8.10021 53.89C8.41553 53.6586 8.7718 53.4889 9.15021 53.39L9.44021 53.28C34.7002 44 46.0902 30.07 52.6402 20.61C52.6402 29.9 54.9702 42.01 59.0702 53.73C63.2802 65.73 69.3602 77.44 76.7802 85.49C69.0502 83.29 59.3502 80.49 43.5702 82.64C42.9094 84.2499 42.5305 85.9615 42.4502 87.7C42.3982 88.2421 42.4603 88.7892 42.6325 89.3059C42.8047 89.8226 43.0833 90.2975 43.4502 90.7L43.6902 90.92C44.6902 91.83 45.1802 92.28 45.4002 93.09C45.5473 94.1626 45.5033 95.2527 45.2702 96.31L45.1802 96.98C44.8102 99.91 46.2302 100.51 47.6402 101.11C49.0502 101.71 50.1502 102.19 50.7202 103.8C50.7603 103.93 50.7603 104.07 50.7202 104.2C50.1402 107.2 48.2202 108.84 46.2902 110.49C45.8202 110.9 45.3402 111.31 44.9302 111.7H44.8702C40.9502 114.84 38.3002 114 36.2902 111.48C34.7102 109.48 33.6102 106.48 32.5902 103.67L32.1502 102.45C30.4984 97.5098 29.1624 92.4697 28.1502 87.36L27.8102 85.86C26.9402 86.1 26.0302 86.37 25.0802 86.65C23.8802 87 22.6802 87.38 21.4902 87.76L21.1102 87.9C20.9127 88.0299 20.6816 88.0991 20.4452 88.0991C20.2088 88.0991 19.9777 88.0299 19.7802 87.9C13.4702 90 8.20021 87 4.68021 82C3.19419 79.8898 2.04389 77.5622 1.27021 75.1C0.477766 72.6767 0.0497604 70.1491 0.000206036 67.6ZM87.8102 16.16C87.4941 16.401 87.1333 16.5768 86.7486 16.6772C86.364 16.7776 85.9633 16.8006 85.5697 16.7447C85.1761 16.6889 84.7976 16.5554 84.456 16.352C84.1145 16.1486 83.8168 15.8794 83.5802 15.56L83.5102 15.47C83.0518 14.826 82.8613 14.0293 82.9789 13.2477C83.0964 12.4661 83.5127 11.7606 84.1402 11.28C89.0002 7.68996 93.8402 4.06996 98.7002 0.559964C99.3412 0.0959179 100.136 -0.104522 100.92 -3.57255e-05C101.721 0.122738 102.44 0.557856 102.92 1.20996V1.25996C103.382 1.90531 103.569 2.70712 103.44 3.48996C103.383 3.88734 103.246 4.26912 103.038 4.61266C102.83 4.95621 102.555 5.25454 102.23 5.48996L87.8102 16.16ZM103.6 73.86C103.205 73.8518 102.814 73.7654 102.452 73.6058C102.09 73.4462 101.763 73.2165 101.49 72.93C101.215 72.6468 100.998 72.312 100.852 71.9448C100.706 71.5775 100.634 71.1851 100.64 70.79V70.72C100.64 70.32 100.72 69.9241 100.875 69.5555C101.03 69.1869 101.257 68.853 101.543 68.5735C101.83 68.294 102.169 68.0745 102.541 67.9279C102.913 67.7813 103.31 67.7106 103.71 67.72C109.08 67.72 114.54 67.92 119.91 68.02C120.717 68.0383 121.485 68.374 122.046 68.9542C122.608 69.5345 122.918 70.3126 122.91 71.12C122.894 71.9309 122.56 72.7031 121.98 73.27C121.696 73.5498 121.358 73.77 120.987 73.9177C120.616 74.0654 120.219 74.1375 119.82 74.13L103.63 73.82L103.6 73.86ZM104.07 58.15C103.674 58.1841 103.274 58.139 102.895 58.0172C102.516 57.8955 102.165 57.6995 101.863 57.4408C101.56 57.182 101.312 56.8657 101.133 56.5102C100.954 56.1546 100.848 55.767 100.82 55.37V55.3C100.775 54.508 101.038 53.7294 101.555 53.1272C102.071 52.5251 102.801 52.1462 103.59 52.07C108.59 51.67 113.68 51.24 118.69 50.92C119.491 50.8702 120.279 51.1368 120.885 51.6624C121.491 52.1879 121.866 52.9304 121.93 53.73C121.962 54.1284 121.914 54.5291 121.788 54.9086C121.663 55.2882 121.463 55.6388 121.2 55.94C120.673 56.5525 119.926 56.9333 119.12 57C114.27 57.48 108.94 57.88 104.07 58.14V58.15ZM101.91 43.56C101.523 43.6698 101.119 43.7023 100.72 43.6557C100.32 43.609 99.934 43.4842 99.583 43.2882C99.232 43.0923 98.923 42.8291 98.6737 42.5136C98.4244 42.1982 98.2397 41.8368 98.1302 41.45C98.0206 41.0678 97.988 40.6677 98.0343 40.2729C98.0807 39.878 98.2051 39.4963 98.4002 39.15C98.7959 38.4428 99.4528 37.9187 100.23 37.69C105.44 36.32 110.63 34.64 115.84 33.24C116.222 33.1303 116.622 33.0977 117.017 33.1441C117.412 33.1904 117.794 33.3148 118.14 33.51C118.839 33.899 119.359 34.5445 119.59 35.31C119.81 36.0896 119.712 36.9244 119.319 37.6324C118.925 38.3404 118.268 38.8643 117.49 39.09L101.9 43.54L101.91 43.56ZM95.6102 29.24C95.2517 29.4186 94.8615 29.5248 94.462 29.5526C94.0624 29.5804 93.6613 29.5292 93.2815 29.402C92.9017 29.2748 92.5507 29.074 92.2485 28.8112C91.9463 28.5483 91.6988 28.2285 91.5202 27.87C91.3375 27.5127 91.2283 27.1224 91.1991 26.7222C91.1699 26.322 91.2213 25.92 91.3502 25.54C91.6085 24.7722 92.1579 24.1366 92.8802 23.77L107.88 16.28C108.237 16.0945 108.628 15.9828 109.029 15.9514C109.431 15.9201 109.834 15.9699 110.216 16.0977C110.597 16.2255 110.949 16.4288 111.251 16.6955C111.552 16.9622 111.797 17.2868 111.97 17.65C112.151 18.0079 112.259 18.3985 112.286 18.7988C112.314 19.199 112.261 19.6006 112.13 19.98C111.872 20.745 111.322 21.3774 110.6 21.74L95.6002 29.24H95.6102ZM58.7502 12C58.8802 11.85 59.0202 11.71 59.1502 11.58C59.5605 11.1106 60.0647 10.7325 60.6302 10.47C61.2757 10.2537 61.9695 10.2259 62.6302 10.39C64.8802 10.75 67.2902 12.39 69.7402 14.9C75.7402 21.09 82.0602 32.9 86.5602 45.31C91.0602 57.72 93.7602 70.67 92.4102 79.08C91.9002 82.21 90.8402 84.74 89.1002 86.41L89.0102 86.48C88.2786 87.0058 87.4316 87.3487 86.5402 87.48C86.4614 87.4079 86.3778 87.3411 86.2902 87.28C80.3002 83 75.0002 75.9 70.5402 67.55C71.6802 67.77 73.1402 66.92 74.5402 65.47C81.5402 58.09 78.1002 45.19 69.3702 42.2C65.8102 41 62.2702 41 60.8702 41.69L60.7202 41.77C57.5202 29.42 56.6102 18 58.7502 12Z" fill="white"/>
</g>
<defs>
<clipPath id="clip0_210_1267">
<rect width="122.88" height="113.8" fill="white"/>
</clipPath>
</defs>
</svg>
