<svg width="512" height="512" viewBox="0 0 512 512" fill="none" xmlns="http://www.w3.org/2000/svg">
<path fill-rule="evenodd" clip-rule="evenodd" d="M72.0538 108.425C64 119.899 64 154.007 64 222.223V255.817C64 376.094 154.431 434.464 211.169 459.249C226.56 465.971 234.255 469.333 256 469.333C277.745 469.333 285.44 465.971 300.83 459.249C357.568 434.464 448 376.094 448 255.817V222.223C448 154.007 448 119.899 439.947 108.425C431.893 96.9502 399.823 85.9725 335.682 64.0169L323.462 59.834C290.027 48.3891 273.31 42.6667 256 42.6667C238.69 42.6667 221.973 48.3891 188.538 59.834L176.318 64.0169C112.177 85.9725 80.1073 96.9502 72.0538 108.425ZM321.269 223.989C327.153 217.397 326.581 207.284 319.989 201.398C313.397 195.513 303.283 196.086 297.397 202.677L233.143 274.643L214.603 253.877C208.716 247.285 198.602 246.714 192.01 252.597C185.419 258.483 184.846 268.597 190.732 275.189L221.207 309.323C224.243 312.723 228.585 314.667 233.143 314.667C237.7 314.667 242.042 312.723 245.077 309.323L321.269 223.989Z" fill="white"/>
</svg>
