<svg xmlns="http://www.w3.org/2000/svg" width="1302.853" height="347.72" viewBox="0 0 1302.853 347.72">
  <g id="CLUTCH" transform="translate(0 -11.18)">
    <path id="Path_19442" data-name="Path 19442" d="M7.922,31H30.516A32.044,32.044,0,0,1,43.5,33.344a17.234,17.234,0,0,1,8.109,6.937,20.917,20.917,0,0,1,2.813,11.2A19.1,19.1,0,0,1,52.5,60.063a18.253,18.253,0,0,1-5.437,6.563,23.99,23.99,0,0,1-8.437,3.984l-2.531.984H14.859l-.094-7.359H30.8a17.421,17.421,0,0,0,8.109-1.687,11.865,11.865,0,0,0,4.875-4.641,12.836,12.836,0,0,0,1.641-6.422,14.646,14.646,0,0,0-1.547-6.891A10.327,10.327,0,0,0,39,40.047a18.992,18.992,0,0,0-8.484-1.641H16.969V99.25H7.922ZM47.813,99.25,31.219,68.313l9.422-.047L57.469,98.688v.563Zm60.705-7.359V99.25H72.377V91.891ZM74.205,31V99.25H65.158V31Zm29.531,29.344V67.7H72.377V60.344ZM108.049,31v7.406H72.377V31Zm31.783,57.891L159.941,31h9.8L144.473,99.25h-6.985ZM121.035,31l19.922,57.891,2.484,10.359h-6.984L111.238,31Zm65.674,0V99.25h-9.047V31ZM244.6,91.891V99.25h-36.14V91.891ZM210.289,31V99.25h-9.047V31ZM239.82,60.344V67.7H208.461V60.344ZM244.133,31v7.406H208.461V31Zm27.7,47.625L285.384,31h6.563l-3.8,18.516L273.572,99.25h-6.516ZM257.822,31,268.6,77.688l3.234,21.563h-6.468L248.822,31Zm51.656,46.641L320.025,31h9.047l-16.5,68.25H306.1ZM292.931,31,306.1,78.625l4.781,20.625h-6.515L290.306,49.516,286.462,31Zm87.612,60.891V99.25H344.4V91.891ZM346.23,31V99.25h-9.047V31Zm29.531,29.344V67.7H344.4V60.344ZM380.074,31v7.406H344.4V31Zm28.22,68.25h-14.25l.094-7.359h14.156a22.6,22.6,0,0,0,12.188-3.047,19.036,19.036,0,0,0,7.312-8.625,31.775,31.775,0,0,0,2.485-13.031V63.016a35.213,35.213,0,0,0-1.407-10.406,21.045,21.045,0,0,0-4.125-7.734,17.422,17.422,0,0,0-6.656-4.828,22.877,22.877,0,0,0-8.953-1.641H393.763V31h15.375a32.178,32.178,0,0,1,12.234,2.25,26.294,26.294,0,0,1,9.516,6.422A28.142,28.142,0,0,1,437.076,49.8a38.637,38.637,0,0,1,2.156,13.313v4.078a39.038,39.038,0,0,1-2.156,13.359,27.883,27.883,0,0,1-6.235,10.078,27.206,27.206,0,0,1-9.75,6.422A35.116,35.116,0,0,1,408.294,99.25ZM398.872,31V99.25h-9.046V31ZM525.345,62.969v4.312a45.76,45.76,0,0,1-1.922,13.781,29.606,29.606,0,0,1-5.531,10.359,23.989,23.989,0,0,1-8.672,6.516,28.892,28.892,0,0,1-22.359,0,24.979,24.979,0,0,1-8.719-6.516,30.352,30.352,0,0,1-5.672-10.359,43.771,43.771,0,0,1-2.016-13.781V62.969a44.305,44.305,0,0,1,1.969-13.734A30.368,30.368,0,0,1,478.1,38.875a24.3,24.3,0,0,1,8.672-6.562,28.9,28.9,0,0,1,22.359,0,23.764,23.764,0,0,1,8.672,6.563,29.17,29.17,0,0,1,5.578,10.359A44.274,44.274,0,0,1,525.345,62.969Zm-8.953,4.312V62.875a41.494,41.494,0,0,0-1.266-10.781,22.339,22.339,0,0,0-3.609-7.875,15.574,15.574,0,0,0-5.859-4.828,17.785,17.785,0,0,0-7.782-1.641,17.446,17.446,0,0,0-7.64,1.641,16.179,16.179,0,0,0-5.813,4.828,23.6,23.6,0,0,0-3.7,7.875,40.1,40.1,0,0,0-1.312,10.781v4.406a40.825,40.825,0,0,0,1.312,10.875,23.594,23.594,0,0,0,3.75,7.922,16.584,16.584,0,0,0,5.859,4.828,17.452,17.452,0,0,0,7.641,1.641,17.89,17.89,0,0,0,7.828-1.641,15.3,15.3,0,0,0,5.766-4.828,22.846,22.846,0,0,0,3.609-7.922A43.775,43.775,0,0,0,516.392,67.281ZM589.472,31V99.25h-9.094L546.019,46.609V99.25h-9.047V31h9.047l34.5,52.781V31Z" fill="#fff"/>
    <path id="Path_19443" data-name="Path 19443" d="M710.995,14.635a5,5,0,0,1,9.51,0l9.109,28.033a5,5,0,0,0,4.755,3.455h29.476a5,5,0,0,1,2.939,9.045L742.937,72.493a5,5,0,0,0-1.816,5.59l9.108,28.033a5,5,0,0,1-7.694,5.59L718.689,94.382a5,5,0,0,0-5.878,0l-23.846,17.326a5,5,0,0,1-7.694-5.59l9.108-28.033a5,5,0,0,0-1.816-5.59L664.716,55.168a5,5,0,0,1,2.939-9.045h29.476a5,5,0,0,0,4.755-3.455Z" fill="#ff4d39"/>
    <path id="Path_19444" data-name="Path 19444" d="M844.495,14.635a5,5,0,0,1,9.51,0l9.109,28.033a5,5,0,0,0,4.755,3.455h29.476a5,5,0,0,1,2.939,9.045L876.437,72.493a5,5,0,0,0-1.816,5.59l9.108,28.033a5,5,0,0,1-7.694,5.59L852.189,94.382a5,5,0,0,0-5.878,0l-23.846,17.326a5,5,0,0,1-7.694-5.59l9.108-28.033a5,5,0,0,0-1.816-5.59L798.216,55.168a5,5,0,0,1,2.939-9.045h29.476a5,5,0,0,0,4.755-3.455Z" fill="#ff4d39"/>
    <path id="Path_19445" data-name="Path 19445" d="M977.995,14.635a5,5,0,0,1,9.51,0l9.109,28.033a5,5,0,0,0,4.756,3.455h29.47a5,5,0,0,1,2.94,9.045l-23.84,17.325a4.989,4.989,0,0,0-1.82,5.59l9.11,28.033a5,5,0,0,1-7.69,5.59L985.689,94.382a5,5,0,0,0-5.878,0l-23.846,17.326a5,5,0,0,1-7.694-5.59l9.108-28.033a5,5,0,0,0-1.816-5.59L931.716,55.168a5,5,0,0,1,2.939-9.045h29.476a5,5,0,0,0,4.755-3.455Z" fill="#ff4d39"/>
    <path id="Path_19446" data-name="Path 19446" d="M1111.49,14.635a5.006,5.006,0,0,1,9.52,0l9.1,28.033a5,5,0,0,0,4.76,3.455h29.47a5,5,0,0,1,2.94,9.045l-23.84,17.325a4.99,4.99,0,0,0-1.82,5.59l9.11,28.033a5,5,0,0,1-7.69,5.59l-23.85-17.326a5,5,0,0,0-5.88,0l-23.85,17.326a5,5,0,0,1-7.69-5.59l9.11-28.033a4.99,4.99,0,0,0-1.82-5.59l-23.84-17.325a5,5,0,0,1,2.94-9.045h29.47a5,5,0,0,0,4.76-3.455Z" fill="#ff4d39"/>
    <path id="Path_19447" data-name="Path 19447" d="M1244.99,14.635a5.006,5.006,0,0,1,9.52,0l9.1,28.033a5,5,0,0,0,4.76,3.455h29.47a5,5,0,0,1,2.94,9.045l-23.84,17.325a4.99,4.99,0,0,0-1.82,5.59l9.11,28.033a5,5,0,0,1-7.69,5.59l-23.85-17.326a5,5,0,0,0-5.88,0l-23.85,17.326a5,5,0,0,1-7.69-5.59l9.11-28.033a4.99,4.99,0,0,0-1.82-5.59l-23.84-17.325a5,5,0,0,1,2.94-9.045h29.47a5,5,0,0,0,4.76-3.455Z" fill="#ff4d39"/>
    <path id="Path_19448" data-name="Path 19448" d="M156,188.5h27.6V358.9H156Z" fill="#fff"/>
    <path id="Path_19449" data-name="Path 19449" d="M279.6,304.9c0,26.4-21.6,28.8-28.8,28.8-16.8,0-19.2-15.6-19.2-24v-66H204v64.8c0,15.6,4.8,30,14.4,38.4,8.4,8.4,19.2,12,32.4,12,9.6,0,21.6-2.4,28.8-9.6v9.6h27.6V243.7H279.6Z" fill="#fff"/>
    <path id="Path_19450" data-name="Path 19450" d="M361.2,201.7H333.6v42H313.2v26.4h20.4v88.8h27.6V270.1h20.4V243.7H361.2Z" fill="#fff"/>
    <path id="Path_19451" data-name="Path 19451" d="M468,324.1c-6,4.8-14.4,8.4-22.8,8.4-19.2,0-32.4-14.4-32.4-33.6s13.2-32.4,32.4-32.4c8.4,0,16.8,2.4,22.8,8.4l3.6,3.6,19.2-18-4.8-3.6a61.529,61.529,0,0,0-40.8-15.6c-33.6,0-58.8,25.2-58.8,58.8s25.2,58.8,58.8,58.8A61.529,61.529,0,0,0,486,343.3l4.8-3.6-19.2-19.2Z" fill="#fff"/>
    <path id="Path_19452" data-name="Path 19452" d="M588,253.3c-8.4-8.4-16.8-12-30-12-9.6,0-19.2,2.4-26.4,9.6V188.5H504V358.9h27.6V295.3c0-26.4,18-28.8,25.2-28.8,16.8,0,15.6,15.6,15.6,24v67.2H600v-66C600,276.1,596.4,261.7,588,253.3Z" fill="#fff"/>
    <path id="Path_19453" data-name="Path 19453" d="M444,319.3a19.2,19.2,0,1,0-19.2-19.2A19.2,19.2,0,0,0,444,319.3Z" fill="#ef4335"/>
    <path id="Path_19454" data-name="Path 19454" d="M117.6,316.9c-9.6,9.6-24,15.6-39.6,15.6-30,0-51.6-24-51.6-56.4S48,219.7,79.2,219.7a56.467,56.467,0,0,1,39.6,16.8l3.6,3.6,18-18-3.6-3.6a80.814,80.814,0,0,0-57.6-24C33.6,193.3,0,229.3,0,276.1s33.6,82.8,78,82.8c21.6,0,43.2-8.4,57.6-24l3.6-3.6-18-18Z" fill="#fff"/>
    <path id="Path_19455" data-name="Path 19455" d="M725.19,300.98h.947q7.968,0,12.949-2.241a18.392,18.392,0,0,0,7.67-6.026,22.548,22.548,0,0,0,3.685-8.517,47.98,47.98,0,0,0,1-9.811V263.278a30.632,30.632,0,0,0-1.146-8.765,18.962,18.962,0,0,0-3.088-6.425,13.705,13.705,0,0,0-4.433-3.935,10.951,10.951,0,0,0-5.279-1.344,12.417,12.417,0,0,0-5.727,1.295,12.015,12.015,0,0,0-4.234,3.536,16.868,16.868,0,0,0-2.59,5.379,24.052,24.052,0,0,0-.9,6.723,24.652,24.652,0,0,0,.8,6.276,17.826,17.826,0,0,0,2.44,5.478,12.661,12.661,0,0,0,4.084,3.885,11.728,11.728,0,0,0,5.827,1.394,14.062,14.062,0,0,0,5.778-1.2,16.322,16.322,0,0,0,4.831-3.337,16.743,16.743,0,0,0,3.386-4.831,15.228,15.228,0,0,0,1.495-5.628h4.382a21.473,21.473,0,0,1-1.643,8.168,25.054,25.054,0,0,1-4.483,7.272,22.767,22.767,0,0,1-6.773,5.279,18.664,18.664,0,0,1-8.467,1.942,19.577,19.577,0,0,1-9.313-2.091,18.81,18.81,0,0,1-6.475-5.579,25.5,25.5,0,0,1-3.735-7.769,32.82,32.82,0,0,1-1.2-8.766,31.808,31.808,0,0,1,1.445-9.712,23.631,23.631,0,0,1,4.283-7.968,19.523,19.523,0,0,1,7.022-5.429,23.185,23.185,0,0,1,9.762-1.943,21.159,21.159,0,0,1,10.609,2.491,20.488,20.488,0,0,1,7.122,6.674,29.692,29.692,0,0,1,4.084,9.413,44.6,44.6,0,0,1,1.295,10.757v3.337a89.842,89.842,0,0,1-.748,11.455,45.623,45.623,0,0,1-2.739,11.057,29.061,29.061,0,0,1-5.827,9.463,26.844,26.844,0,0,1-10.011,6.574,41.854,41.854,0,0,1-15.14,2.391h-.947Zm93.685.15v7.57H771.411v-6.624l23.757-26.446a94.772,94.772,0,0,0,6.773-8.268,25.767,25.767,0,0,0,3.387-6.126,16.207,16.207,0,0,0,1-5.578,13.881,13.881,0,0,0-1.494-6.474,11.2,11.2,0,0,0-4.283-4.682,12.892,12.892,0,0,0-6.873-1.743,15.775,15.775,0,0,0-8.068,1.892,11.652,11.652,0,0,0-4.782,5.18,17.6,17.6,0,0,0-1.593,7.67h-9.214a23.575,23.575,0,0,1,2.689-11.206,19.816,19.816,0,0,1,7.969-8.068,25.691,25.691,0,0,1,13-3.039,26.042,26.042,0,0,1,11.754,2.441,17.232,17.232,0,0,1,7.47,6.773,19.143,19.143,0,0,1,2.64,10.16,20.375,20.375,0,0,1-1.1,6.475,32.834,32.834,0,0,1-2.938,6.475,50.381,50.381,0,0,1-4.333,6.375q-2.441,3.138-5.23,6.175L782.518,301.13Zm33.473-64.945h24.006a34.052,34.052,0,0,1,13.8,2.49,18.31,18.31,0,0,1,8.616,7.371,22.225,22.225,0,0,1,2.988,11.9,20.293,20.293,0,0,1-2.042,9.114,19.4,19.4,0,0,1-5.777,6.973,25.5,25.5,0,0,1-8.965,4.234l-2.69,1.045H859.719l-.1-7.819h17.033a18.514,18.514,0,0,0,8.617-1.793,12.6,12.6,0,0,0,5.179-4.931,13.639,13.639,0,0,0,1.744-6.823,15.556,15.556,0,0,0-1.644-7.321,10.971,10.971,0,0,0-5.18-4.831,20.18,20.18,0,0,0-9.014-1.743H861.96V308.7h-9.612ZM894.732,308.7,877.1,275.829l10.01-.05,17.88,32.324v.6Zm64.5-7.819V308.7h-38.4v-7.819Zm-36.457-64.7V308.7h-9.613V236.185Zm31.377,31.177v7.82h-33.32v-7.82Zm4.582-31.177v7.869h-37.9v-7.869ZM992.5,297.693l21.368-61.508h10.41L997.433,308.7h-7.421ZM972.53,236.185,993.7,297.693l2.64,11.007h-7.421l-26.8-72.515Zm69.78,0V308.7h-9.61V236.185Zm61.51,64.7V308.7h-38.4v-7.819Zm-36.46-64.7V308.7h-9.61V236.185Zm31.38,31.177v7.82h-33.32v-7.82Zm4.58-31.177v7.869h-37.9v-7.869Zm29.44,50.6,14.39-50.6h6.97l-4.03,19.672L1134.6,308.7h-6.92Zm-14.89-50.6,11.45,49.605,3.44,22.91h-6.87l-17.59-72.515Zm54.88,49.555,11.21-49.555h9.61L1176.04,308.7h-6.87Zm-17.58-49.555,14,50.6,5.08,21.914h-6.93l-14.94-52.843-4.08-19.672Zm85.67,54.187a11.762,11.762,0,0,0-.8-4.482,8.6,8.6,0,0,0-2.69-3.586,21.029,21.029,0,0,0-5.28-3.038,73.362,73.362,0,0,0-8.47-2.939,78.176,78.176,0,0,1-9.71-3.536,33.936,33.936,0,0,1-7.42-4.532,17.927,17.927,0,0,1-4.73-5.827,16.543,16.543,0,0,1-1.64-7.521,17.67,17.67,0,0,1,1.74-7.819,18.25,18.25,0,0,1,4.98-6.226,24.143,24.143,0,0,1,7.82-4.183,32.162,32.162,0,0,1,10.11-1.495,28.3,28.3,0,0,1,13.85,3.138,22,22,0,0,1,8.71,8.118,20.391,20.391,0,0,1,2.99,10.659h-9.56a14.541,14.541,0,0,0-1.75-7.222,11.99,11.99,0,0,0-5.28-4.981,19.272,19.272,0,0,0-8.96-1.842,20.226,20.226,0,0,0-8.47,1.544,11.233,11.233,0,0,0-4.98,4.183,11.451,11.451,0,0,0-1.59,6.027,9.229,9.229,0,0,0,.94,4.183,11.281,11.281,0,0,0,3.04,3.437,24.56,24.56,0,0,0,5.28,2.938,67.209,67.209,0,0,0,7.72,2.59,67.218,67.218,0,0,1,10.66,3.885,29.063,29.063,0,0,1,7.37,4.831,16.49,16.49,0,0,1,4.33,6.026,18.766,18.766,0,0,1,1.45,7.57,17.746,17.746,0,0,1-1.79,8.019,17.527,17.527,0,0,1-5.13,6.126,24.864,24.864,0,0,1-8.02,3.935,37.143,37.143,0,0,1-10.36,1.344,35.87,35.87,0,0,1-9.91-1.394,29.606,29.606,0,0,1-8.82-4.184,21.889,21.889,0,0,1-6.32-6.873,19.075,19.075,0,0,1-2.34-9.562h9.56a13.43,13.43,0,0,0,1.44,6.424,12.751,12.751,0,0,0,3.94,4.383,18.328,18.328,0,0,0,5.72,2.59,28.071,28.071,0,0,0,6.73.8,22.936,22.936,0,0,0,8.51-1.4,11.24,11.24,0,0,0,5.28-3.984A10.287,10.287,0,0,0,1240.84,290.372Z" transform="translate(0 21)" fill="#fff"/>
  </g>
</svg>
